<?xml version="1.0" encoding="utf-8"?>
<!-- Generator: Adobe Illustrator 19.2.1, SVG Export Plug-In . SVG Version: 6.00 Build 0)  -->
<svg version="1.1" id="Layer_1" xmlns="http://www.w3.org/2000/svg" xmlns:xlink="http://www.w3.org/1999/xlink" x="0px" y="0px"
	 viewBox="0 0 178 123" style="enable-background:new 0 0 178 123;" xml:space="preserve">
<style type="text/css">
	.st0{fill:#F88D88;}
	.st1{fill:#4D4D4D;}
	.st2{fill:#CF998C;}
	.st3{fill:#FFFFFF;}
</style>
<g>
	<g>
		<g>
			<g>
				<path class="st0" d="M101.7,78.8c-7.3-0.4-19.8-0.4-26.3,0.1C79.8,90.6,98.6,91,101.7,78.8z"/>
				<path class="st1" d="M76.7,64.3c1.2,0,2.1-2.4,2.1-5.4s-1-5.4-2.1-5.4c-1.2,0-2.1,2.4-2.1,5.4S75.5,64.3,76.7,64.3z"/>
				<path class="st1" d="M99.1,64.3c1.2,0,2.1-2.4,2.1-5.4s-1-5.4-2.1-5.4c-1.2,0-2.1,2.4-2.1,5.4C96.9,61.9,97.9,64.3,99.1,64.3z"
					/>
				<path class="st2" d="M101.2,78.9c-7.2,1.7-18,1.8-25.5,0.2C81.7,86.6,95.1,86.9,101.2,78.9z"/>
				<path class="st2" d="M85.8,73.8c5.3,1.1,7.5-2.2,7.6-4.9C94.8,74,91.1,76.7,85.8,73.8z"/>
				<path class="st3" d="M100.3,79.1c-6.9,1.5-16.7,1.5-23.9,0.1C80.1,84.1,96.4,84,100.3,79.1z"/>
			</g>
		</g>
	</g>
</g>
</svg>
