<?xml version="1.0" encoding="utf-8"?>
<!-- Generator: Adobe Illustrator 19.2.1, SVG Export Plug-In . SVG Version: 6.00 Build 0)  -->
<svg version="1.1" id="Layer_1" xmlns="http://www.w3.org/2000/svg" xmlns:xlink="http://www.w3.org/1999/xlink" x="0px" y="0px"
	 viewBox="0 0 178 75" style="enable-background:new 0 0 178 75;" xml:space="preserve">
<style type="text/css">
	.st0{fill:#2C343B;}
	.st1{fill:#685443;}
	.st2{fill:none;stroke:#C9B587;stroke-width:1.1999;stroke-linecap:round;stroke-linejoin:round;stroke-miterlimit:22.9256;}
	.st3{fill:#C9B587;}
</style>
<g>
	<g>
		<path class="st0" d="M98.9,44c0,2.1,0,5.4,0.5,7.1c0.5,1.7,7.8,4.3,10.2,5c2.4,0.7,2.7-1.3,2.7-1.3c7.7,2.4,10.8,6.7,14.6,8.9
			c3.8,2.1,8.8,4.7,17.2,5.2c8,0.5,18.1-3.9,17.4-8.3c-0.2-1.3,0-2-0.6-3.1c0,0.2,0.2,0.7-0.1,0.7c-7.4,1.5-22.8,3.9-30-3.9
			c-7.7-8.3-24.2-4.6-26.8-11c-0.2-0.4-4.2,0.2-4.3-0.3C99.4,43.3,99.1,43.6,98.9,44z"/>
		<path class="st1" d="M147.7,46.8c-3.2,0-16.7-15-21.7-20.7s-6.6-11.2-6-15.8c-0.6,4.6-13.3,3.2-15.1,2.9c-1.8-0.3-5.4-3.3-5.4-3.3
			c2.7,9.3-2.6,28.3,0,34.7s16.5,7.2,25,14.2c11.4,9.5,35.1,9,36.7-0.6C162,54.3,154.3,46.8,147.7,46.8z"/>
		<path class="st2" d="M125.9,58.7c1.1-6.9,2.1-15.1-0.4-21.1c-2.5-6.1,5-7.2,7.7-2.8"/>
		<g>
			<path class="st3" d="M103.7,12.7c-0.4-0.2-0.8-0.5-1.3-0.7c1,11.3,2.9,30.5,4.9,38c0.1,0.3,0.3,0.4,0.6,0.4c0.1,0,0.1,0,0.2,0
				c0.3-0.1,0.5-0.4,0.4-0.7C106.5,42.4,104.6,23.2,103.7,12.7z"/>
			<path class="st3" d="M106.7,13.3c-0.5,0-0.9-0.1-1.2-0.1c1,11,2.9,30.6,4.9,38.1c0.1,0.3,0.3,0.4,0.6,0.4c0.1,0,0.1,0,0.2,0
				c0.3-0.1,0.5-0.4,0.4-0.7C109.6,43.6,107.7,24.3,106.7,13.3z"/>
		</g>
	</g>
	<g>
		<path class="st0" d="M82.8,44c0,2.1,0,5.4-0.5,7.1c-0.5,1.7-7.8,4.3-10.2,5c-2.4,0.7-2.7-1.3-2.7-1.3c-7.7,2.4-10.8,6.7-14.6,8.9
			c-3.8,2.1-8.8,4.7-17.2,5.2c-8,0.5-18.1-3.9-17.4-8.3c0.2-1.3,0-2,0.6-3.1c0,0.2-0.2,0.7,0.1,0.7c7.4,1.5,22.8,3.9,30-3.9
			c7.7-8.3,24.2-4.6,26.8-11c0.2-0.4,4.2,0.2,4.3-0.3C82.3,43.3,82.6,43.6,82.8,44z"/>
		<path class="st1" d="M82.2,9.9c0,0-3.6,3-5.4,3.3S62.3,15,61.7,10.3c0.6,4.6-1,10.1-6,15.8S37.2,46.8,34,46.8
			c-6.6,0-14.3,7.5-13.6,11.4c1.7,9.6,25.3,10.1,36.7,0.6c8.4-7,22.4-7.8,25-14.2C84.7,38.1,79.4,19.2,82.2,9.9z"/>
		<path class="st2" d="M55.8,58.7c-1.1-6.9-2.1-15.1,0.4-21.1c2.5-6.1-5-7.2-7.7-2.8"/>
		<g>
			<path class="st3" d="M76.2,13.2c-0.3,0-0.7,0.1-1.2,0.1c-1,11-2.9,30.3-4.9,37.7c-0.1,0.3,0.1,0.6,0.4,0.7c0.1,0,0.1,0,0.2,0
				c0.3,0,0.5-0.2,0.6-0.4C73.3,43.8,75.3,24.3,76.2,13.2L76.2,13.2z"/>
			<path class="st3" d="M78,12.7c-1,10.9-2.8,29.7-4.8,36.9c-0.1,0.3,0.1,0.6,0.4,0.7c0.1,0,0.1,0,0.2,0c0.3,0,0.5-0.2,0.6-0.4
				c2-7.4,3.9-26.7,4.9-37.5c0-0.1,0-0.3,0-0.4C78.9,12.2,78.4,12.4,78,12.7z"/>
		</g>
	</g>
</g>
</svg>
