<?xml version="1.0" encoding="utf-8"?>
<!-- Generator: Adobe Illustrator 19.2.1, SVG Export Plug-In . SVG Version: 6.00 Build 0)  -->
<svg version="1.1" id="Layer_1" xmlns="http://www.w3.org/2000/svg" xmlns:xlink="http://www.w3.org/1999/xlink" x="0px" y="0px"
	 viewBox="0 0 178 75" style="enable-background:new 0 0 178 75;" xml:space="preserve">
<style type="text/css">
	.st0{fill:#ED5940;}
	.st1{fill:none;stroke:#CF3F26;stroke-width:1.1999;stroke-miterlimit:22.9256;}
	.st2{fill:none;stroke:#FFFFFF;stroke-width:1.9199;stroke-linecap:round;stroke-linejoin:round;stroke-miterlimit:22.9256;}
	.st3{fill:#E0E0E0;}
</style>
<g>
	<g>
		<g>
			<path class="st0" d="M80.6,20.8c2.1,6.7,1.6,20.4,0.7,22.7C78.9,49.3,63,50.7,56,58.2c-6.5,7-29.4,6.5-31.2-2.1
				c-0.7-3.6,4.8-7.7,12.7-11.2C39,44.3,53.2,36.3,60,28.3c1.6-1.8,0.2-5.2-0.7-6.8c-1.4-2.4,11.8-5.1,12.2-1c0.1,1,0.8,2.7,0.7,4.3
				C81.1,25.9,80,22.7,80.6,20.8z"/>
			<path class="st1" d="M72.8,24.9c-1.6,4.9-13.1,17.9-18.4,21.9c-11.9,9-21.1,1.2-17.2-1.1"/>
			<g>
				<line class="st2" x1="55.7" y1="43" x2="52.2" y2="35.4"/>
				<line class="st2" x1="59.1" y1="39.2" x2="55.6" y2="31.7"/>
				<line class="st2" x1="62.3" y1="36" x2="58.9" y2="29.1"/>
				<line class="st2" x1="47.7" y1="38.5" x2="58.1" y2="39.4"/>
				<line class="st2" x1="51.7" y1="35.1" x2="62.1" y2="36"/>
				<line class="st2" x1="55.1" y1="32" x2="65.6" y2="31.9"/>
				<line class="st2" x1="51" y1="45.1" x2="47.6" y2="38.4"/>
				<line class="st2" x1="43.5" y1="41.7" x2="55" y2="43.1"/>
				<line class="st2" x1="38.3" y1="44.4" x2="51.3" y2="45.6"/>
				<line class="st2" x1="46.1" y1="48.7" x2="43.4" y2="41.7"/>
			</g>
		</g>
		<path class="st3" d="M82.1,29.6c-0.3,4-1.8,14.4-6.1,18.2c-6,2.9-15.2,5.1-20.1,10.4c-6.5,7-29.4,6.5-31.2-2.1
			c-0.4-1.8,0.9-3.8,3.2-5.7c-0.1,0-0.1,0-0.2,0c-2.3,1.7-3.2,3.4-3.5,5c-0.4,1.2-0.3,3.8-0.1,4.6c1.8,8.6,25.3,9.2,31.8,2.2
			c7-7.6,23-8.9,25.3-14.7c0.3-0.8,0.5-1.7,0.6-2.8C82.4,42.4,83.1,35.2,82.1,29.6z"/>
	</g>
	<g>
		<g>
			<path class="st0" d="M100.9,19.8c-2.1,6.7-1.6,20.4-0.7,22.7c2.4,5.8,18.3,7.2,25.3,14.7c6.5,7,29.4,6.5,31.2-2.1
				c0.7-3.6-4.8-7.7-12.7-11.2c-1.6-0.7-17.2-9.4-23.5-17.8c-1.1-1.5,0.8-5.8,1.2-7.2c0.8-2.8-12.1-3.2-12.9,0.3
				c-0.2,1-0.6,3,0.4,4.5C100.4,24.9,101.5,21.7,100.9,19.8z"/>
			<path class="st1" d="M108.7,23.9c1.6,4.9,13.1,17.9,18.4,21.9c11.9,9,21.1,1.2,17.2-1.1"/>
			<g>
				<line class="st2" x1="125.7" y1="42" x2="129.3" y2="34.4"/>
				<line class="st2" x1="122.4" y1="38.2" x2="125.9" y2="30.7"/>
				<line class="st2" x1="119.1" y1="35" x2="122.6" y2="28.1"/>
				<line class="st2" x1="133.8" y1="37.5" x2="123.4" y2="38.4"/>
				<line class="st2" x1="129.8" y1="34.1" x2="119.4" y2="35"/>
				<line class="st2" x1="126.4" y1="31" x2="115.9" y2="30.9"/>
				<line class="st2" x1="130.5" y1="44.1" x2="133.9" y2="37.4"/>
				<line class="st2" x1="138" y1="40.7" x2="126.5" y2="42.1"/>
				<line class="st2" x1="143.2" y1="43.4" x2="130.2" y2="44.6"/>
				<line class="st2" x1="135.4" y1="47.7" x2="138.1" y2="40.7"/>
			</g>
		</g>
		<path class="st3" d="M157.3,54.5c-0.3-1.7-1.3-3.3-3.5-5c-0.1,0-0.1,0-0.2,0c2.3,1.9,3.6,3.9,3.2,5.7c-1.8,8.6-24.7,9.1-31.2,2.1
			c-7-7.6-23-8.9-25.3-14.7c-0.6-1.4-1-7-0.7-12.7c0-0.4-0.1-0.9-0.1-1.2c-1,5.6-0.3,12.8,0.3,15.1c0.1,1.1,0.3,2.1,0.6,2.8
			c2.4,5.8,18.3,7.2,25.3,14.7c6.5,7,30,6.4,31.8-2.2C157.5,58.2,157.7,55.7,157.3,54.5z"/>
	</g>
</g>
</svg>
