<?xml version="1.0" encoding="utf-8"?>
<!-- Generator: Adobe Illustrator 19.2.1, SVG Export Plug-In . SVG Version: 6.00 Build 0)  -->
<svg version="1.1" id="Layer_1" xmlns="http://www.w3.org/2000/svg" xmlns:xlink="http://www.w3.org/1999/xlink" x="0px" y="0px"
	 viewBox="0 0 178 75" style="enable-background:new 0 0 178 75;" xml:space="preserve">
<style type="text/css">
	.st0{fill:#CCCCCC;}
	.st1{fill:#191B1D;}
	.st2{fill:none;stroke:#FFFFFF;stroke-width:1.9199;stroke-linecap:round;stroke-linejoin:round;stroke-miterlimit:22.9256;}
</style>
<g>
	<path class="st0" d="M83.6,33.8L83.6,33.8c-0.3-2.9-1-5.7-2.2-7.1c-4.3,17.3-21.2,9.6-22,3.9c-1.3-0.7-2.7-1-4.3-0.9
		c-0.1,0.1-0.3,0.2-0.4,0.3c-7.4,5.4-13.8,11.5-16.4,12.6c-8,3.5-14.7,7.6-14.2,11.3c-0.3,1.4-0.1,3.6,0,4.3
		C26,67,50.3,67.7,57,60.4c7.2-7.8,23.8-9.2,26.2-15.2C84.2,42.8,84,38.6,83.6,33.8z"/>
	<path class="st1" d="M81.4,26.7c3.2,5.5,2.8,12,1.8,14.4c-2.4,6-19,7.4-26.2,15.2c-6.7,7.3-31,6.7-32.9-2.2
		c-0.8-3.8,6-7.9,14.2-11.5c2.6-1.1,9.1-7.3,16.4-12.6c0.1-0.1,0.3-0.2,0.4-0.3c1.5-0.1,2.9,0.2,4.3,0.9c3.4,1.8,2.7,4.1,6.6,4.8
		C77.8,37.4,80,30.7,81.4,26.7z"/>
	<g>
		<line class="st2" x1="47.4" y1="45.6" x2="44.8" y2="37.8"/>
		<line class="st2" x1="51.4" y1="41.8" x2="48.8" y2="34"/>
		<line class="st2" x1="55.2" y1="38.4" x2="52.5" y2="31.3"/>
		<line class="st2" x1="39.7" y1="41" x2="50.3" y2="41.9"/>
		<line class="st2" x1="44.3" y1="37.5" x2="54.9" y2="38.4"/>
		<line class="st2" x1="48.2" y1="34.2" x2="58.8" y2="35.2"/>
	</g>
</g>
<g>
	<path class="st0" d="M99.2,34.8L99.2,34.8c0.3-2.9,1-5.7,2.2-7.1c1,17.8,19.9,10,22,3.9c1.3-0.7,2.7-1,4.3-0.9
		c0.1,0.1,0.3,0.2,0.4,0.3c7.4,5.4,13.8,11.5,16.4,12.6c8,3.5,14.7,7.6,14.2,11.3c0.3,1.4,0.1,3.6,0,4.3c-1.8,8.9-26.1,9.5-32.9,2.2
		c-7.2-7.8-23.8-9.2-26.2-15.2C98.6,43.8,98.8,39.6,99.2,34.8z"/>
	<path class="st1" d="M101.4,27.7c-3.2,5.5-2.8,12-1.8,14.4c2.4,6,19,7.4,26.2,15.2c6.7,7.3,31,6.7,32.9-2.2
		c0.8-3.8-6-7.9-14.2-11.5c-2.6-1.1-9.1-7.3-16.4-12.6c-0.1-0.1-0.3-0.2-0.4-0.3c-1.5-0.1-2.9,0.2-4.3,0.9c-3.4,1.8-2.7,4.1-6.6,4.8
		C105.1,38.4,102.8,31.7,101.4,27.7z"/>
	<g>
		<line class="st2" x1="135.4" y1="46.6" x2="138" y2="38.8"/>
		<line class="st2" x1="131.4" y1="42.8" x2="134" y2="35"/>
		<line class="st2" x1="127.6" y1="39.4" x2="130.3" y2="32.3"/>
		<line class="st2" x1="143.1" y1="42" x2="132.5" y2="42.9"/>
		<line class="st2" x1="138.5" y1="38.5" x2="127.9" y2="39.4"/>
		<line class="st2" x1="134.6" y1="35.2" x2="124" y2="36.2"/>
	</g>
</g>
</svg>
