<?xml version="1.0" encoding="utf-8"?>
<!-- Generator: Adobe Illustrator 19.2.1, SVG Export Plug-In . SVG Version: 6.00 Build 0)  -->
<svg version="1.1" id="Layer_1" xmlns="http://www.w3.org/2000/svg" xmlns:xlink="http://www.w3.org/1999/xlink" x="0px" y="0px"
	 viewBox="0 0 178 75" style="enable-background:new 0 0 178 75;" xml:space="preserve">
<style type="text/css">
	.st0{fill:#ED5940;}
	.st1{fill:none;stroke:#CF3F26;stroke-width:1.1999;stroke-miterlimit:22.9256;}
	.st2{fill:none;stroke:#FFFFFF;stroke-width:1.9199;stroke-linecap:round;stroke-linejoin:round;stroke-miterlimit:22.9256;}
	.st3{fill:#E0E0E0;}
</style>
<g>
	<g>
		<path class="st0" d="M78.6,17.1c1.8,5.7,1.4,17.4,0.6,19.4c-2,5-15.7,6.1-21.6,12.6c-5.6,6-25.1,5.6-26.6-1.8
			c-0.6-3.1,4.1-6.6,10.9-9.6c1.3-0.6,13.5-7.4,19.2-14.2c1.3-1.6,0.2-4.4-0.6-5.8c-1.2-2.1,10.1-4.4,10.4-0.9
			c0.1,0.9,0.7,2.3,0.6,3.6C79.1,21.5,78.2,18.7,78.6,17.1z"/>
		<path class="st1" d="M72,20.6c-1.4,4.2-11.2,15.3-15.7,18.7c-10.1,7.7-18,1-14.7-0.9"/>
		<g>
			<line class="st2" x1="57.5" y1="36" x2="54.5" y2="29.6"/>
			<line class="st2" x1="60.3" y1="32.8" x2="57.3" y2="26.4"/>
			<line class="st2" x1="63.1" y1="30.1" x2="60.2" y2="24.2"/>
			<line class="st2" x1="50.6" y1="32.2" x2="59.5" y2="33"/>
			<line class="st2" x1="54" y1="29.3" x2="62.9" y2="30.1"/>
			<line class="st2" x1="56.9" y1="26.6" x2="65.9" y2="26.6"/>
			<line class="st2" x1="53.4" y1="37.9" x2="50.5" y2="32.1"/>
			<line class="st2" x1="47" y1="35" x2="56.8" y2="36.2"/>
			<line class="st2" x1="42.6" y1="37.2" x2="53.7" y2="38.3"/>
			<line class="st2" x1="49.2" y1="41" x2="46.9" y2="35"/>
		</g>
	</g>
	<g>
		<path class="st0" d="M100.1,17.1c-1.8,5.7-1.4,17.4-0.6,19.4c2,5,15.7,6.1,21.6,12.6c5.6,6,25.1,5.6,26.6-1.8
			c0.6-3.1-4.1-6.6-10.9-9.6c-1.4-0.6-14.7-8.1-20-15.2c-0.9-1.2,0.7-5,1-6.1c0.7-2.4-10.3-2.7-11,0.3c-0.2,0.9-0.5,2.5,0.4,3.9
			C99.6,21.5,100.5,18.7,100.1,17.1z"/>
		<path class="st1" d="M106.7,20.6c1.4,4.2,11.2,15.3,15.7,18.7c10.1,7.7,18,1,14.7-0.9"/>
		<g>
			<line class="st2" x1="121.2" y1="36" x2="124.2" y2="29.6"/>
			<line class="st2" x1="118.4" y1="32.8" x2="121.4" y2="26.4"/>
			<line class="st2" x1="115.6" y1="30.1" x2="118.5" y2="24.2"/>
			<line class="st2" x1="128.1" y1="32.2" x2="119.2" y2="33"/>
			<line class="st2" x1="124.7" y1="29.3" x2="115.8" y2="30.1"/>
			<line class="st2" x1="121.8" y1="26.6" x2="112.8" y2="26.6"/>
			<line class="st2" x1="125.3" y1="37.9" x2="128.2" y2="32.1"/>
			<line class="st2" x1="131.7" y1="35" x2="121.9" y2="36.2"/>
			<line class="st2" x1="136.1" y1="37.2" x2="125" y2="38.3"/>
			<line class="st2" x1="129.5" y1="41" x2="131.8" y2="35"/>
		</g>
	</g>
	<path class="st3" d="M79.9,24.6c-0.3,3.5-1.5,12.3-5.2,15.6c-5.1,2.4-13,4.4-17.2,8.9c-5.6,6-25.1,5.6-26.6-1.8
		c-0.3-1.6,0.7-3.2,2.7-4.9h-0.1c-1.9,1.4-2.8,2.9-3,4.3c-0.4,1-0.2,3.2-0.1,3.9C32,58,52,58.5,57.6,52.5c6-6.4,19.6-7.6,21.6-12.6
		c0.3-0.7,0.4-1.5,0.5-2.4C80.2,35.5,80.8,29.4,79.9,24.6z"/>
	<path class="st3" d="M148.2,46.7c-0.3-1.4-1.1-2.8-3-4.3h-0.1c2,1.6,3,3.3,2.7,4.9c-1.5,7.3-21.1,7.8-26.6,1.8
		c-6-6.4-19.6-7.6-21.6-12.6c-0.5-1.2-0.8-6-0.6-10.9c0-0.4-0.1-0.7-0.1-1c-0.8,4.8-0.3,11,0.2,12.9c0.1,0.9,0.2,1.8,0.5,2.4
		c2,5,15.7,6.1,21.6,12.6c5.6,6,25.6,5.5,27.1-1.9C148.4,49.9,148.5,47.7,148.2,46.7z"/>
</g>
</svg>
