<?xml version="1.0" encoding="utf-8"?>
<!-- Generator: Adobe Illustrator 19.2.1, SVG Export Plug-In . SVG Version: 6.00 Build 0)  -->
<svg version="1.1" id="Layer_1" xmlns="http://www.w3.org/2000/svg" xmlns:xlink="http://www.w3.org/1999/xlink" x="0px" y="0px"
	 viewBox="0 0 120 120" style="enable-background:new 0 0 120 120;" xml:space="preserve">
<style type="text/css">
	.st0{fill:none;stroke:#FFFFFF;stroke-width:2;stroke-miterlimit:10;}
</style>
<g>
	<path class="st0" d="M70.7,90.4c0,2-1.6,3.6-3.6,3.6c-0.9,0-1.8-0.4-2.5-1.1L46,74.3H31.4c-2,0-3.6-1.6-3.6-3.6V49.3
		c0-2,1.6-3.6,3.6-3.6H46l18.6-18.6c0.7-0.7,1.6-1.1,2.5-1.1c2,0,3.6,1.6,3.6,3.6V90.4z M83.5,73.1c-0.4,0.2-0.9,0.3-1.4,0.3
		c-2,0-3.6-1.6-3.6-3.6c0-4.2,6.5-3.1,6.5-9.8s-6.5-5.6-6.5-9.8c0-2,1.6-3.6,3.6-3.6c0.4,0,0.9,0.1,1.4,0.3
		c5.2,2.1,8.6,7.5,8.6,13.1S88.7,71,83.5,73.1z"/>
</g>
</svg>
