<?xml version="1.0" encoding="utf-8"?>
<!-- Generator: Adobe Illustrator 19.2.1, SVG Export Plug-In . SVG Version: 6.00 Build 0)  -->
<svg version="1.1" id="Layer_1" xmlns="http://www.w3.org/2000/svg" xmlns:xlink="http://www.w3.org/1999/xlink" x="0px" y="0px"
	 viewBox="0 0 178 123" style="enable-background:new 0 0 178 123;" xml:space="preserve">
<style type="text/css">
	.st0{fill:#6B4B30;}
	.st1{fill:#E6C8C0;}
	.st2{fill:#F5D5CD;}
	.st3{fill:#735133;}
	.st4{fill:#946842;}
</style>
<g>
	<g>
		<g>
			<g>
				<path class="st0" d="M86.9,123.2c0,0,37.6,11,36-15.6c-2.5-41.9-16.2-76.2-36-76.2s-36,34.2-36,76.2
					C50.9,136.4,86.9,123.2,86.9,123.2z"/>
				<path class="st1" d="M123.5,125.2c-0.4-1.1-0.9-2.2-1.7-3.1c-1.4-2.1-3.1-4.5-5-5.5c-4.5-2.4-15.1-5.9-15.1-5.9
					c0-0.1-3.6-0.7-5.2-0.9c-0.1,0-0.1,0.2-0.1-0.2v-29L96,80.2H80.5v29c0,0.2,0.1,0.5-0.3,0.5c-1.8,0.1-7,0.7-7,0.8l0,0
					c-6,0.9-9.1,3.2-13.2,5.8c-3.8,1.7-7,6.2-9.7,11.6L123.5,125.2z"/>
				<path class="st2" d="M88.3,19.9c30,0,32,35.2,25.9,58.7C111.1,90.5,97.4,101,88.3,101c-9.3,0-22.9-11.5-26.7-24.4
					C54.9,53.5,58.9,19.9,88.3,19.9z"/>
				<g>
					
						<ellipse transform="matrix(0.9799 -0.1995 0.1995 0.9799 -11.6001 12.8775)" class="st2" cx="58.1" cy="64" rx="3.6" ry="7.4"/>
					
						<ellipse transform="matrix(0.1995 -0.9799 0.9799 0.1995 31.4207 166.5376)" class="st2" cx="117.6" cy="64" rx="7.4" ry="3.6"/>
				</g>
				<path class="st3" d="M87.7,28.3c-7.3,8.7-16.6,2.5-17.6,12.4c-1,10,0.2,12.3-5.3,16.6c-5.6,4.3-7,18.6-3.7,28.8s3,16.1-1,23
					c-3.9,6.9-7.1,0.6-5.1,7.5s1.2,10.6-10.4-1.6c-11.6-12.1-3.9-13.5,0.7-25.4c4.6-11.8,2.2-10.8,0.3-24S52.9,49.7,56,35.5
					s20.1-24.1,30.7-18.1C97.2,23.4,90.7,24.7,87.7,28.3z"/>
				<path class="st3" d="M83.5,28.2c7.3,8.7,15,4.3,17.2,10.2c2.1,5.9,5.1,11.2,11.9,15.2s2.4,22-0.9,32.2s-4.6,16.4-0.6,23.3
					c1,1.8-0.3,3.5,0.7,5.3c5.9,2.7,5.8,1.7,10.6,8.5c5.6-10.8,7.5-23,3.6-33.1c-4.6-11.8-2.7-16.8-0.3-27.4
					c2.3-10.7-7.3-12.5-10.4-26.7C112.1,21.3,95,11.4,84.5,17.3C74,23.3,80.6,24.6,83.5,28.2z"/>
				<path class="st4" d="M87.1,19.8c1.3,5.7,8.8,7.8,13.5,9.2c4.6,1.5,5.8,5.1,7.2,11.3c1.5,6.5,7.7,9.5,10.8,12.6
					s-1.7,21.9-4.1,30.3c-2.2,7.8,2.1,19.4,4.1,23.8c1.3,2.9,2.2,6.3,2.2,9.4c0.5,0.2,1,0.5,1.5,0.7c1-3.4,0.3-7.5-1.5-11.7
					c-2.7-6.4-5.8-10.6-3.4-22c3.1-14.5,9.1-24.9,2.9-33c-4.9-6.4-7.9-4.1-9.3-10.9c-1.7-7.6-1.5-10.2-8.3-12.5
					C95.9,24.8,89.8,25.2,87.1,19.8z"/>
				<path class="st4" d="M83.3,19.4c-1.3,5.7-8.8,7.8-13.5,9.2c-4.6,1.5-8,5-7.2,11.3s-3.7,14.5-6.9,17.7s-2.2,16.8,0.2,25.2
					c2.2,7.8-2.1,19.4-4.1,23.8c-2.2,4.8-1.2,8.8,1.3,12.8c-4.3-3.8-6.2-7.9-3.5-14.4c2.7-6.4,5.8-10.6,3.4-22
					c-3.1-14.5-5.1-19.8,1-27.9c4.9-6.4,6.1-7.2,5.9-14.8c-0.1-7.6,1.1-11.2,7.8-13.5C74.4,24.5,80.5,24.9,83.3,19.4z"/>
			</g>
		</g>
	</g>
</g>
</svg>
