<?xml version="1.0" encoding="utf-8"?>
<!-- Generator: Adobe Illustrator 19.2.1, SVG Export Plug-In . SVG Version: 6.00 Build 0)  -->
<svg version="1.1" id="Layer_1" xmlns="http://www.w3.org/2000/svg" xmlns:xlink="http://www.w3.org/1999/xlink" x="0px" y="0px"
	 viewBox="0 0 178 123" style="enable-background:new 0 0 178 123;" xml:space="preserve">
<style type="text/css">
	.st0{fill:#E6C8C0;}
	.st1{fill:#F5D5CD;}
	.st2{fill:#735133;}
	.st3{fill:#6B4B30;}
</style>
<g>
	<g>
		<g>
			<g>
				<path class="st0" d="M145.9,157.6c-2-11.1-5-19.8-8.4-26.1c-0.7-2.8-2.5-5.2-5.1-7.4c-2.9-3.2-21.9-10.2-33.2-10.4V81h-20v32.6
					c-10,0.7-20.8,3.3-25.3,5.8s-8.3,4.6-11.9,11s-6.9,15.4-9,27.3L145.9,157.6L145.9,157.6z"/>
				<path class="st0" d="M79.4,80.5h20.1v38.9c0,5.5-4.5,10-10,10l0,0c-5.5,0-10-4.5-10-10L79.4,80.5L79.4,80.5z"/>
				<path class="st1" d="M89.7,17.6c31.6-0.2,34,36.9,27.8,61.1C114.2,91,98.9,101,89.7,101c-9.5,0-24.3-9.4-28.2-22.6
					C54.6,54.6,59.5,17.8,89.7,17.6z"/>
				<g>
					
						<ellipse transform="matrix(0.9799 -0.1995 0.1995 0.9799 -11.8135 12.9595)" class="st1" cx="58.4" cy="65.1" rx="3.7" ry="7.7"/>
					
						<ellipse transform="matrix(0.1995 -0.9799 0.9799 0.1995 32.6945 170.1981)" class="st1" cx="120.5" cy="65.1" rx="7.7" ry="3.7"/>
				</g>
				<g>
					<path class="st2" d="M57.5,58.6c0.2,2.7,2.7,8.4,2.5,2c-0.1-6.4,2.1-19,8.4-26c5.5-6.1,10.9-1.9,19.5-2.1
						c8.8-0.2,14-4.1,20.9,4.3c6,7.3,8.9,17.4,8.7,23.8c-0.1,6.4,2.4,0.7,2.5-2c0.2-3.2,1.5-11.9-3.7-24.3c-3.8-8.9-13.4-19-27.6-19
						c-16.4,0-23.8,10.2-27.6,19.2C56,47,57.3,55.4,57.5,58.6z"/>
					<path class="st2" d="M98.4,24.3"/>
					<path class="st2" d="M98.4,24.9"/>
					<path class="st3" d="M99.8,31.4"/>
				</g>
			</g>
		</g>
	</g>
</g>
</svg>
