<?xml version="1.0" encoding="utf-8"?>
<!-- Generator: Adobe Illustrator 19.2.1, SVG Export Plug-In . SVG Version: 6.00 Build 0)  -->
<svg version="1.1" id="Layer_1" xmlns="http://www.w3.org/2000/svg" xmlns:xlink="http://www.w3.org/1999/xlink" x="0px" y="0px"
	 viewBox="0 0 178 171" style="enable-background:new 0 0 178 171;" xml:space="preserve">
<style type="text/css">
	.st0{fill:#80DAEE;}
	.st1{fill:#53B4CA;}
	.st2{fill:#6ED0E7;}
	.st3{fill:#475059;}
	.st4{fill:#353C42;}
</style>
<g>
	<g>
		<path class="st0" d="M130.8,88.7c6.2-1.8,16.3-5.3,21.5-7.9c-0.8-9.2-5.3-36.1-15-49.2c-1.9-3.3-5.4-6.1-10-8.3
			C106,11.5,57,13,45.7,26.6c-12.8,15.5-14,30-18.6,53.2c6.4,2.3,20,7.5,24.7,8c0-0.1,0.1-0.2,0.1-0.3c0.7,6.3,1.2,12.8,1.4,19.3
			c0,1.5,0,3,0.1,4.3c0.2,14.4-1.7,28.4-2.2,41c12.9,3,24.8,4.7,39.3,4.7c14,0,27.4-1.5,39.8-4.4
			C128.5,138.8,128.3,112.9,130.8,88.7z"/>
		<path class="st1" d="M92.2,22.5C91,27,90.8,74,91.3,102.2c0.1,6.1,0.2,46.4,0.4,50.2c0.1,2,0.1,3.5,0.2,4.2c-0.5,0-1.8,0-2.3,0
			c-0.2-1.1-0.3-2.5-0.4-4.2c-0.2-3.7-0.3-44-0.4-50.2c-0.5-28.3-0.3-75.6,1-80.2L92.2,22.5z"/>
		<path class="st1" d="M99.5,8.1c-0.5,5-4.5,8.7-10.3,10.5l21,10.3l-4.4-12.5L99.5,8.1z"/>
		<path class="st0" d="M99.5,8.1c-0.5,5-4.2,8.1-10.1,9.9l17.3,6.8l-0.9-8.5L99.5,8.1z"/>
		<path class="st1" d="M79.3,8.1c0.6,5,5.3,9,11.1,10.8l-21.8,9.9L73,16.3L79.3,8.1z"/>
		<path class="st2" d="M79.3,8.1c0.6,5,4.3,8.1,10.1,9.9l-17.3,6.8l0.9-8.5L79.3,8.1z"/>
		<g>
			<path class="st3" d="M78.8,16.3c2.4,0.3,4.6,1.6,6.9,2c0.7,0.1,1.2,0.6,1.3,1.2c0.4,2.1,0.3,2.4,0,4.5c-0.1,0.7-0.6,1.1-1.3,1.2
				c-2.3,0.5-4.5,1.6-6.9,1.9c-0.7,0.1-1.4-0.7-1.3-1.5c0.3-2.6,0.4-5.2,0-7.8C77.4,17,78.1,16.2,78.8,16.3z"/>
			<path class="st3" d="M99.9,16.3c-2.4,0.3-4.6,1.6-6.9,2c-0.7,0.1-1.2,0.6-1.3,1.2c-0.4,2.1-0.3,2.4,0,4.5
				c0.1,0.7,0.6,1.1,1.3,1.2c2.3,0.5,4.5,1.6,6.9,1.9c0.7,0.1,1.4-0.7,1.3-1.5c-0.3-2.6-0.4-5.2,0-7.8
				C101.3,17,100.6,16.2,99.9,16.3z"/>
		</g>
		<path class="st4" d="M85.7,18.3C85.1,18.9,83,19,81.8,19s-0.3,0.4,0.7,1c2.5,1.5,1.2,2.8-0.6,3.6c-1.1,0.5-2.2,1-0.1,1.1
			s3.3,1,4.1,0.5C86.8,24.7,88,18.4,85.7,18.3z"/>
		<path class="st4" d="M92.4,18.3c0.6,0.6,2.7,0.7,3.9,0.7s0.3,0.4-0.7,1c-2.5,1.5-1.2,2.8,0.6,3.6c1.1,0.5,2.2,1,0.1,1.1
			s-3.3,1-4.1,0.5C91.3,24.7,90.1,18.4,92.4,18.3z"/>
		<path class="st3" d="M93.1,19.2c0,1.9,0,3.3,0,5.2c0,2.4-7.6,2.5-7.6,0.1c0-1.9,0-3.7,0-5.6C85.5,17.1,93.1,16.8,93.1,19.2z"/>
		<path class="st1" d="M54.6,81.7c-5.1-0.9-18.2-3.4-25.9-8.3c-0.2,0.9-0.4,1.7-0.6,2.4C36,80.5,48.2,83,53.6,84
			C54,83.2,54.3,82.5,54.6,81.7z"/>
		<path class="st1" d="M124.9,82.3c4.8-1.1,18.6-4.4,26.3-10.1c0.2,0.9,0.3,1.8,0.4,2.6c-8.1,5.5-21.2,8.7-26,9.8
			C125.4,83.9,125.2,83.1,124.9,82.3z"/>
	</g>
</g>
</svg>
