<?xml version="1.0" encoding="utf-8"?>
<!-- Generator: Adobe Illustrator 19.2.1, SVG Export Plug-In . SVG Version: 6.00 Build 0)  -->
<svg version="1.1" id="Layer_1" xmlns="http://www.w3.org/2000/svg" xmlns:xlink="http://www.w3.org/1999/xlink" x="0px" y="0px"
	 viewBox="0 0 178 155" style="enable-background:new 0 0 178 155;" xml:space="preserve">
<style type="text/css">
	.st0{fill:#ED5940;}
</style>
<g>
	<path class="st0" d="M121.1,88.1c0,4.1,0.2,8.6,0.4,12.5c3.7,0.2,10.7,0,16.1-0.7c-0.9-7.9-2.5-17.4-3.2-20c0-0.1,0-0.1-0.1-0.2
		c-0.7-7.8-2-16.3-3-22.4c-1.2-7.8-3.2-19.7-7.1-27.5c-0.4-1.1-1-2.1-1.8-3c-1.4-2.1-3.1-3.6-5-4.4c-4.2-2.7-9.8-4.8-16-6
		c-1.1,5.9-6.4,10.3-12.5,10.3c-6.4,0-11.7-4.8-12.6-10.9c-6,0.9-11.5,2.6-15.6,5.2C51.6,25,45.4,45.8,43,56.7
		c-2.4,10.7-7.2,29.2-5.9,37.3c-0.3,4,0.1,8.4,0.7,12.3c5.6,0.4,12.4,0.6,15.8,0.1c0.6-6.4-0.3-14.7-3.3-19.6
		c4.4-7.7,8.7-17.6,11.3-24c0.1-0.2,0.2-0.4,0.2-0.6c3.7,12.9,5.6,25,2,34.4c-5.1,13.2-9.8,22.2-10.4,31.3
		c22.5,11.5,51.5,12.2,71.1-3.2c-1.3-8.1-5.6-16.4-10-28.1c-3-7.8-3.2-20.1-1-31C115.8,72.3,117.9,81.1,121.1,88.1z"/>
</g>
</svg>
