<?xml version="1.0" encoding="utf-8"?>
<!-- Generator: Adobe Illustrator 19.2.1, SVG Export Plug-In . SVG Version: 6.00 Build 0)  -->
<svg version="1.1" id="Layer_1" xmlns="http://www.w3.org/2000/svg" xmlns:xlink="http://www.w3.org/1999/xlink" x="0px" y="0px"
	 viewBox="0 0 178 123" style="enable-background:new 0 0 178 123;" xml:space="preserve">
<style type="text/css">
	.st0{fill-rule:evenodd;clip-rule:evenodd;fill:#4E4E4E;}
	.st1{fill-rule:evenodd;clip-rule:evenodd;fill:#D09A8D;}
</style>
<path class="st0" d="M81.8,65.2c1.2,0,2.1-2.4,2.1-5.4c0-3-1-5.4-2.1-5.4c-1.2,0-2.1,2.4-2.1,5.4C79.6,62.8,80.6,65.2,81.8,65.2z"/>
<path class="st0" d="M100.2,65.7c1.2,0,2.1-2.4,2.1-5.4c0-3-1-5.4-2.1-5.4C99,55,98,57.4,98,60.3C98,63.3,99,65.7,100.2,65.7z"/>
<path class="st1" d="M87.7,71c5.3,1.1,7.5-2.2,7.6-4.9C96.6,71.1,92.9,73.8,87.7,71z"/>
<ellipse class="st1" cx="93.9" cy="85.3" rx="3.1" ry="4.2"/>
</svg>
