<?xml version="1.0" encoding="utf-8"?>
<!-- Generator: Adobe Illustrator 19.2.1, SVG Export Plug-In . SVG Version: 6.00 Build 0)  -->
<svg version="1.1" id="Layer_1" xmlns="http://www.w3.org/2000/svg" xmlns:xlink="http://www.w3.org/1999/xlink" x="0px" y="0px"
	 viewBox="0 0 178 123" style="enable-background:new 0 0 178 123;" xml:space="preserve">
<style type="text/css">
	.st0{fill:#4D4D4D;}
	.st1{fill:#CF998C;}
</style>
<g>
	<g>
		<g>
			<g>
				<path class="st0" d="M77.2,66.9c1.2,0,2.3-2.5,2.3-5.6s-1-5.6-2.3-5.6c-1.2,0-2.3,2.5-2.3,5.6S75.9,66.9,77.2,66.9z"/>
				<path class="st0" d="M100.7,66.9c1.2,0,2.3-2.5,2.3-5.6s-1-5.6-2.3-5.6c-1.2,0-2.3,2.5-2.3,5.6S99.4,66.9,100.7,66.9z"/>
				<path class="st1" d="M102.9,80.9c-7.5,1.8-18.9,1.9-26.8,0.2C82.1,85.1,96.2,85.2,102.9,80.9z"/>
				<path class="st1" d="M86.8,75.6c5.6,1.2,7.9-2.3,8-5.1C96.2,75.8,92.3,78.6,86.8,75.6z"/>
				<path class="st1" d="M96.2,86.6c-3.8,0.9-9.4,0.9-13.4,0.1C86,89.9,93.1,90,96.2,86.6z"/>
			</g>
		</g>
	</g>
</g>
</svg>
