<?xml version="1.0" encoding="utf-8"?>
<!-- Generator: Adobe Illustrator 19.2.1, SVG Export Plug-In . SVG Version: 6.00 Build 0)  -->
<svg version="1.1" id="Layer_1" xmlns="http://www.w3.org/2000/svg" xmlns:xlink="http://www.w3.org/1999/xlink" x="0px" y="0px"
	 viewBox="0 0 178 155" style="enable-background:new 0 0 178 155;" xml:space="preserve">
<style type="text/css">
	.st0{fill:#D9D9D9;}
	.st1{fill:#475059;}
</style>
<g>
	<g>
		<path class="st0" d="M115.1,71c7-1.7,13.3-4.3,18.3-9.3c-1.2-7.8-5.3-24.5-9.3-32.3c-0.4-1.1-1-2.1-1.8-3c-1.4-2.1-3.1-3.6-5-4.4
			c-4.2-2.7-9.9-4.4-16.1-5.6c-1.1,5.9-6.3,9.9-12.5,9.9c-6.4,0-11.8-4.5-12.7-10.6c-6,0.9-11.3,2.3-15.5,4.9
			c-14,7.2-17.1,29.6-19.5,40.5c5.3,3.3,11.9,5.7,19.6,6.4c0.1-0.2,0.9-5.4,1-5.6c3.7,12.9,5.6,25,2,34.4
			C58.5,109.5,53.6,119,53,128c22.5,11.5,51.5,12.3,71-3c-1.3-8.1-5.3-17.1-9.8-28.7c-3-7.8-3.2-20.1-1-31L115.1,71z"/>
		<g>
			
				<ellipse transform="matrix(0.9165 -0.4001 0.4001 0.9165 -12.5922 52.4481)" class="st1" cx="119.3" cy="56.4" rx="1.6" ry="1.2"/>
			<path class="st1" d="M120.1,54.3c0.3,0.2,0.4,0.4,0.4,0.7s-0.2,0.5-0.4,0.7c-0.3-0.2-0.4-0.4-0.4-0.7
				C119.7,54.8,119.9,54.5,120.1,54.3z"/>
			<path class="st1" d="M117.2,55.6c-0.1,0.3,0,0.6,0.2,0.8s0.5,0.2,0.8,0.1c0.1-0.3,0-0.6-0.2-0.8
				C117.8,55.6,117.5,55.6,117.2,55.6z"/>
			<path class="st1" d="M122.2,63c-2.4,1-1.9-2.8-2.2-3.9c-0.3-0.9-0.3-1.2-0.8-1.8c-0.1-0.1,0.9-0.6,0.8-0.7c0.1,1,0.2,1.2,0.8,2.2
				C121.4,59.7,124.5,61.9,122.2,63z"/>
			<path class="st1" d="M121.8,62.5c-1,0.4-1.8,0.4-1.7,0.7c0.1,0.3,1,0.2,2-0.2s1.7-1,1.5-1.3C123.6,61.4,122.8,62.1,121.8,62.5z"
				/>
			<path class="st1" d="M121.8,62.5c0.1,0,0.1,0,0.2,0c0,0.1,0,0.1,0,0.2c-0.5,0.3-1,0.4-1.4,0.4c-0.5,0-0.9-0.2-1.2-0.6
				c-0.6-0.7-0.4-1.4-0.2-2c0.2-0.5,0.3-1-0.1-1.3c-0.3-0.3-0.6-0.3-0.8-0.2c-0.1,0-0.2,0.1-0.3,0.2c-0.1,0.1-0.1,0.2-0.1,0.3l0,0
				c0,0.3,0,0.5,0.3,0.7c0.1,0.1,0.3,0.1,0.4,0c0.1,0,0.1-0.1,0.1-0.1l0.1-0.1c0-0.1,0-0.3-0.1-0.4c-0.1-0.1-0.1-0.1,0-0.2
				c0.1-0.1,0.1-0.1,0.2,0c0.2,0.2,0.3,0.4,0.2,0.6c0,0.1-0.1,0.2-0.1,0.3c-0.1,0.1-0.1,0.1-0.2,0.2c-0.2,0.1-0.4,0.1-0.7-0.1
				c-0.4-0.3-0.5-0.7-0.4-1l0,0c0-0.2,0.1-0.3,0.2-0.4c0.1-0.1,0.2-0.2,0.4-0.3c0.3-0.1,0.7-0.1,1.1,0.3c0.5,0.5,0.3,1,0.2,1.6
				c-0.2,0.6-0.4,1.2,0.2,1.8c0.2,0.3,0.6,0.4,1,0.5C121,62.9,121.4,62.8,121.8,62.5z"/>
		</g>
		<g>
			<ellipse transform="matrix(0.1814 -0.9834 0.9834 0.1814 22.8266 98.9399)" class="st1" cx="70.8" cy="35.8" rx="2" ry="2.7"/>
			<path class="st1" d="M73.9,33.8c0.2,0.5,0.2,1-0.1,1.4c-0.3,0.4-0.7,0.6-1.2,0.5c-0.2-0.5-0.2-1,0.1-1.4
				C72.9,33.9,73.4,33.8,73.9,33.8z"/>
			<path class="st1" d="M68.6,32.8c-0.4,0.4-0.6,0.9-0.4,1.4c0.1,0.4,0.5,0.8,1,0.9c0.4-0.4,0.6-0.9,0.4-1.4
				C69.4,33.3,69.1,33,68.6,32.8z"/>
			<path class="st1" d="M68.6,47.7c-4.3-0.8,0-5.7,0.6-7.5c0.5-1.6,0.7-2,0.6-3.3c0-0.2,1.8,0,1.8-0.2c-0.8,1.5-0.8,1.9-0.9,3.8
				C70.6,42.4,72.9,48.5,68.6,47.7z"/>
			<path class="st1" d="M68.6,46.8c-1.8-0.3-2.9-1.1-3-0.6c-0.1,0.6,1.3,1.3,3,1.6c1.8,0.3,3.3,0.1,3.4-0.4
				C72.1,46.8,70.3,47.1,68.6,46.8z"/>
			<path class="st1" d="M68.5,46.8c0.1,0,0.2,0.1,0.2,0.2c0,0.1-0.1,0.2-0.2,0.2c-1,0-1.8-0.3-2.3-0.8c-0.7-0.5-1.1-1.2-1.2-1.9
				c-0.2-1.6,0.8-2.3,1.6-3c0.7-0.6,1.3-1.1,1.1-2c-0.2-0.7-0.5-1-0.9-1.1c-0.2,0-0.4,0-0.6,0c-0.2,0.1-0.4,0.2-0.5,0.3l0,0
				c-0.3,0.3-0.5,0.8-0.2,1.3c0.1,0.3,0.3,0.4,0.5,0.5c0.1,0,0.2,0,0.3,0c0.1,0,0.2-0.1,0.2-0.1c0.1-0.1,0.2-0.4,0.1-0.7
				c0-0.1,0-0.2,0.2-0.3c0.1,0,0.2,0,0.3,0.2c0.1,0.5,0,0.9-0.3,1.1c-0.1,0.1-0.3,0.2-0.4,0.2c-0.2,0-0.3,0.1-0.5,0
				c-0.4-0.1-0.7-0.3-0.9-0.7c-0.3-0.7-0.1-1.4,0.3-1.8l0,0c0.2-0.2,0.4-0.3,0.7-0.4c0.3-0.1,0.5-0.1,0.8,0c0.6,0.1,1.1,0.6,1.3,1.5
				c0.3,1.2-0.5,1.8-1.3,2.4c-0.8,0.6-1.6,1.3-1.5,2.6c0.1,0.6,0.4,1.2,1,1.6C67,46.5,67.7,46.8,68.5,46.8z"/>
		</g>
		<g>
			<ellipse class="st1" cx="88.7" cy="49.7" rx="1.6" ry="1.2"/>
			<path class="st1" d="M87.1,48.2c-0.2,0.3-0.2,0.6-0.1,0.8s0.4,0.4,0.7,0.4c0.2-0.3,0.2-0.6,0.1-0.8S87.4,48.2,87.1,48.2z"/>
			<path class="st1" d="M90.3,48.2c0.2,0.3,0.2,0.6,0.1,0.8s-0.4,0.4-0.7,0.4c-0.2-0.3-0.2-0.6-0.1-0.8C89.8,48.4,90,48.2,90.3,48.2
				z"/>
			<path class="st1" d="M88.7,56.9c2.6,0,0.6-3.3,0.5-4.4c-0.1-1-0.2-1.3,0-2c0-0.1-1.1-0.2-1-0.3c0.3,1,0.3,1.2,0.1,2.3
				C88.1,53.6,86.1,56.9,88.7,56.9z"/>
			<path class="st1" d="M88.8,56.3c1.1,0,1.8-0.4,1.8,0c0,0.3-0.9,0.6-2,0.6s-2-0.3-2-0.6C86.8,56,87.7,56.3,88.8,56.3z"/>
			<path class="st1" d="M88.8,56.4c-0.1,0-0.1,0-0.2,0.1c0,0.1,0,0.1,0.1,0.2c0.6,0.1,1.1,0,1.4-0.2c0.5-0.2,0.8-0.6,0.9-1
				c0.3-0.9-0.2-1.4-0.6-1.9c-0.3-0.4-0.7-0.8-0.4-1.3c0.2-0.4,0.4-0.5,0.7-0.5c0.1,0,0.2,0,0.3,0.1c0.1,0.1,0.2,0.1,0.3,0.2l0,0
				c0.1,0.2,0.2,0.5,0,0.8c-0.1,0.1-0.2,0.2-0.4,0.2c-0.1,0-0.1,0-0.2,0L90.6,53c-0.1-0.1-0.1-0.2,0-0.4c0-0.1,0-0.1-0.1-0.2
				c-0.1,0-0.1,0-0.2,0.1c-0.1,0.3-0.1,0.5,0,0.7c0.1,0.1,0.1,0.1,0.2,0.2c0.1,0,0.2,0.1,0.3,0.1c0.2,0,0.4-0.1,0.6-0.3
				c0.2-0.4,0.2-0.8,0-1.1l0,0c-0.1-0.1-0.2-0.2-0.4-0.3c-0.1-0.1-0.3-0.1-0.5-0.1c-0.3,0-0.7,0.2-0.9,0.7c-0.3,0.7,0.1,1.1,0.5,1.5
				s0.8,0.9,0.6,1.7c-0.1,0.3-0.4,0.6-0.7,0.8C89.8,56.4,89.3,56.4,88.8,56.4z"/>
		</g>
		<g>
			<ellipse transform="matrix(0.875 -0.4841 0.4841 0.875 1.191 56.6076)" class="st1" cx="110.2" cy="26" rx="1.6" ry="1.2"/>
			<path class="st1" d="M108.1,25.4c0,0.3,0.1,0.6,0.3,0.8c0.2,0.2,0.5,0.2,0.8,0.1c0-0.3-0.1-0.6-0.3-0.8
				C108.7,25.3,108.4,25.3,108.1,25.4z"/>
			<path class="st1" d="M110.9,23.9c0.3,0.2,0.5,0.4,0.5,0.7c0,0.3-0.1,0.5-0.4,0.7c-0.3-0.2-0.5-0.4-0.5-0.7S110.7,24.1,110.9,23.9
				z"/>
			<path class="st1" d="M113.7,32.3c2.3-1.3-1.1-3.2-1.8-4.1c-0.6-0.8-0.8-1-0.9-1.8c0-0.1-1,0.3-1.1,0.2c0.7,0.7,0.8,0.9,1.2,2
				C111.6,29.7,111.4,33.5,113.7,32.3z"/>
			<path class="st1" d="M113.5,31.7c0.9-0.5,1.4-1.2,1.6-0.9c0.2,0.3-0.5,1-1.4,1.5c-0.9,0.5-1.8,0.7-2,0.4
				C111.6,32.4,112.6,32.3,113.5,31.7z"/>
			<path class="st1" d="M113.6,31.7c-0.1,0-0.1,0.1-0.1,0.2c0,0.1,0.1,0.1,0.2,0.1c0.5-0.2,0.9-0.5,1.2-0.9c0.3-0.4,0.4-0.9,0.3-1.3
				c-0.2-0.9-0.9-1.2-1.5-1.4c-0.5-0.2-0.9-0.3-1-0.9c0-0.4,0.1-0.7,0.3-0.8c0.1-0.1,0.2-0.1,0.3-0.1c0.1,0,0.2,0,0.3,0.1l0,0
				c0.2,0.1,0.4,0.4,0.4,0.7c0,0.2-0.1,0.3-0.2,0.4c-0.1,0-0.1,0-0.2,0s-0.1,0-0.2,0c-0.1-0.1-0.2-0.2-0.2-0.3
				c0-0.1-0.1-0.1-0.1-0.1c-0.1,0-0.1,0.1-0.1,0.1c0,0.3,0.2,0.5,0.4,0.6c0.1,0,0.2,0.1,0.3,0.1c0.1,0,0.2,0,0.3-0.1
				c0.2-0.1,0.3-0.3,0.4-0.6c0-0.5-0.2-0.8-0.5-1l0,0c-0.1-0.1-0.3-0.1-0.5-0.1s-0.3,0-0.5,0.1c-0.3,0.2-0.5,0.5-0.4,1.1
				c0.1,0.7,0.6,0.9,1.2,1.1s1.1,0.4,1.3,1.2c0.1,0.3,0,0.7-0.3,1.1C114.4,31.3,114,31.6,113.6,31.7z"/>
		</g>
		<g>
			<ellipse class="st1" cx="71.4" cy="59.8" rx="1.6" ry="1.2"/>
			<path class="st1" d="M73,58.3c0.2,0.3,0.2,0.6,0.1,0.8s-0.4,0.4-0.7,0.4c-0.2-0.3-0.2-0.6-0.1-0.8C72.5,58.5,72.7,58.3,73,58.3z"
				/>
			<path class="st1" d="M69.8,58.3c-0.2,0.3-0.2,0.6-0.1,0.8s0.4,0.4,0.7,0.4c0.2-0.3,0.2-0.6,0.1-0.8
				C70.3,58.5,70.1,58.3,69.8,58.3z"/>
			<path class="st1" d="M71.4,67c-2.6,0-0.6-3.3-0.5-4.4c0.1-1,0.2-1.3,0-2c0-0.1,1.1-0.2,1-0.3c-0.3,1-0.3,1.2-0.1,2.3
				C72,63.6,74,67,71.4,67z"/>
			<path class="st1" d="M71.3,66.4c-1.1,0-1.8-0.4-1.8,0c0,0.3,0.9,0.6,2,0.6s2-0.3,2-0.6C73.4,66.1,72.4,66.4,71.3,66.4z"/>
			<path class="st1" d="M71.3,66.4c0.1,0,0.1,0,0.2,0.1c0,0.1,0,0.1-0.1,0.2c-0.6,0.1-1.1,0-1.4-0.2c-0.5-0.2-0.8-0.6-0.9-1
				c-0.3-0.9,0.2-1.4,0.6-1.9c0.3-0.4,0.7-0.8,0.4-1.3c-0.2-0.4-0.4-0.5-0.7-0.5c-0.1,0-0.2,0-0.3,0.1C69,62,68.9,62,68.8,62.1l0,0
				c-0.1,0.2-0.2,0.5,0,0.8c0.1,0.1,0.2,0.2,0.4,0.2c0.1,0,0.1,0,0.2,0l0.1-0.1c0.1-0.1,0.1-0.2,0-0.4c0-0.1,0-0.1,0.1-0.2
				c0.1,0,0.1,0,0.2,0.1c0.1,0.3,0.1,0.5,0,0.7c-0.1,0.1-0.1,0.1-0.2,0.2c-0.1,0-0.2,0.1-0.3,0.1c-0.2,0-0.4-0.1-0.6-0.3
				c-0.2-0.4-0.2-0.8,0-1.1l0,0c0.1-0.1,0.2-0.2,0.4-0.3c0.1-0.1,0.3-0.1,0.5-0.1c0.3,0,0.7,0.2,0.9,0.7c0.3,0.7-0.1,1.1-0.5,1.5
				s-0.8,0.9-0.6,1.7c0.1,0.3,0.4,0.6,0.7,0.8C70.3,66.4,70.8,66.5,71.3,66.4z"/>
		</g>
		<g>
			<ellipse transform="matrix(0.2827 -0.9592 0.9592 0.2827 9.4048 76.0126)" class="st1" cx="55.5" cy="31.7" rx="1.2" ry="1.6"/>
			<path class="st1" d="M57.5,30.7c0.1,0.3,0.1,0.6-0.1,0.8c-0.2,0.2-0.5,0.3-0.8,0.2c-0.1-0.3-0.1-0.6,0.1-0.8
				C56.9,30.8,57.2,30.7,57.5,30.7z"/>
			<path class="st1" d="M54.4,29.8c-0.2,0.2-0.4,0.5-0.3,0.8c0,0.3,0.2,0.5,0.5,0.6c0.2-0.2,0.4-0.5,0.3-0.8
				C54.9,30.2,54.7,29.9,54.4,29.8z"/>
			<path class="st1" d="M53.5,38.6c-2.5-0.7,0.4-3.4,0.8-4.4c0.4-0.9,0.5-1.2,0.5-1.9c0-0.1,1.1,0.1,1.1,0c-0.6,0.9-0.6,1.1-0.8,2.2
				C55,35.6,56,39.4,53.5,38.6z"/>
			<path class="st1" d="M53.5,38c-1-0.3-1.7-0.9-1.7-0.5c-0.1,0.3,0.7,0.8,1.7,1.1s1.9,0.3,2,0S54.6,38.4,53.5,38z"/>
			<path class="st1" d="M53.5,38.1c0.1,0,0.1,0.1,0.1,0.2c0,0.1-0.1,0.1-0.2,0.1c-0.6-0.1-1-0.3-1.3-0.6c-0.4-0.4-0.6-0.8-0.6-1.2
				c0-0.9,0.6-1.3,1.2-1.7c0.4-0.3,0.8-0.5,0.8-1.1c0-0.4-0.2-0.6-0.5-0.7c-0.1,0-0.2,0-0.3,0s-0.2,0.1-0.3,0.1l0,0
				c-0.2,0.2-0.3,0.4-0.2,0.8c0,0.2,0.2,0.3,0.3,0.3s0.1,0,0.2,0c0.1,0,0.1,0,0.2-0.1c0.1-0.1,0.2-0.2,0.1-0.4c0-0.1,0-0.1,0.1-0.1
				s0.1,0,0.1,0.1c0,0.3-0.1,0.5-0.2,0.6c-0.1,0.1-0.2,0.1-0.3,0.1s-0.2,0-0.3,0c-0.2-0.1-0.4-0.2-0.5-0.5c-0.1-0.5,0-0.8,0.3-1l0,0
				c0.1-0.1,0.3-0.2,0.4-0.2c0.2,0,0.3,0,0.5,0c0.3,0.1,0.6,0.4,0.7,0.9c0.1,0.7-0.4,1-0.9,1.3s-1,0.7-1,1.5c0,0.3,0.2,0.7,0.5,1
				C52.6,37.8,53,38,53.5,38.1z"/>
		</g>
		<g>
			<ellipse class="st1" cx="84.8" cy="73.7" rx="2.7" ry="2"/>
			<path class="st1" d="M82.1,71.2c-0.3,0.5-0.4,1-0.2,1.4c0.2,0.4,0.6,0.7,1.1,0.8c0.3-0.5,0.4-1,0.2-1.4
				C83,71.5,82.6,71.3,82.1,71.2z"/>
			<path class="st1" d="M87.5,71.2c0.3,0.5,0.4,1,0.2,1.4c-0.2,0.4-0.6,0.7-1.1,0.8c-0.3-0.5-0.4-1-0.2-1.4
				C86.6,71.5,87,71.3,87.5,71.2z"/>
			<path class="st1" d="M84.8,85.9c4.4,0,1-5.6,0.8-7.5c-0.2-1.6-0.3-2.1,0-3.4c0-0.2-1.8-0.3-1.7-0.5c0.5,1.6,0.4,2,0.2,3.9
				C83.8,80.2,80.4,85.9,84.8,85.9z"/>
			<path class="st1" d="M85,84.9c1.8,0,3.1-0.6,3.1,0s-1.5,1-3.3,1s-3.3-0.5-3.3-1C81.5,84.3,83.2,84.9,85,84.9z"/>
			<path class="st1" d="M85,85c-0.1,0-0.2,0.1-0.3,0.2c0,0.1,0.1,0.2,0.2,0.3c1,0.1,1.8,0,2.4-0.3c0.8-0.4,1.3-1,1.5-1.7
				c0.5-1.5-0.3-2.4-1.1-3.3c-0.6-0.7-1.1-1.3-0.8-2.1c0.3-0.6,0.7-0.9,1.1-0.9c0.2,0,0.4,0,0.6,0.1s0.3,0.2,0.4,0.4l0,0
				c0.2,0.4,0.3,0.8,0,1.3c-0.2,0.2-0.4,0.4-0.6,0.3c-0.1,0-0.2,0-0.3-0.1c-0.1,0-0.2-0.1-0.2-0.2c-0.1-0.2-0.2-0.4,0-0.7
				c0-0.1,0-0.2-0.1-0.3c-0.1,0-0.2,0-0.3,0.1c-0.2,0.5-0.1,0.9,0.1,1.1c0.1,0.1,0.2,0.2,0.4,0.3c0.1,0.1,0.3,0.1,0.5,0.1
				c0.4,0,0.7-0.2,1-0.6c0.4-0.7,0.3-1.4,0-1.8l0,0c-0.2-0.2-0.4-0.4-0.6-0.5s-0.5-0.2-0.8-0.2c-0.6,0-1.2,0.4-1.5,1.2
				c-0.5,1.1,0.2,1.8,0.8,2.6c0.6,0.7,1.4,1.6,1,2.9c-0.2,0.5-0.6,1.1-1.3,1.4C86.6,84.9,85.9,85.1,85,85z"/>
		</g>
		<g>
			<ellipse class="st1" cx="108.5" cy="92.6" rx="2.7" ry="2"/>
			<path class="st1" d="M111.2,90.1c0.3,0.5,0.4,1,0.2,1.4c-0.2,0.4-0.6,0.7-1.1,0.8c-0.3-0.5-0.4-1-0.2-1.4
				C110.3,90.4,110.7,90.2,111.2,90.1z"/>
			<path class="st1" d="M105.8,90.1c-0.3,0.5-0.4,1-0.2,1.4c0.2,0.4,0.6,0.7,1.1,0.8c0.3-0.5,0.4-1,0.2-1.4
				C106.7,90.4,106.3,90.2,105.8,90.1z"/>
			<path class="st1" d="M108.5,104.8c-4.4,0-1-5.6-0.8-7.5c0.2-1.6,0.3-2.1,0-3.4c0-0.2,1.8-0.3,1.7-0.5c-0.5,1.6-0.4,2-0.2,3.9
				C109.6,99.2,112.9,104.8,108.5,104.8z"/>
			<path class="st1" d="M108.3,103.8c-1.8,0-3.1-0.6-3.1,0s1.5,1,3.3,1s3.3-0.5,3.3-1C111.8,103.2,110.1,103.8,108.3,103.8z"/>
			<path class="st1" d="M108.3,103.9c0.1,0,0.2,0.1,0.3,0.2c0,0.1-0.1,0.2-0.2,0.3c-1,0.1-1.8,0-2.4-0.3c-0.8-0.4-1.3-1-1.5-1.7
				c-0.5-1.5,0.3-2.4,1.1-3.3c0.6-0.7,1.1-1.3,0.8-2.1c-0.3-0.6-0.7-0.9-1.1-0.9c-0.2,0-0.4,0-0.6,0.1s-0.3,0.2-0.4,0.4l0,0
				c-0.2,0.4-0.3,0.8,0,1.3c0.2,0.2,0.4,0.4,0.6,0.3c0.1,0,0.2,0,0.3-0.1c0.1,0,0.2-0.1,0.2-0.2c0.1-0.2,0.1-0.4,0-0.7
				c0-0.1,0-0.2,0.1-0.3c0.1,0,0.2,0,0.3,0.1c0.2,0.5,0.1,0.9-0.1,1.1c-0.1,0.1-0.2,0.2-0.4,0.3c-0.1,0.1-0.3,0.1-0.5,0.1
				c-0.4,0-0.7-0.2-1-0.6c-0.4-0.7-0.3-1.4,0-1.8l0,0c0.2-0.2,0.4-0.4,0.6-0.5s0.5-0.2,0.8-0.2c0.6,0,1.2,0.4,1.5,1.2
				c0.5,1.1-0.2,1.8-0.8,2.6c-0.6,0.7-1.4,1.6-1,2.9c0.2,0.5,0.6,1.1,1.3,1.4C106.7,103.9,107.5,104,108.3,103.9z"/>
		</g>
		<g>
			<ellipse class="st1" cx="95.8" cy="33" rx="1.6" ry="1.2"/>
			<path class="st1" d="M97.4,31.6c0.2,0.3,0.2,0.6,0.1,0.8s-0.4,0.4-0.7,0.4c-0.2-0.3-0.2-0.6-0.1-0.8
				C96.8,31.8,97.1,31.6,97.4,31.6z"/>
			<path class="st1" d="M94.2,31.6c-0.2,0.3-0.2,0.6-0.1,0.8s0.4,0.4,0.7,0.4c0.2-0.3,0.2-0.6,0.1-0.8
				C94.7,31.8,94.5,31.6,94.2,31.6z"/>
			<path class="st1" d="M95.8,40.3c-2.6,0-0.6-3.3-0.5-4.4c0.1-1,0.2-1.3,0-2c0-0.1,1.1-0.2,1-0.3c-0.3,1-0.3,1.2-0.1,2.3
				C96.4,36.9,98.4,40.3,95.8,40.3z"/>
			<path class="st1" d="M95.6,39.7c-1.1,0-1.8-0.4-1.8,0c0,0.3,0.9,0.6,2,0.6s2-0.3,2-0.6C97.7,39.4,96.7,39.7,95.6,39.7z"/>
			<path class="st1" d="M95.6,39.7c0.1,0,0.1,0,0.2,0.1c0,0.1,0,0.1-0.1,0.2c-0.6,0.1-1.1,0-1.4-0.2c-0.5-0.2-0.8-0.6-0.9-1
				c-0.3-0.9,0.2-1.4,0.6-1.9c0.3-0.4,0.7-0.8,0.4-1.3C94.3,35.2,94,35,93.8,35c-0.1,0-0.2,0-0.3,0.1c-0.1,0.1-0.2,0.1-0.3,0.2l0,0
				c-0.1,0.2-0.2,0.5,0,0.8c0.1,0.1,0.2,0.2,0.4,0.2c0.1,0,0.1,0,0.2,0l0.1-0.1c0.1-0.1,0.1-0.2,0-0.4c0-0.1,0-0.1,0.1-0.2
				c0.1,0,0.1,0,0.2,0.1c0.1,0.3,0.1,0.5,0,0.7c-0.1,0.1-0.1,0.1-0.2,0.2c-0.1,0-0.2,0.1-0.3,0.1c-0.2,0-0.4-0.1-0.6-0.3
				c-0.2-0.4-0.2-0.8,0-1.1l0,0c0.1-0.1,0.2-0.2,0.4-0.3c0.1-0.1,0.3-0.1,0.5-0.1c0.3,0,0.7,0.2,0.9,0.7c0.3,0.7-0.1,1.1-0.5,1.5
				s-0.8,0.9-0.6,1.7c0.1,0.3,0.4,0.6,0.7,0.8C94.7,39.7,95.1,39.8,95.6,39.7z"/>
		</g>
		<g>
			<ellipse class="st1" cx="70.1" cy="92.2" rx="1.6" ry="1.2"/>
			<path class="st1" d="M68.5,90.7c-0.2,0.3-0.2,0.6-0.1,0.8c0.1,0.2,0.4,0.4,0.7,0.4c0.2-0.3,0.2-0.6,0.1-0.8
				C69.1,90.9,68.8,90.7,68.5,90.7z"/>
			<path class="st1" d="M71.7,90.7c0.2,0.3,0.2,0.6,0.1,0.8c-0.1,0.2-0.4,0.4-0.7,0.4c-0.2-0.3-0.2-0.6-0.1-0.8
				C71.2,90.9,71.4,90.7,71.7,90.7z"/>
			<path class="st1" d="M70.1,99.4c2.6,0,0.6-3.3,0.5-4.4c-0.1-1-0.2-1.3,0-2c0-0.1-1.1-0.2-1-0.3c0.3,1,0.3,1.2,0.1,2.3
				C69.5,96.1,67.5,99.4,70.1,99.4z"/>
			<path class="st1" d="M70.2,98.8c1.1,0,1.8-0.4,1.8,0c0,0.3-0.9,0.6-2,0.6s-2-0.3-2-0.6C68.2,98.5,69.2,98.8,70.2,98.8z"/>
			<path class="st1" d="M70.2,98.9c-0.1,0-0.1,0-0.2,0.1c0,0.1,0,0.1,0.1,0.2c0.6,0.1,1.1,0,1.4-0.2c0.5-0.2,0.8-0.6,0.9-1
				c0.3-0.9-0.2-1.4-0.6-1.9c-0.3-0.4-0.7-0.8-0.4-1.3c0.2-0.4,0.4-0.5,0.7-0.5c0.1,0,0.2,0,0.3,0.1c0.1,0.1,0.2,0.1,0.3,0.2l0,0
				c0.1,0.2,0.2,0.5,0,0.8c-0.1,0.1-0.2,0.2-0.4,0.2c-0.1,0-0.1,0-0.2,0L72,95.5c-0.1-0.1-0.1-0.2,0-0.4c0-0.1,0-0.1-0.1-0.2
				c-0.1,0-0.1,0-0.2,0.1c-0.1,0.3-0.1,0.5,0,0.7c0.1,0.1,0.1,0.1,0.2,0.2c0.1,0,0.2,0.1,0.3,0.1c0.2,0,0.4-0.1,0.6-0.3
				c0.2-0.4,0.2-0.8,0-1.1l0,0c-0.1-0.1-0.2-0.2-0.4-0.3c-0.1-0.1-0.3-0.1-0.5-0.1c-0.3,0-0.7,0.2-0.9,0.7c-0.3,0.7,0.1,1.1,0.5,1.5
				s0.8,0.9,0.6,1.7c-0.1,0.3-0.4,0.6-0.7,0.8C71.2,98.9,70.7,98.9,70.2,98.9z"/>
		</g>
		<g>
			<ellipse class="st1" cx="86.1" cy="109" rx="2.7" ry="2"/>
			<path class="st1" d="M88.7,106.4c0.3,0.5,0.4,1,0.2,1.4c-0.2,0.4-0.6,0.7-1.1,0.8c-0.3-0.5-0.4-1-0.2-1.4S88.2,106.5,88.7,106.4z
				"/>
			<path class="st1" d="M83.3,106.4c-0.3,0.5-0.4,1-0.2,1.4c0.2,0.4,0.6,0.7,1.1,0.8c0.3-0.5,0.4-1,0.2-1.4
				C84.3,106.8,83.8,106.5,83.3,106.4z"/>
			<path class="st1" d="M86.1,121.1c-4.4,0-1-5.6-0.8-7.5c0.2-1.6,0.3-2.1,0-3.4c0-0.2,1.8-0.3,1.7-0.5c-0.5,1.6-0.4,2-0.2,3.9
				C87.1,115.5,90.4,121.1,86.1,121.1z"/>
			<path class="st1" d="M85.9,120.2c-1.8,0-3.1-0.6-3.1,0s1.5,1,3.3,1s3.3-0.5,3.3-1C89.3,119.6,87.7,120.2,85.9,120.2z"/>
			<path class="st1" d="M85.8,120.2c0.1,0,0.2,0.1,0.3,0.2c0,0.1-0.1,0.2-0.2,0.3c-1,0.1-1.8,0-2.4-0.3c-0.8-0.4-1.3-1-1.5-1.7
				c-0.5-1.5,0.3-2.4,1.1-3.3c0.6-0.7,1.1-1.3,0.8-2.1c-0.3-0.6-0.7-0.9-1.1-0.9c-0.2,0-0.4,0-0.6,0.1s-0.3,0.2-0.4,0.4l0,0
				c-0.2,0.4-0.3,0.8,0,1.3c0.2,0.2,0.4,0.4,0.6,0.3c0.1,0,0.2,0,0.3-0.1c0.1,0,0.2-0.1,0.2-0.2c0.1-0.2,0.1-0.4,0-0.7
				c0-0.1,0-0.2,0.1-0.3c0.1,0,0.2,0,0.3,0.1c0.2,0.5,0.1,0.9-0.1,1.1c-0.1,0.1-0.2,0.2-0.4,0.3c-0.1,0.1-0.3,0.1-0.5,0.1
				c-0.4,0-0.7-0.2-1-0.6c-0.4-0.7-0.3-1.4,0-1.8l0,0c0.2-0.2,0.4-0.4,0.6-0.5s0.5-0.2,0.8-0.2c0.6,0,1.2,0.4,1.5,1.2
				c0.5,1.1-0.2,1.8-0.8,2.6c-0.6,0.7-1.4,1.6-1,2.9c0.2,0.5,0.6,1.1,1.3,1.4C84.2,120.2,85,120.4,85.8,120.2z"/>
		</g>
		<g>
			<ellipse class="st1" cx="110.4" cy="115.2" rx="1.6" ry="1.2"/>
			<path class="st1" d="M112,113.8c0.2,0.3,0.2,0.6,0.1,0.8c-0.1,0.2-0.4,0.4-0.7,0.4c-0.2-0.3-0.2-0.6-0.1-0.8
				C111.5,114,111.7,113.8,112,113.8z"/>
			<path class="st1" d="M108.8,113.8c-0.2,0.3-0.2,0.6-0.1,0.8c0.1,0.2,0.4,0.4,0.7,0.4c0.2-0.3,0.2-0.6,0.1-0.8
				S109.1,113.8,108.8,113.8z"/>
			<path class="st1" d="M110.4,122.5c-2.6,0-0.6-3.3-0.5-4.4c0.1-1,0.2-1.3,0-2c0-0.1,1.1-0.2,1-0.3c-0.3,1-0.3,1.2-0.1,2.3
				C111,119.1,113,122.5,110.4,122.5z"/>
			<path class="st1" d="M110.3,121.9c-1.1,0-1.8-0.4-1.8,0c0,0.3,0.9,0.6,2,0.6s2-0.3,2-0.6C112.4,121.6,111.4,121.9,110.3,121.9z"
				/>
			<path class="st1" d="M110.3,121.9c0.1,0,0.1,0,0.2,0.1c0,0.1,0,0.1-0.1,0.2c-0.6,0.1-1.1,0-1.4-0.2c-0.5-0.2-0.8-0.6-0.9-1
				c-0.3-0.9,0.2-1.4,0.6-1.9c0.3-0.4,0.7-0.8,0.4-1.3c-0.2-0.4-0.4-0.5-0.7-0.5c-0.1,0-0.2,0-0.3,0.1c-0.1,0.1-0.2,0.1-0.3,0.2l0,0
				c-0.1,0.2-0.2,0.5,0,0.8c0.1,0.1,0.2,0.2,0.4,0.2c0.1,0,0.1,0,0.2,0l0.1-0.1c0.1-0.1,0.1-0.2,0-0.4c0-0.1,0-0.1,0.1-0.2
				c0.1,0,0.1,0,0.2,0.1c0.1,0.3,0.1,0.5,0,0.7c-0.1,0.1-0.1,0.1-0.2,0.2c-0.1,0-0.2,0.1-0.3,0.1c-0.2,0-0.4-0.1-0.6-0.3
				c-0.2-0.4-0.2-0.8,0-1.1l0,0c0.1-0.1,0.2-0.2,0.4-0.3c0.1-0.1,0.3-0.1,0.5-0.1c0.3,0,0.7,0.2,0.9,0.7c0.3,0.7-0.1,1.1-0.5,1.5
				s-0.8,0.9-0.6,1.7c0.1,0.3,0.4,0.6,0.7,0.8C109.4,121.9,109.8,122,110.3,121.9z"/>
		</g>
		<g>
			<ellipse class="st1" cx="101.1" cy="67.7" rx="1.6" ry="1.2"/>
			<path class="st1" d="M99.5,66.2c-0.2,0.3-0.2,0.6-0.1,0.8c0.1,0.2,0.4,0.4,0.7,0.4c0.2-0.3,0.2-0.6,0.1-0.8
				C100.1,66.4,99.8,66.3,99.5,66.2z"/>
			<path class="st1" d="M102.7,66.2c0.2,0.3,0.2,0.6,0.1,0.8c-0.1,0.2-0.4,0.4-0.7,0.4c-0.2-0.3-0.2-0.6-0.1-0.8
				C102.2,66.4,102.4,66.3,102.7,66.2z"/>
			<path class="st1" d="M101.1,74.9c2.6,0,0.6-3.3,0.5-4.4c-0.1-1-0.2-1.3,0-2c0-0.1-1.1-0.2-1-0.3c0.3,1,0.3,1.2,0.1,2.3
				C100.5,71.6,98.5,74.9,101.1,74.9z"/>
			<path class="st1" d="M101.3,74.4c1.1,0,1.8-0.4,1.8,0c0,0.3-0.9,0.6-2,0.6s-2-0.3-2-0.6C99.2,74,100.2,74.4,101.3,74.4z"/>
			<path class="st1" d="M101.3,74.4c-0.1,0-0.1,0-0.2,0.1c0,0.1,0,0.1,0.1,0.2c0.6,0.1,1.1,0,1.4-0.2c0.5-0.2,0.8-0.6,0.9-1
				c0.3-0.9-0.2-1.4-0.6-1.9c-0.3-0.4-0.7-0.8-0.4-1.3c0.2-0.4,0.4-0.5,0.7-0.5c0.1,0,0.2,0,0.3,0.1c0.1,0.1,0.2,0.1,0.3,0.2l0,0
				c0.1,0.2,0.2,0.5,0,0.8c-0.1,0.1-0.2,0.2-0.4,0.2c-0.1,0-0.1,0-0.2,0l-0.1-0.1c-0.1-0.1-0.1-0.2,0-0.4c0-0.1,0-0.1-0.1-0.2
				c-0.1,0-0.1,0-0.2,0.1c-0.1,0.3-0.1,0.5,0,0.7c0.1,0.1,0.1,0.1,0.2,0.2c0.1,0,0.2,0.1,0.3,0.1c0.2,0,0.4-0.1,0.6-0.3
				c0.2-0.4,0.2-0.8,0-1.1l0,0c-0.1-0.1-0.2-0.2-0.4-0.3c-0.1-0.1-0.3-0.1-0.5-0.1c-0.3,0-0.7,0.2-0.9,0.7c-0.3,0.7,0.1,1.1,0.5,1.5
				s0.8,0.9,0.6,1.7c-0.1,0.3-0.4,0.6-0.7,0.8C102.2,74.4,101.8,74.5,101.3,74.4z"/>
		</g>
		<g>
			<ellipse class="st1" cx="67" cy="123.1" rx="1.6" ry="1.2"/>
			<path class="st1" d="M65.4,121.7c-0.2,0.3-0.2,0.6-0.1,0.8c0.1,0.2,0.4,0.4,0.7,0.4c0.2-0.3,0.2-0.6,0.1-0.8
				C66,121.9,65.7,121.7,65.4,121.7z"/>
			<path class="st1" d="M68.7,121.7c0.2,0.3,0.2,0.6,0.1,0.8c-0.1,0.2-0.4,0.4-0.7,0.4c-0.2-0.3-0.2-0.6-0.1-0.8
				C68.1,121.9,68.4,121.7,68.7,121.7z"/>
			<path class="st1" d="M67,130.4c2.6,0,0.6-3.3,0.5-4.4c-0.1-1-0.2-1.3,0-2c0-0.1-1.1-0.2-1-0.3c0.3,1,0.3,1.2,0.1,2.3
				C66.4,127,64.4,130.4,67,130.4z"/>
			<path class="st1" d="M67.2,129.8c1.1,0,1.8-0.4,1.8,0c0,0.3-0.9,0.6-2,0.6s-2-0.3-2-0.6C65.1,129.5,66.1,129.8,67.2,129.8z"/>
			<path class="st1" d="M67.2,129.8c-0.1,0-0.1,0-0.2,0.1c0,0.1,0,0.1,0.1,0.2c0.6,0.1,1.1,0,1.4-0.2c0.5-0.2,0.8-0.6,0.9-1
				c0.3-0.9-0.2-1.4-0.6-1.9c-0.3-0.4-0.7-0.8-0.4-1.3c0.2-0.4,0.4-0.5,0.7-0.5c0.1,0,0.2,0,0.3,0.1c0.1,0.1,0.2,0.1,0.3,0.2l0,0
				c0.1,0.2,0.2,0.5,0,0.8c-0.1,0.1-0.2,0.2-0.4,0.2c-0.1,0-0.1,0-0.2,0l-0.1-0.1c-0.1-0.1-0.1-0.2,0-0.4c0-0.1,0-0.1-0.1-0.2
				c-0.1,0-0.1,0-0.2,0.1c-0.1,0.3-0.1,0.5,0,0.7c0.1,0.1,0.1,0.1,0.2,0.2c0.1,0,0.2,0.1,0.3,0.1c0.2,0,0.4-0.1,0.6-0.3
				c0.2-0.4,0.2-0.8,0-1.1l0,0c-0.1-0.1-0.2-0.2-0.4-0.3c-0.1-0.1-0.3-0.1-0.5-0.1c-0.3,0-0.7,0.2-0.9,0.7c-0.3,0.7,0.1,1.1,0.5,1.5
				s0.8,0.9,0.6,1.7c-0.1,0.3-0.4,0.6-0.7,0.8C68.1,129.8,67.7,129.9,67.2,129.8z"/>
		</g>
		<g>
			<ellipse class="st1" cx="98.6" cy="125.4" rx="1.6" ry="1.2"/>
			<path class="st1" d="M97,123.9c-0.2,0.3-0.2,0.6-0.1,0.8c0.1,0.2,0.4,0.4,0.7,0.4c0.2-0.3,0.2-0.6,0.1-0.8
				C97.5,124.1,97.3,123.9,97,123.9z"/>
			<path class="st1" d="M100.2,123.9c0.2,0.3,0.2,0.6,0.1,0.8c-0.1,0.2-0.4,0.4-0.7,0.4c-0.2-0.3-0.2-0.6-0.1-0.8
				C99.7,124.1,99.9,123.9,100.2,123.9z"/>
			<path class="st1" d="M98.6,132.6c2.6,0,0.6-3.3,0.5-4.4c-0.1-1-0.2-1.3,0-2c0-0.1-1.1-0.2-1-0.3c0.3,1,0.3,1.2,0.1,2.3
				C98,129.2,96,132.6,98.6,132.6z"/>
			<path class="st1" d="M98.7,132c1.1,0,1.8-0.4,1.8,0c0,0.3-0.9,0.6-2,0.6s-2-0.3-2-0.6C96.6,131.7,97.6,132,98.7,132z"/>
			<path class="st1" d="M98.7,132c-0.1,0-0.1,0-0.2,0.1c0,0.1,0,0.1,0.1,0.2c0.6,0.1,1.1,0,1.4-0.2c0.5-0.2,0.8-0.6,0.9-1
				c0.3-0.9-0.2-1.4-0.6-1.9c-0.3-0.4-0.7-0.8-0.4-1.3c0.2-0.4,0.4-0.5,0.7-0.5c0.1,0,0.2,0,0.3,0.1c0.1,0.1,0.2,0.1,0.3,0.2l0,0
				c0.1,0.2,0.2,0.5,0,0.8c-0.1,0.1-0.2,0.2-0.4,0.2c-0.1,0-0.1,0-0.2,0l-0.1-0.1c-0.1-0.1-0.1-0.2,0-0.4c0-0.1,0-0.1-0.1-0.2
				c-0.1,0-0.1,0-0.2,0.1c-0.1,0.3-0.1,0.5,0,0.7c0.1,0.1,0.1,0.1,0.2,0.2c0.1,0,0.2,0.1,0.3,0.1c0.2,0,0.4-0.1,0.6-0.3
				c0.2-0.4,0.2-0.8,0-1.1l0,0c-0.1-0.1-0.2-0.2-0.4-0.3c-0.1-0.1-0.3-0.1-0.5-0.1c-0.3,0-0.7,0.2-0.9,0.7c-0.3,0.7,0.1,1.1,0.5,1.5
				s0.8,0.9,0.6,1.7c-0.1,0.3-0.4,0.6-0.7,0.8C99.7,132,99.2,132.1,98.7,132z"/>
		</g>
		<g>
			<ellipse class="st1" cx="107.4" cy="42.4" rx="2.7" ry="2"/>
			<path class="st1" d="M104.7,39.9c-0.3,0.5-0.4,1-0.2,1.4c0.2,0.4,0.6,0.7,1.1,0.8c0.3-0.5,0.4-1,0.2-1.4
				C105.6,40.3,105.2,40,104.7,39.9z"/>
			<path class="st1" d="M110.1,39.9c0.3,0.5,0.4,1,0.2,1.4c-0.2,0.4-0.6,0.7-1.1,0.8c-0.3-0.5-0.4-1-0.2-1.4
				C109.2,40.3,109.6,40,110.1,39.9z"/>
			<path class="st1" d="M107.4,54.6c4.4,0,1-5.6,0.8-7.5c-0.2-1.6-0.3-2.1,0-3.4c0-0.2-1.8-0.3-1.7-0.5c0.5,1.6,0.4,2,0.2,3.9
				C106.4,49,103,54.6,107.4,54.6z"/>
			<path class="st1" d="M107.6,53.7c1.8,0,3.1-0.6,3.1,0s-1.5,1-3.3,1s-3.3-0.5-3.3-1C104.1,53.1,105.8,53.7,107.6,53.7z"/>
			<path class="st1" d="M107.6,53.7c-0.1,0-0.2,0.1-0.3,0.2c0,0.1,0.1,0.2,0.2,0.3c1,0.1,1.8,0,2.4-0.3c0.8-0.4,1.3-1,1.5-1.7
				c0.5-1.5-0.3-2.4-1.1-3.3c-0.6-0.7-1.1-1.3-0.8-2.1c0.3-0.6,0.7-0.9,1.1-0.9c0.2,0,0.4,0,0.6,0.1s0.3,0.2,0.4,0.4l0,0
				c0.2,0.4,0.3,0.8,0,1.3c-0.2,0.2-0.4,0.4-0.6,0.3c-0.1,0-0.2,0-0.3-0.1c-0.1,0-0.2-0.1-0.2-0.2c-0.1-0.2-0.1-0.4,0-0.7
				c0-0.1,0-0.2-0.1-0.3c-0.1,0-0.2,0-0.3,0.1c-0.2,0.5-0.1,0.9,0.1,1.1c0.1,0.1,0.2,0.2,0.4,0.3c0.1,0.1,0.3,0.1,0.5,0.1
				c0.4,0,0.7-0.2,1-0.6c0.4-0.7,0.3-1.4,0-1.8l0,0c-0.2-0.2-0.4-0.4-0.6-0.5s-0.5-0.2-0.8-0.2c-0.6,0-1.2,0.4-1.5,1.2
				c-0.5,1.1,0.2,1.8,0.8,2.6c0.6,0.7,1.4,1.6,1,2.9c-0.2,0.5-0.6,1.1-1.3,1.4C109.2,53.7,108.4,53.8,107.6,53.7z"/>
		</g>
		<path class="st1" d="M128.5,41c-0.6-1.1-0.9-1.6-1.1-2.4c0.1-0.1,0.2-0.1,0.3-0.2c-0.4-1.2-0.8-2.4-1.2-3.5
			c-0.4,0-0.8,0.1-1.1,0.2c-0.5,0.2-1,0.5-1.3,0.9c0,0,0-0.1-0.1-0.1c-0.3-0.3-0.8-0.4-1.3-0.3c-0.1,0.5,0,1.1,0.4,1.4
			c0.1,0.1,0.3,0.2,0.5,0.3c0,0.2,0,0.5,0.1,0.7c0.4,0.9,1.5,1.3,2.6,1c0.4,0.7,0.6,1.3,0.9,2.6s-0.1,5,1.1,6.4
			c-0.7,0.2-1.2,0.3-1,0.6c0.2,0.5,1.7,0.4,3.3-0.2C129.9,46,129.2,43.5,128.5,41z"/>
		<g>
			<path class="st1" d="M49,61.8c0.2-1.3,0.4-1.9,0.8-2.6c1.2,0.2,2.3-0.3,2.5-1.2c0.1-0.2,0.1-0.5,0.1-0.7c0.2-0.1,0.3-0.2,0.4-0.3
				c0.3-0.4,0.4-0.9,0.3-1.4c-0.5-0.1-1,0-1.3,0.4c0,0,0,0.1-0.1,0.1c-0.3-0.4-0.8-0.7-1.3-0.8c-0.6-0.2-1.1-0.2-1.6-0.1v-0.1
				c-0.1-0.5-0.4-0.8-0.8-1.1c-0.4,0.3-0.7,0.8-0.6,1.3c0,0.2,0.1,0.4,0.2,0.5c-0.2,0.2-0.3,0.4-0.4,0.6c-0.3,0.9,0.3,1.9,1.3,2.5
				c-0.1,0.8-0.4,1.3-1,2.6c-0.3,0.6-1.1,1.5-1.8,2.5c1,0.5,2.1,0.9,3.2,1.3C48.9,63.8,48.8,62.5,49,61.8z"/>
			<path class="st1" d="M44.8,62.3c-0.3,0.2-0.7,0.4-1,0.7c0.2,0.1,0.3,0.1,0.5,0.2c0.2-0.2,0.5-0.3,0.8-0.5c0.9-0.5,1.7-1,1.6-2.2
				c-0.1-0.9-0.5-1.4-1.1-1.6c-0.3-0.1-0.5-0.1-0.8-0.1s-0.5,0.2-0.7,0.3l0,0c-0.5,0.4-0.8,1-0.6,1.7c0.1,0.5,0.4,0.7,0.8,0.8
				c0.2,0,0.3,0.1,0.5,0c0.2,0,0.3-0.1,0.5-0.2c0.3-0.2,0.5-0.6,0.4-1.1c0-0.1-0.1-0.2-0.2-0.2c-0.1,0-0.2,0.1-0.2,0.2
				c0,0.3-0.1,0.5-0.2,0.6C45,61,44.9,61,44.8,61s-0.2,0-0.3,0c-0.2-0.1-0.4-0.2-0.5-0.5c-0.1-0.6,0.1-1,0.4-1.3l0,0
				c0.2-0.1,0.3-0.2,0.5-0.2s0.4,0,0.6,0c0.4,0.1,0.7,0.5,0.8,1.2C46.3,61.4,45.6,61.8,44.8,62.3z"/>
		</g>
	</g>
</g>
</svg>
