<?xml version="1.0" encoding="utf-8"?>
<!-- Generator: Adobe Illustrator 19.2.1, SVG Export Plug-In . SVG Version: 6.00 Build 0)  -->
<svg version="1.1" id="Layer_1" xmlns="http://www.w3.org/2000/svg" xmlns:xlink="http://www.w3.org/1999/xlink" x="0px" y="0px"
	 viewBox="0 0 178 155" style="enable-background:new 0 0 178 155;" xml:space="preserve">
<style type="text/css">
	.st0{fill:#8BD9D0;}
	.st1{fill:#5578D9;}
</style>
<g>
	<g>
		<path class="st0" d="M116.5,70.9c7-1.7,11.7-3.7,16.7-8.7c-1.2-7.8-5.3-24.5-9.3-32.3c-0.4-1.1-1-2.1-1.8-3
			c-1.4-2.1-3.1-3.6-5-4.4c-4.2-2.7-9.8-4.8-16-6c-1.1,5.9-6.4,10.3-12.5,10.3c-6.4,0-11.7-4.8-12.6-10.9c-6,0.9-11.5,2.6-15.6,5.2
			c-14,7.2-16.5,30.3-19,41.2c5.3,3.3,11.3,5,19,5.7c0.1-0.2,0.9-5.4,1-5.6c3.7,12.9,5.6,25,2,34.4c-5.1,13.2-9.5,22.3-10.1,31.4
			c22.5,11.5,51,12.2,70.5-3.1c-1.3-8.1-5.3-16.6-9.8-28.3c-3-7.8-3.2-20.1-1-31L116.5,70.9z"/>
		<g>
			<path class="st1" d="M110,75c-1.6-1.4-2.2-5.6-5.6-4.1c-1.1,0.5-1.7,2.3-3,2.8c-0.8,0.4-1.7,0.5-2.5,0.2c-2.2-0.7-1.3-2.2-4-2.1
				c-3.4,0.1-4.6,4.5-8.6,2.7c-2.3-1-2.4-3.8-5.6-2.2c-1.3,0.6-2.1,2.1-3.4,2.7c-3.1,1.4-3.9-0.7-6.4-1.9c-1.9-0.9-1.4-0.5-2.8,1
				c-0.4,0.4-0.6,0.9-1,1.2c-0.7,0.6-1.5,1-2.3,1.2c0.6,4.1,0.9,8,0.6,11.6c1.8,0,3.8-1,5.2-2.9c0.7-0.9,1-1.9,2.1-2.5
				c2.4-1.2,4.6,0.4,6.2,2.2c2.1,2.3,2.5,3.4,5.5,1.3c1-0.7,1.9-1.4,3.2-1.7c2.3-0.4,3.8,0.7,5.5,2.1c3.8,3.2,4.7-1.3,8.2-2.3
				c2.6-0.7,3.9,0.8,5.7,2.3c1.9,1.6,3.1,1.5,5,0.7c-0.4-3.6-0.5-7.5-0.2-11.4C111.2,75.8,110.6,75.5,110,75z"/>
			<path class="st1" d="M61.5,62.4c1,3.6,1.9,7.2,2.6,10.7c0.8-0.7,1.5-1.7,2.4-2.6c0.5-0.6,1-1.2,1.8-1.5c2.6-1,4.4,1.9,6.8,2.2
				c2.6,0.4,2.5-0.7,4.5-2c0.8-0.5,1.6-0.9,2.5-1c3-0.2,4.1,3.2,6.7,2.9c2.9-0.4,4.2-4.4,7.6-3.3c1.1,0.3,1.2,0.8,2.1,1.5
				c1.1,0.9-0.1,1.1,1.8,1.3c1.6,0.2,1.5-0.4,2.6-1.3c1.3-1.1,2.9-1.9,4.6-1.1c0.7,0.3,1.1,0.9,1.5,1.4c0.5,0.6,0.8,1.9,1.4,2.4
				c0.4,0.3,1,0.5,1.7,0.7c0.2-2.3,0.6-4.7,1.1-6.9l1.8,5.8c7-1.7,13.3-4.3,18.3-9.3c-1.2-7.8-4.3-24.5-8.3-32.3
				c-0.4-1.1-1-2.1-1.8-3c-1.4-2.1-3.1-3.6-5-4.4c-4.2-2.7-10.8-4.8-17-6c-1.1,5.9-6.4,10.3-12.5,10.3c-6.4,0-11.8-4.9-12.7-11
				c-6.4,0.4-11.4,2.7-15.5,5.3c-14,7.2-17.1,29.6-19.5,40.5c5.3,3.3,11.9,5.7,19.6,6.4C60.5,67.7,61.4,62.6,61.5,62.4z"/>
			<path class="st1" d="M67.9,102c0.9-0.2,1.7-1.1,2.6-1.5c1.8-0.7,3.3-0.8,5.1,0.1c2.3,1.2,3.1,4.4,6.1,3.5
				c2.1-0.6,2.8-3.1,5.4-3.1c1.9,0,2.4,1.1,3.7,2c1.4,0.9,1.1,1.7,3,0.5c1.4-0.9,2.7-2.7,3.9-3.8c0.8-0.8,2.5-0.8,3.1,0.4
				c0.8,1.6,4,2.8,5.2,1.9c0.4-0.3,0.5-1.3,0.9-1.7c0.6-0.8,1.1-1.2,2-1.4c1.3-0.3,1.5,0.4,2.6,0.5c1.3,0.1,2.4,0.1,3.5-0.1
				c-0.3-0.8-0.6-1.7-1-2.5c-0.6-1.5-1-3.1-1.4-4.8c-1.4,0.8-2.9,1.3-4.7,0.7c-1.2-0.4-2-1.1-2.8-2c-0.9-1-1.6-2.6-3.3-2.3
				c-0.7,0.1-1.5,1.5-2.1,1.9c-2.2,1.7-4.4,2.6-7,1.1c-1.7-1-3-3.4-5.4-2.8c-1.6,0.4-2.6,2.3-4.4,2.7c-4.1,1.1-6.4-5.4-10-3.9
				c-1.2,0.5-2.1,2.4-3.5,3.1c-1.4,0.6-3,0.9-4.6,0.6l0,0c-0.3,1.9-0.8,3.8-1.5,5.5c-0.4,1.1-0.8,2.1-1.2,3.1
				C63.8,101.4,64.6,102.9,67.9,102z"/>
			<path class="st1" d="M114.9,104.2c-1.4,0.1-2.6-0.6-3.8-0.7c-1,0-0.6-0.7-1.2-0.4c-0.5,0.2-0.6,1.4-0.9,1.8
				c-3,4.4-7.3,2.6-10-0.7c-2.4,2.6-5.6,5.9-8.8,3.8c-2.2-1.4-2.3-3.7-5.4-1.4c-1.4,1-2.7,1.9-4.5,1.7c-1.7-0.1-2.9-1.2-4.2-2.3
				c-2.9-2.8-4.9-1.3-8-0.5c-1.6,0.4-3.1,0.1-4.5-0.8c-0.5-0.3-1.3-1.3-2.3-2.3c-4.1,10.2-7.3,18-7.9,25.7
				c22.7,12.7,51,12.2,70.5-3.1c-1-6.4-3.7-13.1-7-21.3C116.2,104,115.6,104.2,114.9,104.2z"/>
		</g>
	</g>
</g>
</svg>
