<?xml version="1.0" encoding="utf-8"?>
<!-- Generator: Adobe Illustrator 19.2.1, SVG Export Plug-In . SVG Version: 6.00 Build 0)  -->
<svg version="1.1" id="Layer_1" xmlns="http://www.w3.org/2000/svg" xmlns:xlink="http://www.w3.org/1999/xlink" x="0px" y="0px"
	 viewBox="0 0 227 227" style="enable-background:new 0 0 227 227;" xml:space="preserve">
<style type="text/css">
	.st0{fill:#5F502E;}
	.st1{fill:#FFFFFF;}
	.st2{fill:#39301C;}
	.st3{fill:#536E73;}
</style>
<g>
	<g>
		<path class="st0" d="M123.9,123.8c0-2.2-1.7-3.9-3.9-3.9h-12.2c-2.1,0-3.9,1.7-3.9,3.9V210c0,2.2,1.7,3.9,3.9,3.9H120
			c2.1,0,3.9-1.7,3.9-3.9V123.8z M114.1,179c-1.2,0-2.1-1-2.1-2.1c0-1.2,1-2.1,2.1-2.1c1.2,0,2.1,1,2.1,2.1
			C116.2,178.1,115.3,179,114.1,179z M114.1,191.9c-1.2,0-2.1-1-2.1-2.1c0-1.2,1-2.1,2.1-2.1c1.2,0,2.1,1,2.1,2.1
			C116.2,190.9,115.3,191.9,114.1,191.9z M114.1,204.8c-1.2,0-2.1-1-2.1-2.1c0-1.2,1-2.1,2.1-2.1c1.2,0,2.1,1,2.1,2.1
			C116.2,203.8,115.3,204.8,114.1,204.8z"/>
		<path class="st0" d="M104,96.1c0,4.4,2.6,7.9,5.9,7.9h8.4c3.2,0,5.9-3.6,5.9-7.9v-66H104V96.1z"/>
		<path class="st1" d="M114.1,91.4L114.1,91.4c13,0,23.5,10.6,23.5,23.5s-10.6,23.5-23.5,23.5s-23.5-10.6-23.5-23.5
			S101.1,91.4,114.1,91.4"/>
		<path class="st2" d="M109.9,16.9h8.4c4.1,0,7.4,3.3,7.4,7.4v7.3h-23.1v-7.3C102.5,20.2,105.8,16.9,109.9,16.9z M122.7,28.6v-4.4
			c0-2.4-2-4.4-4.4-4.4h-8.4c-2.4,0-4.4,2-4.4,4.4v4.4H122.7z"/>
		<g>
			<g>
				<path class="st2" d="M97.1,131.8c4.5,4.5,10.6,7,17,7c6.4,0,12.4-2.5,17-7c4.5-4.5,7-10.6,7-17c0-6.4-2.5-12.4-7-17
					c-4.5-4.5-10.6-7-17-7c-6.4,0-12.4,2.5-17,7c-4.5,4.5-7,10.6-7,17C90.1,121.3,92.6,127.3,97.1,131.8L97.1,131.8z M114.1,92.5
					c12.4,0,22.4,10.1,22.4,22.4s-10.1,22.4-22.4,22.4s-22.4-10.1-22.4-22.4S101.7,92.5,114.1,92.5L114.1,92.5z M114.1,94.9"/>
				<path class="st3" d="M103.9,113.8l8.5,0.6l0.8,12.4c0,0.4,0.4,0.8,0.8,0.8c0.4,0,0.8-0.3,0.8-0.8l0.8-12.2l1.4,0.1
					c0.2,0,0.4-0.1,0.5-0.2c0.1-0.1,0.2-0.3,0.2-0.5v-1.8c0-0.2-0.1-0.4-0.2-0.5c-0.1-0.1-0.3-0.2-0.4-0.2c0,0,0,0,0,0l-1.2,0.1
					l0.1-1.2c0-0.2-0.1-0.4-0.2-0.6c-0.2-0.2-0.4-0.3-0.6-0.3H113c-0.5,0-0.8,0.4-0.8,0.8c0,0,0.1,1.5,0.1,1.5l-8.3,0.6
					c-0.3,0-0.6,0.3-0.6,0.7C103.3,113.4,103.6,113.7,103.9,113.8L103.9,113.8z M103.9,113.8"/>
			</g>
		</g>
		<path class="st2" d="M101.5,153.4h25.1c1.8,0,3.2,1.5,3.2,3.2v3.3c0,1.8-1.5,3.2-3.2,3.2h-25.1c-1.8,0-3.2-1.5-3.2-3.2v-3.3
			C98.3,154.8,99.7,153.4,101.5,153.4z"/>
		<path class="st2" d="M113.5,10.7h1.2c0.6,0,1.2,0.5,1.2,1.2v12.9c0,0.6-0.5,1.2-1.2,1.2h-1.2c-0.6,0-1.2-0.5-1.2-1.2V11.9
			C112.3,11.2,112.9,10.7,113.5,10.7z"/>
	</g>
</g>
</svg>
