<?xml version="1.0" encoding="utf-8"?>
<!-- Generator: Adobe Illustrator 19.2.1, SVG Export Plug-In . SVG Version: 6.00 Build 0)  -->
<svg version="1.1" id="Layer_1" xmlns="http://www.w3.org/2000/svg" xmlns:xlink="http://www.w3.org/1999/xlink" x="0px" y="0px"
	 viewBox="0 0 227 227" style="enable-background:new 0 0 227 227;" xml:space="preserve">
<style type="text/css">
	.st0{fill:#FFFFFF;}
	.st1{fill:#095293;}
	.st2{fill:#303030;}
	.st3{fill:#EF8559;}
</style>
<g>
	<g>
		<ellipse class="st0" cx="116.4" cy="114.8" rx="31.5" ry="31.6"/>
		<path class="st1" d="M130.3,79.8c0,1.9-1.5,3.4-3.4,3.4h-21c-1.9,0-3.4-1.5-3.4-3.4V25.6c0-1.9,1.5-3.4,3.4-3.4h21
			c1.9,0,3.4,1.5,3.4,3.4V79.8z"/>
		<path class="st1" d="M130.3,206.4c0,1.9-1.5,3.4-3.4,3.4h-21c-1.9,0-3.4-1.5-3.4-3.4v-56.6c0-1.9,1.5-3.4,3.4-3.4h21
			c1.9,0,3.4,1.5,3.4,3.4V206.4z"/>
		<path class="st2" d="M153.5,110.8H150c-1.2-10.1-6.8-18.9-14.9-24.3c-1.3-1.8-2.7-5.1-3.6-10.9h-3.2V83c-3.7-1.4-7.7-2.2-11.9-2.2
			c-4.2,0-8.1,0.8-11.8,2.1v-7.4h-3.2c-0.9,5.7-2.3,8.9-3.5,10.8c-9.2,6.1-15.4,16.5-15.4,28.4c0,11.7,5.9,22,14.9,28.1
			c1.3,1.7,3,5.1,4,11.4h3.2v-7.7c3.7,1.4,7.7,2.1,11.8,2.1c4.2,0,8.2-0.8,11.9-2.2v7.8h3.2c1-6.6,2.8-9.9,4.1-11.6
			c7.7-5.4,13.1-13.8,14.4-23.6h3.6V110.8z M116.4,144c-16.1,0-29.1-13.1-29.1-29.2c0-16.1,13.1-29.2,29.1-29.2s29.1,13.1,29.1,29.2
			C145.5,130.9,132.5,144,116.4,144z"/>
		<g>
			<path class="st2" d="M136.2,124.2l-17.3-10c0.3-0.5,0.5-1,0.5-1.6c0-0.2,0-0.4-0.1-0.6l6.7-6.7l-1-1l-6.4,6.4
				c-0.6-0.7-1.4-1.1-2.3-1.1c-1.7,0-3,1.4-3,3c0,1.7,1.4,3,3,3c0.6,0,1.1-0.2,1.5-0.4l17.6,10.2L136.2,124.2z M114.7,112.6
				c0-0.9,0.7-1.7,1.7-1.7c0.9,0,1.7,0.7,1.7,1.7c0,0.9-0.7,1.7-1.7,1.7C115.4,114.2,114.7,113.5,114.7,112.6z"/>
			<g>
				<polygon class="st3" points="102.7,124.5 102.5,124.2 114.3,114.6 114.5,114.8 				"/>
			</g>
		</g>
		<g>
			<g>
				<rect x="115.6" y="90" class="st2" width="1.6" height="5.7"/>
				<rect x="115.6" y="133.9" class="st2" width="1.6" height="5.7"/>
			</g>
			<g>
				<polygon class="st2" points="134.4,97.8 133.3,96.7 129.3,100.7 130.4,101.9 				"/>
				<polygon class="st2" points="103.5,128.9 102.4,127.7 98.3,131.8 99.5,132.9 				"/>
			</g>
			<g>
				<polygon class="st2" points="99.5,96.7 98.3,97.8 102.4,101.9 103.5,100.7 				"/>
				<polygon class="st2" points="130.4,127.7 129.3,128.9 133.3,132.9 134.4,131.8 				"/>
			</g>
			<g>
				<rect x="91.7" y="114" class="st2" width="5.7" height="1.6"/>
				<rect x="135.4" y="114" class="st2" width="5.7" height="1.6"/>
			</g>
		</g>
	</g>
</g>
</svg>
