<?xml version="1.0" encoding="utf-8"?>
<!-- Generator: Adobe Illustrator 19.2.1, SVG Export Plug-In . SVG Version: 6.00 Build 0)  -->
<svg version="1.1" id="Layer_1" xmlns="http://www.w3.org/2000/svg" xmlns:xlink="http://www.w3.org/1999/xlink" x="0px" y="0px"
	 viewBox="0 0 66 66" style="enable-background:new 0 0 66 66;" xml:space="preserve">
<style type="text/css">
	.st0{fill:#26587D;}
</style>
<g>
	<path class="st0" d="M61.6,28.2l-0.1-2.8H58c-0.2-0.1-0.5-0.2-0.8-0.3c-1.1-0.4-7.7-0.9-12.1-0.5c-3.9,0.3-8.7,1.9-12.3,2
		c-1.5,0-7.8-1.6-12.2-2s-11,0.2-12.1,0.6c-0.2,0.1-0.3,0.1-0.5,0.2H3.9v2.8h3.2c0.1,0.4,0.4,0.7,0.8,0.8C9,29.4,9,30.7,9.7,34.7
		c0.7,3.6,2.3,6.4,9.1,6.9c6.7,0.5,8.9-3.8,9.7-5.2c1.3-2.5,0.9-5.9,4.3-5.9s3.1,3.4,4.4,5.8c0.7,1.4,2.9,5.8,9.6,5.2
		c6.8-0.5,8.4-3.4,9.1-7c0.7-4,0.7-5.3,1.8-5.7c0.3-0.1,0.6-0.3,0.7-0.7L61.6,28.2z M23.6,39.9c-3.2,1.5-9.9,0.7-11.7-2.6
		c-1.8-3.1-2.2-9.5,0-10.8c2-1.2,13.7-1.6,16.3,1.8C30.5,31.3,27,38.3,23.6,39.9z M53.7,37.2c-1.8,3.3-8.4,4.2-11.7,2.6
		c-3.3-1.6-6.9-8.6-4.7-11.5c2.6-3.5,14.3-3.1,16.3-1.9C55.9,27.7,55.4,34.1,53.7,37.2z"/>
</g>
</svg>
