<?xml version="1.0" encoding="utf-8"?>
<!-- Generator: Adobe Illustrator 19.2.1, SVG Export Plug-In . SVG Version: 6.00 Build 0)  -->
<svg version="1.1" id="Layer_1" xmlns="http://www.w3.org/2000/svg" xmlns:xlink="http://www.w3.org/1999/xlink" x="0px" y="0px"
	 viewBox="0 0 178 66" style="enable-background:new 0 0 178 66;" xml:space="preserve">
<style type="text/css">
	.st0{opacity:0.4;fill:#946842;enable-background:new    ;}
	.st1{fill:#735133;}
</style>
<g>
	<g>
		<g>
			<path class="st0" d="M112.5,40.9H95.8c-1.7,0-3-1.3-3-3v-3.3c0-0.6,0.4-1,1-1h20.7c0.6,0,1,0.4,1,1v3.3
				C115.5,39.5,114.2,40.9,112.5,40.9z"/>
			<polygon class="st1" points="115.5,35.2 115.5,36.7 118,34.6 117.9,33.6 			"/>
		</g>
		<g>
			<path class="st0" d="M67.1,40.9h16.7c1.7,0,3-1.3,3-3v-3.3c0-0.6-0.4-1-1-1H65.1c-0.6,0-1,0.4-1,1v3.3
				C64.1,39.5,65.4,40.9,67.1,40.9z"/>
			<path class="st1" d="M92.8,35.8c0-0.5-1-1.1-3-1.2l0,0c0,0,0.1,0,0,0s0,0,0,0l0,0c-2,0.1-3,0.8-3,1.2v1.1c0-0.4,1.4-1.3,3-1.3
				c1.6,0.1,3,1,3,1.3V35.8z"/>
			<polygon class="st1" points="64.1,35.2 64.1,36.7 61.6,34.6 61.7,33.6 			"/>
		</g>
	</g>
</g>
</svg>
