<?xml version="1.0" encoding="utf-8"?>
<!-- Generator: Adobe Illustrator 19.2.1, SVG Export Plug-In . SVG Version: 6.00 Build 0)  -->
<svg version="1.1" id="Layer_1" xmlns="http://www.w3.org/2000/svg" xmlns:xlink="http://www.w3.org/1999/xlink" x="0px" y="0px"
	 viewBox="0 0 178 178" style="enable-background:new 0 0 178 178;" xml:space="preserve">
<style type="text/css">
	.st0{fill-rule:evenodd;clip-rule:evenodd;fill:#CCCCCC;}
	.st1{fill-rule:evenodd;clip-rule:evenodd;fill:#191B1D;}
	
		.st2{fill-rule:evenodd;clip-rule:evenodd;fill:none;stroke:#FFFFFF;stroke-width:1.9199;stroke-linecap:round;stroke-linejoin:round;stroke-miterlimit:22.9256;}
</style>
<g>
	<g>
		<path class="st0" d="M81.2,89.8C81.2,89.8,81.2,89.8,81.2,89.8c-0.3-2.9-1-5.7-2.2-7.1c-2.4-2.8-18.5,5.7-22,3.9
			c-1.3-0.7-2.7-1-4.3-0.9c-0.1,0.1-0.3,0.2-0.4,0.3C45.1,91.2,38.6,97.4,36,98.5c-8,3.5-14.7,7.6-14.2,11.3c-0.3,1.4-0.1,3.6,0,4.3
			c1.8,8.9,26.1,9.5,32.9,2.2c7.2-7.8,23.8-9.2,26.2-15.2C81.9,98.8,81.7,94.5,81.2,89.8z"/>
		<path class="st1" d="M79.1,82.7c3.2,5.5,2.8,12,1.8,14.4c-2.4,6-19,7.4-26.2,15.2c-6.7,7.3-31,6.7-32.9-2.2
			c-0.8-3.8,6-7.9,14.2-11.5c2.6-1.1,9.1-7.3,16.4-12.6c0.1-0.1,0.3-0.2,0.4-0.3c1.5-0.1,2.9,0.2,4.3,0.9c3.4,1.8,2.7,4.1,6.6,4.8
			C75.4,93.4,77.6,86.7,79.1,82.7z"/>
		<g>
			<line class="st2" x1="45.1" y1="101.6" x2="42.4" y2="93.8"/>
			<line class="st2" x1="49.1" y1="97.7" x2="46.4" y2="90"/>
			<line class="st2" x1="52.8" y1="94.4" x2="50.2" y2="87.3"/>
			<line class="st2" x1="37.4" y1="97" x2="48" y2="97.9"/>
			<line class="st2" x1="41.9" y1="93.5" x2="52.5" y2="94.4"/>
			<line class="st2" x1="45.8" y1="90.2" x2="56.4" y2="91.2"/>
		</g>
	</g>
	<g>
		<path class="st0" d="M97.9,89.8C97.9,89.8,97.9,89.8,97.9,89.8c0.3-2.9,1-5.7,2.2-7.1c2.4-2.8,18.5,5.7,22,3.9
			c1.3-0.7,2.7-1,4.3-0.9c0.1,0.1,0.3,0.2,0.4,0.3c7.4,5.4,13.8,11.5,16.4,12.6c8,3.5,14.7,7.6,14.2,11.3c0.3,1.4,0.1,3.6,0,4.3
			c-1.8,8.9-26.1,9.5-32.9,2.2c-7.2-7.8-23.8-9.2-26.2-15.2C97.2,98.8,97.4,94.5,97.9,89.8z"/>
		<path class="st1" d="M100.1,82.7c-3.2,5.5-2.8,12-1.8,14.4c2.4,6,19,7.4,26.2,15.2c6.7,7.3,31,6.7,32.9-2.2
			c0.8-3.8-6-7.9-14.2-11.5c-2.6-1.1-9.1-7.3-16.4-12.6c-0.1-0.1-0.3-0.2-0.4-0.3c-1.5-0.1-2.9,0.2-4.3,0.9
			c-3.4,1.8-2.7,4.1-6.6,4.8C103.7,93.4,101.5,86.7,100.1,82.7z"/>
		<g>
			<line class="st2" x1="134" y1="101.6" x2="136.7" y2="93.8"/>
			<line class="st2" x1="130" y1="97.7" x2="132.7" y2="90"/>
			<line class="st2" x1="126.3" y1="94.4" x2="128.9" y2="87.3"/>
			<line class="st2" x1="141.7" y1="97" x2="131.1" y2="97.9"/>
			<line class="st2" x1="137.2" y1="93.5" x2="126.6" y2="94.4"/>
			<line class="st2" x1="133.3" y1="90.2" x2="122.7" y2="91.2"/>
		</g>
	</g>
</g>
</svg>
