<?xml version="1.0" encoding="utf-8"?>
<!-- Generator: Adobe Illustrator 19.2.1, SVG Export Plug-In . SVG Version: 6.00 Build 0)  -->
<svg version="1.1" id="Layer_1" xmlns="http://www.w3.org/2000/svg" xmlns:xlink="http://www.w3.org/1999/xlink" x="0px" y="0px"
	 viewBox="0 0 178 178" style="enable-background:new 0 0 178 178;" xml:space="preserve">
<style type="text/css">
	.st0{fill-rule:evenodd;clip-rule:evenodd;fill:#97574B;}
	.st1{fill-rule:evenodd;clip-rule:evenodd;fill:#EBC21F;}
	
		.st2{fill-rule:evenodd;clip-rule:evenodd;fill:none;stroke:#973927;stroke-width:1.9199;stroke-linecap:round;stroke-linejoin:round;stroke-miterlimit:22.9256;}
</style>
<g>
	<g>
		<g>
			<path class="st0" d="M80.4,78.8C80.4,78.8,80.4,78.8,80.4,78.8c-0.3-2.4-0.8-4.9-1.9-6.1c-2.1-2.4-15.8,4.9-18.8,3.3
				c-1.1-0.6-2.3-0.9-3.6-0.8c-0.1,0.1-0.2,0.2-0.3,0.3c-6.3,4.6-11.8,9.8-14,10.8c-6.9,3-12.5,6.5-12.1,9.6c-0.2,1.2-0.1,3.1,0,3.7
				c1.6,7.6,22.3,8.1,28.1,1.9c6.2-6.7,20.3-7.9,22.4-13C81,86.5,80.8,82.9,80.4,78.8z"/>
			<path class="st1" d="M78.6,72.7c2.7,4.7,2.4,10.2,1.6,12.3c-2.1,5.1-16.2,6.3-22.4,13c-5.7,6.2-26.5,5.7-28.1-1.9
				c-0.7-3.2,5.1-6.7,12.1-9.8c2.2-1,7.7-6.2,14-10.8c0.1-0.1,0.2-0.2,0.3-0.3c1.3,0,2.5,0.2,3.6,0.8c2.9,1.6,2.3,3.5,5.7,4.1
				C75.5,81.9,77.3,76.2,78.6,72.7z"/>
			<g>
				<line class="st2" x1="49.6" y1="88.9" x2="47.3" y2="82.2"/>
				<line class="st2" x1="53" y1="85.6" x2="50.7" y2="78.9"/>
				<line class="st2" x1="56.2" y1="82.7" x2="53.9" y2="76.7"/>
				<line class="st2" x1="43" y1="84.9" x2="52" y2="85.8"/>
				<line class="st2" x1="46.9" y1="82" x2="55.9" y2="82.8"/>
				<line class="st2" x1="50.2" y1="79.2" x2="59.3" y2="80"/>
			</g>
		</g>
		<g>
			<path class="st0" d="M97.6,78.8C97.6,78.8,97.6,78.8,97.6,78.8c0.3-2.4,0.8-4.9,1.9-6.1c2.1-2.4,15.8,4.9,18.8,3.3
				c1.1-0.6,2.3-0.9,3.6-0.8c0.1,0.1,0.2,0.2,0.3,0.3c6.3,4.6,11.8,9.8,14,10.8c6.9,3,12.5,6.5,12.1,9.6c0.2,1.2,0.1,3.1,0,3.7
				c-1.6,7.6-22.3,8.1-28.1,1.9c-6.2-6.7-20.3-7.9-22.4-13C97,86.5,97.2,82.9,97.6,78.8z"/>
			<path class="st1" d="M99.4,72.7C96.7,77.4,97,82.9,97.9,85c2.1,5.1,16.2,6.3,22.4,13c5.7,6.2,26.5,5.7,28.1-1.9
				c0.7-3.2-5.1-6.7-12.1-9.8c-2.2-1-7.7-6.2-14-10.8c-0.1-0.1-0.2-0.2-0.3-0.3c-1.3,0-2.5,0.2-3.6,0.8c-2.9,1.6-2.3,3.5-5.7,4.1
				C102.5,81.9,100.7,76.2,99.4,72.7z"/>
			<g>
				<line class="st2" x1="128.4" y1="88.9" x2="130.7" y2="82.2"/>
				<line class="st2" x1="125" y1="85.6" x2="127.3" y2="78.9"/>
				<line class="st2" x1="121.8" y1="82.7" x2="124.1" y2="76.7"/>
				<line class="st2" x1="135" y1="84.9" x2="126" y2="85.8"/>
				<line class="st2" x1="131.1" y1="82" x2="122.1" y2="82.8"/>
				<line class="st2" x1="127.8" y1="79.2" x2="118.7" y2="80"/>
			</g>
		</g>
	</g>
</g>
</svg>
