<?xml version="1.0" encoding="utf-8"?>
<!-- Generator: Adobe Illustrator 19.2.1, SVG Export Plug-In . SVG Version: 6.00 Build 0)  -->
<svg version="1.1" id="Layer_1" xmlns="http://www.w3.org/2000/svg" xmlns:xlink="http://www.w3.org/1999/xlink" x="0px" y="0px"
	 viewBox="0 0 66 66" style="enable-background:new 0 0 66 66;" xml:space="preserve">
<style type="text/css">
	.st0{opacity:0.4;fill:#946842;enable-background:new    ;}
	.st1{fill:#735133;}
</style>
<g>
	<g>
		<g>
			<path class="st0" d="M56.5,36.7H39.8c-1.7,0-3-1.3-3-3v-3.3c0-0.6,0.4-1,1-1h20.7c0.6,0,1,0.4,1,1v3.3
				C59.5,35.2,58.2,36.7,56.5,36.7z"/>
			<polygon class="st1" points="59.5,31 59.5,32.5 62,30.3 61.9,29.3 			"/>
		</g>
		<g>
			<path class="st0" d="M11.1,36.7h16.7c1.7,0,3-1.3,3-3v-3.3c0-0.6-0.4-1-1-1H9.1c-0.6,0-1,0.4-1,1v3.3
				C8.1,35.2,9.4,36.7,11.1,36.7z"/>
			<path class="st1" d="M36.8,31.5c0-0.5-1-1.1-3-1.2l0,0c0,0,0.1,0,0,0s0,0,0,0l0,0c-2,0.1-3,0.8-3,1.2v1.1c0-0.4,1.4-1.3,3-1.3
				c1.6,0.1,3,1,3,1.3V31.5z"/>
			<polygon class="st1" points="8.1,31 8.1,32.5 5.6,30.3 5.7,29.3 			"/>
		</g>
	</g>
</g>
</svg>
