<?xml version="1.0" encoding="utf-8"?>
<!-- Generator: Adobe Illustrator 19.2.1, SVG Export Plug-In . SVG Version: 6.00 Build 0)  -->
<svg version="1.1" id="Layer_1" xmlns="http://www.w3.org/2000/svg" xmlns:xlink="http://www.w3.org/1999/xlink" x="0px" y="0px"
	 viewBox="0 0 178 266" style="enable-background:new 0 0 178 266;" xml:space="preserve">
<style type="text/css">
	.st0{fill:#5180AD;}
	.st1{fill:#D1DB63;}
	.st2{fill:#F27DFF;}
	.st3{fill:#F0A054;}
	.st4{fill:#7DD6FF;}
	.st5{fill:#FFFF00;}
	.st6{fill:#00FF7B;}
	.st7{fill:#00FF8C;}
	.st8{fill:#FBD1FF;}
	.st9{fill:#E3E6CC;}
	.st10{fill:#D6F2FF;}
	.st11{fill:#F0D0B2;}
	.st12{fill:#375775;}
	.st13{fill:#3B5C7D;}
</style>
<g>
	<g>
		<path class="st0" d="M123.8,15c-19.6,15.7-48.3,14.9-71,3.2c-1.8,9.2-2.4,21-1.1,34.8c2.3,23.3,5.5,53.1,10.3,72.4
			c0,5,0.1,10.7,0.6,17c0.7,9.1-12.3,84-11.8,99.7c6.5,1.6,30.1,4.2,37.3,2.7c0.4-7.3-2.7-76.3-2.6-79.9c0.3-9.9-2.6-37.8-2.3-44.5
			c0-0.3,0-0.6,0-0.9c3.2-21.1,4-50.2,3.3-66.9c0.6,0.1,1.2,0.1,1.8,0.1c0.7,0,1.5-0.1,2.3-0.1c-0.6,14.1-0.1,37,2,56.5
			c0.1,3.2,0.5,6.7,1.3,10.6c0.1,0.6,0.2,1.2,0.3,1.8c0.5,7.4-2.5,29.4-2.5,43.4c0,5.9-3,71.5-1.3,79.5c6.9,1.8,27.9,0.8,34.8-1.2
			c0.4-15.7-11.2-91.6-10.5-100.7c0.4-6.1,0.6-11.5,0.5-16.4c4.9-19.3,8.1-49.5,10.5-73C127.1,37.5,126.2,24.6,123.8,15z"/>
		<g>
			<path class="st1" d="M111.3,222c0.1,0,0.1,0,0.2,0c-1.3-0.7-1.5-3-0.2-3.8c0.8-0.5,1.8-0.4,2.6,0.1c0.8,0.5,0.8,1.4,0.8,2.2
				c0.5-0.5,1.4-1.1,2.1-1c0.8,0.1,1.6,1,1.3,1.8c-0.2,0.5-0.6,0.8-1,1c0.5-0.1,1,0.2,1.3,0.6s0.3,1,0.1,1.4
				c-0.2,0.4-0.7,0.7-1.2,0.8c-0.6,0.1-1.1-0.2-1.6-0.2c0.2,0.6,0.1,1.2-0.3,1.7c-0.4,0.4-1.1,0.6-1.6,0.5s-1.2-0.6-1.4-1.1
				c-0.1-0.2,0.2-1.6,0.4-1.7c-0.7,0.2-1.2,0.7-2,0.5c-1-0.3-1.5-1.5-0.8-2.3c0.2-0.3,0.5-0.4,0.9-0.4
				C110.8,221.9,111.1,221.9,111.3,222z"/>
		</g>
		<g>
			<path class="st2" d="M118.5,231.4c-0.7-0.6-1.5-0.4-2.3-0.1c-0.2,0.1-0.5,0.2-0.7,0.4c-0.3,0.3-0.6,0.7-0.7,1.1
				c0,0.1-0.2,1.1-0.2,1.1c-0.5-0.3-0.9-0.5-1.5-0.3c-0.7,0.3-1.2,0.9-1.2,1.7c0,0.4,0.2,1.3,0.5,1.4c0.2,0.1,0.4,0.1,0.5,0.1
				c0.3,0,0.7,0,1-0.1c-0.9,0.3-1.8,1.1-1.4,2.1s1.2,1.8,2.3,1.7c1-0.1,1.9-0.9,2.3-1.9c0.1,0.8,0.6,1.6,1.4,1.8s1.7-0.4,2-1.2
				s-0.1-1.7-0.7-2.3c0.7,0.1,1.6,0.1,2.1-0.3c0.5-0.4,0.6-1.2,0.4-1.9c-0.3-0.6-0.9-1.1-1.5-1.3c-0.7-0.2-1.4-0.2-2,0
				c0.3,0,0.3-0.8,0.2-1C119,232,118.8,231.6,118.5,231.4z"/>
		</g>
		<g>
			<path class="st3" d="M57.6,236.9c0.1-0.1,0.1-0.1,0.2-0.2c-1.8,0.7-4.4-0.9-4.2-2.9c0.1-1.2,1.1-2.2,2.2-2.6
				c1.2-0.4,2.1,0.3,3,0.9c-0.1-0.9-0.1-2.3,0.6-3c0.8-0.8,2.3-0.8,3,0.1c0.4,0.5,0.3,1.3,0.2,1.9c0.3-0.6,1-0.9,1.7-0.9
				c0.7,0,1.3,0.5,1.5,1.1c0.3,0.6,0.2,1.4-0.2,1.9c-0.4,0.7-1.1,1-1.6,1.5c0.7,0.3,1.3,0.9,1.5,1.7c0.1,0.8-0.2,1.6-0.8,2.1
				c-0.5,0.4-1.6,0.8-2.3,0.5c-0.3-0.1-1.6-1.5-1.5-1.8c-0.3,0.9-0.2,1.9-1.1,2.5c-1.2,0.8-2.8,0.4-3.1-1c-0.1-0.4,0-0.9,0.2-1.2
				C57.1,237.4,57.4,237.2,57.6,236.9z"/>
		</g>
		<g>
			<path class="st4" d="M69,238.1c-0.4,0.7-0.1,1.3,0.3,1.9c0.1,0.2,0.3,0.4,0.4,0.5c0.3,0.2,0.7,0.4,1,0.4c0.1,0,0.9,0,0.9,0
				c-0.1,0.5-0.3,0.8,0,1.3c0.3,0.6,0.9,0.9,1.6,0.7c0.3-0.1,1-0.3,1.1-0.7c0-0.2,0-0.3,0-0.5c0-0.3-0.1-0.6-0.3-0.8
				c0.4,0.7,1.2,1.3,2,0.8s1.3-1.3,1-2.2c-0.3-0.8-1.1-1.4-1.9-1.6c0.6-0.3,1.2-0.8,1.3-1.5c0-0.7-0.6-1.4-1.3-1.5
				c-0.7-0.1-1.4,0.3-1.8,0.9c0-0.6-0.1-1.3-0.6-1.7c-0.4-0.4-1.1-0.3-1.6,0s-0.7,0.9-0.8,1.5s0.1,1.2,0.3,1.7
				c-0.1-0.2-0.7-0.1-0.9,0C69.4,237.6,69.1,237.9,69,238.1z"/>
		</g>
		<g>
			<path class="st5" d="M68.9,164.8c-0.5,2.2-1.3,4.4-2.4,6.4c-0.1,0.1-0.2,0.3-0.1,0.5c0.1,0.1,0.2,0.2,0.4,0.3
				c1.8,0.8,3.7,1.6,5.5,2.4c0.1,0.1,0.3,0.1,0.5,0.1c0.2-0.1,0.3-0.3,0.4-0.5c1.3-2.8,2.6-5.6,3.8-8.4c-2.5-0.5-5.1-1.1-7.6-1.6
				c-0.1,0-0.3,0-0.3,0c-0.1,0.1-0.1,0.2-0.1,0.2c-0.2,1-0.5,2.1-0.7,3.1"/>
			<g>
				<path class="st5" d="M68.4,164.6c-0.3,1.2-0.6,2.5-1.1,3.6c-0.4,1.1-1.1,2.1-1.4,3.2c0,0.1,0.1,0.3,0.2,0.3
					c1.3,1,3.1,1.5,4.6,2.2c0.6,0.3,1.7,1,2.4,0.7c0.9-0.4,1.3-2.2,1.6-3c0.9-2,1.9-4.1,2.8-6.1c0.1-0.2-0.2-0.4-0.4-0.5
					c-1.4-0.3-2.8-0.6-4.2-0.9c-1.1-0.2-2.5-0.8-3.6-0.7c-1.5,0.1-1.4,2.4-1.6,3.6c-0.1,0.4,0.9,0.7,1,0.3c0.1-0.5,0.4-2.9,0.7-3.1
					c0.4-0.2,1.8,0.3,2.2,0.4c1.8,0.4,3.6,0.7,5.3,1.1c-0.1-0.2-0.3-0.3-0.4-0.5c-0.8,1.8-1.6,3.6-2.4,5.4c-0.3,0.6-0.6,1.8-1,2.3
					c-1.1,1.2-1.9,0.4-3,0c-1.6-0.7-3.3-1.1-2.4-3.1c0.8-1.6,1.3-3.3,1.7-5C69.4,164.4,68.5,164.2,68.4,164.6L68.4,164.6z"/>
			</g>
		</g>
		<g>
			<g>
				<path class="st6" d="M71.8,162.6c-0.3,0.7-0.5,1.4-0.8,2c-0.2,0.4,0.8,0.7,1,0.3c0.3-0.7,0.5-1.4,0.8-2
					C72.9,162.4,71.9,162.2,71.8,162.6L71.8,162.6z"/>
			</g>
		</g>
		<g>
			<g>
				<path class="st6" d="M67.4,171.9c-0.3,0.5-0.6,1.1-0.9,1.6c-0.2,0.4,0.7,0.8,0.9,0.4c0.3-0.5,0.6-1.1,0.9-1.6
					C68.5,171.9,67.6,171.5,67.4,171.9L67.4,171.9z"/>
			</g>
		</g>
		<g>
			<g>
				<path class="st6" d="M73.4,165c0.3-0.7,0.7-1.4,1-2.2c0.2-0.4-0.8-0.7-1-0.3c-0.3,0.7-0.7,1.4-1,2.2
					C72.3,165.2,73.2,165.5,73.4,165L73.4,165z"/>
			</g>
		</g>
		<g>
			<g>
				<path class="st6" d="M69.1,172.7c-0.4,0.6-0.7,1.3-1.1,1.9c-0.2,0.4,0.7,0.8,0.9,0.4c0.4-0.6,0.7-1.3,1.1-1.9
					C70.3,172.7,69.4,172.3,69.1,172.7L69.1,172.7z"/>
			</g>
		</g>
		<g>
			<g>
				<path class="st6" d="M75.6,165.4c0.1-0.6,0.4-1.1,0.8-1.6c0.3-0.4-0.6-0.7-0.9-0.4c-0.5,0.5-0.7,1.1-0.9,1.8
					C74.6,165.6,75.6,165.8,75.6,165.4L75.6,165.4z"/>
			</g>
		</g>
		<g>
			<g>
				<path class="st6" d="M70.4,173.8c-0.2,0.5-0.5,1.1-0.7,1.6c-0.2,0.4,0.8,0.7,1,0.3c0.2-0.5,0.5-1.1,0.7-1.6
					C71.5,173.7,70.6,173.4,70.4,173.8L70.4,173.8z"/>
			</g>
		</g>
		<g>
			<g>
				<path class="st6" d="M71.9,174.3c-0.2,0.7-0.4,1.3-0.5,2c-0.1,0.4,0.9,0.7,1,0.3c0.2-0.7,0.4-1.3,0.5-2
					C72.9,174.1,72,173.9,71.9,174.3L71.9,174.3z"/>
			</g>
		</g>
		<g>
			<g>
				<path class="st6" d="M66.5,165.1c0.4,0.3,0.9,0.4,1.4,0.5c0.6,0.1,0.8-0.5,0.2-0.6c-0.4-0.1-0.8-0.2-1.2-0.4
					C66.4,164.3,65.9,164.8,66.5,165.1L66.5,165.1z"/>
			</g>
		</g>
		<g>
			<g>
				<path class="st6" d="M67.3,168.1c-0.6,0-1.2-0.2-1.7-0.7c-0.2-0.2-0.4-0.3-0.7-0.2c-0.2,0.1-0.3,0.3-0.1,0.5
					c0.7,0.7,1.6,1.1,2.6,1.1C68,168.8,67.8,168.1,67.3,168.1L67.3,168.1z"/>
			</g>
		</g>
		<g>
			<g>
				<path class="st6" d="M70.1,163.8c0-0.5,0.1-0.9,0.3-1.3c0.2-0.4-0.7-0.8-0.9-0.4c-0.3,0.5-0.4,1.1-0.4,1.7
					C69.2,164.1,70.1,164.3,70.1,163.8L70.1,163.8z"/>
			</g>
		</g>
		<g>
			<g>
				<path class="st6" d="M76.3,166.9c0.4,0,0.7,0,1,0.2c0.2,0.1,0.5,0.2,0.7,0.1c0.2-0.1,0.1-0.4-0.1-0.5c-0.6-0.4-1.3-0.5-2-0.5
					C75.3,166.3,75.8,167,76.3,166.9L76.3,166.9z"/>
			</g>
		</g>
		<g>
			<g>
				<path class="st6" d="M66.9,170.3c-0.5-0.2-0.9-0.4-1.4-0.6c-0.5-0.2-1,0.3-0.4,0.6c0.5,0.2,0.9,0.4,1.4,0.6
					C66.9,171,67.5,170.5,66.9,170.3L66.9,170.3z"/>
			</g>
		</g>
		<g>
			<g>
				<path class="st6" d="M75.9,168.2c0.4,0.1,0.8,0.2,1.2,0.4c0.6,0.2,0.8-0.5,0.2-0.6c-0.4-0.1-0.8-0.2-1.2-0.4
					C75.5,167.4,75.3,168,75.9,168.2L75.9,168.2z"/>
			</g>
		</g>
		<g>
			<g>
				<path class="st6" d="M74.9,171.2c0.4,0.1,0.8,0.2,1.2,0.4c0.6,0.2,0.8-0.5,0.2-0.6c-0.4-0.1-0.8-0.2-1.2-0.4
					C74.5,170.4,74.3,171,74.9,171.2L74.9,171.2z"/>
			</g>
		</g>
		<g>
			<g>
				<path class="st6" d="M67.9,166.4c-0.5-0.1-0.9-0.2-1.3-0.5c-0.2-0.1-0.5-0.2-0.7-0.1c-0.2,0.1-0.1,0.4,0.1,0.5
					c0.6,0.4,1.3,0.6,2.1,0.7c0.2,0,0.5-0.1,0.4-0.3C68.5,166.5,68.1,166.4,67.9,166.4L67.9,166.4z"/>
			</g>
		</g>
		<g>
			<g>
				<path class="st6" d="M68.7,163.7c-0.4,0-0.9-0.4-1.2-0.7c-0.3-0.3-1.2-0.2-0.8,0.3c0.5,0.5,1.3,1.1,2.1,1.2
					C69.5,164.4,69.3,163.7,68.7,163.7L68.7,163.7z"/>
			</g>
		</g>
		<g>
			<g>
				<path class="st6" d="M75.2,169.4c0.4,0.2,0.8,0.4,1.2,0.6c0.5,0.3,1-0.2,0.4-0.6c-0.4-0.2-0.8-0.4-1.2-0.6
					C75.2,168.6,74.7,169.1,75.2,169.4L75.2,169.4z"/>
			</g>
		</g>
		<g>
			<g>
				<path class="st6" d="M73.4,174c0.4,0.2,0.8,0.4,1.1,0.5c0.5,0.2,1-0.3,0.4-0.6c-0.4-0.2-0.8-0.4-1.1-0.5
					C73.4,173.2,72.8,173.7,73.4,174L73.4,174z"/>
			</g>
		</g>
		<g>
			<g>
				<path class="st6" d="M74.3,172.7c0.4,0.2,0.8,0.5,1.1,0.7c0.2,0.1,0.5,0.2,0.7,0.1c0.2-0.1,0.1-0.4-0.1-0.5
					c-0.4-0.2-0.8-0.5-1.1-0.7c-0.2-0.1-0.5-0.2-0.7-0.1C74.1,172.3,74.2,172.6,74.3,172.7L74.3,172.7z"/>
			</g>
		</g>
		<g>
			<g>
				<path class="st6" d="M76.1,165.4C76.1,165.4,76.1,165.5,76.1,165.4s0.1-0.1,0.1-0.2l0,0c0.2,0,0.3,0,0.5,0l0,0
					c0.1,0.1,0.3,0.2,0.4,0.4c0,0.1,0.2-0.2,0.2-0.2c0.1-0.1,0.2-0.2,0.3-0.3c0.2-0.2,0.4-0.5,0.7-0.7c0.3-0.3-0.6-0.7-0.9-0.4
					s-0.6,0.6-0.8,0.9C76.3,165,76.1,165.2,76.1,165.4s0.2,0.3,0.3,0.4c0.2,0.1,0.4,0,0.5-0.1c0.1,0,0.1-0.1,0.1-0.2l0,0
					C77,165.1,76,165,76.1,165.4L76.1,165.4z"/>
			</g>
		</g>
		<g>
			<path class="st6" d="M112.4,73.3c0.6,2.8,1.6,5.5,3,8.1c0.1,0.2,0.2,0.4,0.1,0.6s-0.3,0.3-0.4,0.4c-2.3,1-4.6,2-6.9,3
				c-0.2,0.1-0.4,0.2-0.6,0.1c-0.3-0.1-0.4-0.4-0.5-0.6c-1.6-3.5-3.2-7.1-4.8-10.6c3.2-0.7,6.4-1.3,9.6-2c0.1,0,0.3-0.1,0.4,0
				s0.1,0.2,0.1,0.3c0.3,1.3,0.6,2.6,0.9,3.9"/>
			<g>
				<path class="st7" d="M111.9,73.2c0.3,1.3,0.7,2.6,1.1,3.8c0.2,0.7,0.5,1.3,0.8,2c0.1,0.3,1.2,2,1.1,2.3
					c-0.2,1.1-3.6,2.1-4.5,2.5c-0.6,0.3-2.3,1.2-3,0.9c-0.4-0.2-0.8-1.8-1-2.2c-0.7-1.5-1.3-2.9-2-4.4c-0.3-0.7-0.8-1.5-1-2.2
					c-0.5-1.4-0.6-1.3,0.8-1.8c1.5-0.5,3.3-0.7,4.8-1c1.1-0.2,2.2-0.8,3,0.3c0.5,0.6,0.5,2.2,0.7,2.9c0.1,0.4,1.1,0.5,1,0.1
					c-0.3-1.4-0.2-4.2-1.8-4.6c-1.1-0.3-3,0.6-4.2,0.8c-1.9,0.4-3.8,0.8-5.8,1.2c-0.2,0-0.4,0.2-0.3,0.4c0.8,1.8,1.6,3.5,2.4,5.3
					c0.8,1.6,1.4,3.8,2.4,5.3c1,1.3,1.7,0.8,3.2,0.2c1.6-0.7,3.2-1.4,4.8-2.1c0.4-0.2,1.4-0.5,1.5-1c0.1-0.9-1-2.3-1.3-3
					c-0.8-1.8-1.4-3.7-1.8-5.6C112.8,72.9,111.8,72.8,111.9,73.2L111.9,73.2z"/>
			</g>
		</g>
		<g>
			<g>
				<path class="st5" d="M107.6,70.8c0.3,0.8,0.6,1.7,1,2.5c0.1,0.4,1.1,0.4,0.9-0.1c-0.3-0.8-0.6-1.7-1-2.5
					C108.4,70.3,107.4,70.3,107.6,70.8L107.6,70.8z"/>
			</g>
		</g>
		<g>
			<g>
				<path class="st5" d="M113.2,82.6c0.4,0.7,0.7,1.4,1.1,2.1c0.2,0.4,1.2,0.4,0.9-0.1c-0.4-0.7-0.7-1.4-1.1-2.1
					C113.9,82.1,112.9,82.1,113.2,82.6L113.2,82.6z"/>
			</g>
		</g>
		<g>
			<g>
				<path class="st5" d="M107.7,73.4c-0.4-0.9-0.9-1.8-1.3-2.7c-0.2-0.4-1.2-0.4-0.9,0.1c0.4,0.9,0.9,1.8,1.3,2.7
					C106.9,73.9,107.9,73.9,107.7,73.4L107.7,73.4z"/>
			</g>
		</g>
		<g>
			<g>
				<path class="st5" d="M111,83.5c0.5,0.8,0.9,1.6,1.4,2.4c0.2,0.4,1.2,0.4,0.9-0.1c-0.5-0.8-0.9-1.6-1.4-2.4
					C111.7,83.1,110.7,83.1,111,83.5L111,83.5z"/>
			</g>
		</g>
		<g>
			<g>
				<path class="st5" d="M105,73.9c-0.1-0.9-0.5-1.6-1.1-2.3c-0.3-0.3-1.2-0.2-0.8,0.3c0.5,0.5,0.8,1.2,0.9,1.9
					C104,74.3,105,74.4,105,73.9L105,73.9z"/>
			</g>
		</g>
		<g>
			<g>
				<path class="st5" d="M109.4,84.9c0.3,0.7,0.6,1.4,0.9,2.1c0.2,0.4,1.1,0.4,0.9-0.1c-0.3-0.7-0.6-1.4-0.9-2.1
					C110.2,84.4,109.2,84.4,109.4,84.9L109.4,84.9z"/>
			</g>
		</g>
		<g>
			<g>
				<path class="st5" d="M107.5,85.4c0.2,0.8,0.4,1.7,0.7,2.5c0.1,0.4,1.1,0.5,1,0.1c-0.2-0.8-0.4-1.7-0.7-2.5
					C108.4,85.1,107.4,84.9,107.5,85.4L107.5,85.4z"/>
			</g>
		</g>
		<g>
			<g>
				<path class="st5" d="M114.8,73.1c-0.4,0.3-0.9,0.4-1.4,0.5c-0.6,0.1-0.1,0.8,0.3,0.7c0.7-0.1,1.2-0.3,1.8-0.7
					C116,73.4,115.1,72.9,114.8,73.1L114.8,73.1z"/>
			</g>
		</g>
		<g>
			<g>
				<path class="st5" d="M114.5,78.2c1.1,0,2.1-0.4,2.9-1.2c0.4-0.4-0.4-0.8-0.7-0.6c-0.7,0.7-1.5,1-2.5,1c-0.2,0-0.4,0.2-0.3,0.4
					C114,78.2,114.3,78.3,114.5,78.2L114.5,78.2z"/>
			</g>
		</g>
		<g>
			<g>
				<path class="st5" d="M103.2,75.2c-0.8-0.1-1.5,0.1-2.2,0.5c-0.5,0.3,0.4,0.8,0.7,0.6c0.5-0.3,1-0.4,1.6-0.3
					c0.2,0,0.5-0.1,0.4-0.3C103.7,75.4,103.4,75.3,103.2,75.2L103.2,75.2z"/>
			</g>
		</g>
		<g>
			<g>
				<path class="st5" d="M115.4,80.9c0.6-0.2,1.1-0.5,1.7-0.7s-0.2-0.8-0.6-0.6c-0.6,0.2-1.1,0.5-1.7,0.7
					C114.3,80.5,115,81.1,115.4,80.9L115.4,80.9z"/>
			</g>
		</g>
		<g>
			<g>
				<path class="st5" d="M103.1,76.9c-0.5,0.1-1,0.3-1.5,0.4c-0.6,0.2,0.2,0.8,0.6,0.6c0.5-0.1,1-0.3,1.5-0.4
					C104.3,77.4,103.6,76.8,103.1,76.9L103.1,76.9z"/>
			</g>
		</g>
		<g>
			<g>
				<path class="st5" d="M104.4,80.7c-0.5,0.1-1,0.3-1.5,0.4c-0.6,0.2,0.2,0.8,0.6,0.6c0.5-0.1,1-0.3,1.5-0.4
					C105.5,81.1,104.8,80.5,104.4,80.7L104.4,80.7z"/>
			</g>
		</g>
		<g>
			<g>
				<path class="st5" d="M113.7,76.1c0.8-0.1,1.6-0.4,2.3-0.8c0.5-0.3-0.4-0.8-0.7-0.6c-0.6,0.4-1.2,0.6-1.9,0.7
					C112.7,75.5,113.2,76.1,113.7,76.1L113.7,76.1z"/>
			</g>
		</g>
		<g>
			<g>
				<path class="st5" d="M112.6,72.7c0.8,0,1.8-0.7,2.3-1.3c0.3-0.3-0.6-0.7-0.9-0.4c-0.4,0.4-1.2,1-1.8,1.1c-0.2,0-0.4,0.2-0.3,0.4
					C112.1,72.6,112.4,72.7,112.6,72.7L112.6,72.7z"/>
			</g>
		</g>
		<g>
			<g>
				<path class="st5" d="M103.7,78.5c-0.5,0.3-1,0.5-1.5,0.8c-0.2,0.1-0.1,0.4,0.1,0.5c0.2,0.2,0.5,0.2,0.7,0.1
					c0.5-0.3,1-0.5,1.5-0.8c0.2-0.1,0.1-0.4-0.1-0.5C104.2,78.4,103.9,78.4,103.7,78.5L103.7,78.5z"/>
			</g>
		</g>
		<g>
			<g>
				<path class="st5" d="M106.1,84.2c-0.5,0.2-1,0.4-1.4,0.7c-0.6,0.3,0.2,0.8,0.6,0.6c0.5-0.2,1-0.4,1.4-0.7
					C107.2,84.6,106.5,84,106.1,84.2L106.1,84.2z"/>
			</g>
		</g>
		<g>
			<g>
				<path class="st5" d="M104.7,82.7c-0.5,0.3-1,0.6-1.4,0.9c-0.5,0.3,0.4,0.8,0.7,0.6c0.5-0.3,1-0.6,1.4-0.9
					C105.9,83,105.1,82.5,104.7,82.7L104.7,82.7z"/>
			</g>
		</g>
		<g>
			<g>
				<path class="st5" d="M102.1,74.1L102.1,74.1c0,0.2,0,0.3,0.2,0.4s0.4,0.2,0.7,0.1c0.1,0,0.2-0.1,0.2-0.3c0-0.3-0.4-0.7-0.6-0.9
					c-0.3-0.4-0.7-0.7-1-1.1c-0.2-0.2-0.5-0.3-0.7-0.2c-0.2,0.1-0.3,0.3-0.1,0.5c0.3,0.3,0.5,0.5,0.8,0.8c0.1,0.1,0.7,0.6,0.7,0.8
					c0.1-0.1,0.1-0.2,0.2-0.3l0,0c0.2,0,0.4,0.1,0.6,0.1l0,0c0.1,0.1,0.1,0.2,0.2,0.3l0,0C103.2,73.9,102.2,73.6,102.1,74.1
					L102.1,74.1z"/>
			</g>
		</g>
		<g>
			<path class="st8" d="M117.9,233.4c-0.4-0.3-0.8-0.2-1.2,0c-0.1,0.1-0.3,0.1-0.4,0.2c-0.2,0.1-0.3,0.4-0.4,0.6
				c0,0.1-0.1,0.6-0.1,0.6c-0.3-0.1-0.5-0.3-0.8-0.2c-0.4,0.1-0.6,0.5-0.6,0.9c0,0.2,0.1,0.7,0.3,0.7c0.1,0,0.2,0,0.3,0
				c0.2,0,0.4,0,0.5-0.1c-0.5,0.1-0.9,0.6-0.7,1.1c0.2,0.5,0.6,1,1.2,0.9c0.5-0.1,1-0.5,1.2-1c0.1,0.4,0.3,0.8,0.7,0.9
				c0.4,0.1,0.9-0.2,1-0.6c0.1-0.4,0-0.9-0.3-1.2c0.4,0,0.8,0.1,1.1-0.2c0.3-0.2,0.3-0.6,0.2-1c-0.1-0.3-0.5-0.6-0.8-0.7
				c-0.3-0.1-0.7-0.1-1.1,0c0.1,0,0.1-0.4,0.1-0.5C118.1,233.8,118,233.6,117.9,233.4z"/>
		</g>
		<g>
			<path class="st9" d="M112.5,222.2L112.5,222.2c-0.6-0.4-0.7-1.6,0-2c0.4-0.3,1-0.2,1.4,0.1s0.4,0.7,0.4,1.2
				c0.2-0.3,0.7-0.6,1.1-0.5c0.4,0,0.8,0.5,0.7,1c-0.1,0.2-0.3,0.4-0.5,0.5c0.3,0,0.5,0.1,0.7,0.3c0.1,0.2,0.2,0.5,0,0.8
				c-0.1,0.2-0.4,0.4-0.7,0.4c-0.3,0-0.6-0.1-0.9-0.1c0.1,0.3,0.1,0.6-0.2,0.9c-0.2,0.2-0.6,0.3-0.9,0.3c-0.3-0.1-0.6-0.3-0.7-0.6
				c0-0.1,0.1-0.9,0.2-0.9c-0.4,0.1-0.6,0.4-1,0.3c-0.6-0.2-0.8-0.8-0.4-1.2c0.1-0.1,0.3-0.2,0.5-0.2
				C112.2,222.1,112.3,222.2,112.5,222.2z"/>
		</g>
		<g>
			<path class="st10" d="M70.5,238.3c-0.2,0.4,0,0.8,0.2,1.2c0.1,0.1,0.2,0.2,0.3,0.3c0.2,0.1,0.4,0.2,0.6,0.3c0.1,0,0.6,0,0.6,0
				c-0.1,0.3-0.2,0.5,0,0.8c0.2,0.4,0.6,0.5,1,0.4c0.2,0,0.6-0.2,0.7-0.4c0-0.1,0-0.2,0-0.3c0-0.2-0.1-0.4-0.2-0.5
				c0.2,0.4,0.7,0.8,1.2,0.5s0.8-0.8,0.6-1.4c-0.2-0.5-0.7-0.8-1.2-1c0.4-0.2,0.7-0.5,0.8-0.9c0-0.4-0.4-0.8-0.8-0.9
				c-0.4-0.1-0.9,0.2-1.1,0.6c0-0.4-0.1-0.8-0.4-1s-0.7-0.2-1,0s-0.5,0.5-0.5,0.9c0,0.3,0.1,0.7,0.2,1c-0.1-0.1-0.4-0.1-0.5,0
				C70.7,238,70.6,238.1,70.5,238.3z"/>
		</g>
		<g>
			<path class="st11" d="M58.9,235.7C58.9,235.7,59,235.6,58.9,235.7c-0.7,0.2-1.9-0.5-1.8-1.4c0.1-0.6,0.5-1,1-1.2s0.9,0.1,1.3,0.4
				c-0.1-0.4,0-1,0.3-1.4c0.4-0.4,1-0.4,1.3,0.1c0.2,0.2,0.2,0.6,0.1,0.9c0.2-0.3,0.5-0.4,0.8-0.4s0.6,0.2,0.7,0.5
				c0.1,0.3,0.1,0.6-0.1,0.9c-0.2,0.3-0.5,0.4-0.7,0.7c0.3,0.1,0.6,0.4,0.7,0.8c0.1,0.4-0.1,0.7-0.4,1c-0.2,0.2-0.7,0.3-1,0.2
				c-0.1,0-0.7-0.7-0.7-0.8c-0.1,0.4-0.1,0.8-0.5,1.1c-0.5,0.4-1.3,0.2-1.4-0.5c0-0.2,0-0.4,0.1-0.6
				C58.7,235.9,58.8,235.8,58.9,235.7z"/>
		</g>
		<g>
			<g>
				<path class="st12" d="M66.9,37.5c-1.1,6-4.6,10.5-8.1,15.3c-1.3,1.8,1.7,3.5,3,1.8c3.8-5,7.1-10.4,7.6-16.7
					C69.5,36.4,67.2,36.1,66.9,37.5L66.9,37.5z"/>
			</g>
		</g>
		<g>
			<g>
				<path class="st12" d="M111.9,37.1c-0.1,6.9,1.6,13.7,5.6,19.3c1.3,1.7,4.2,0.1,2.9-1.7c-3.8-5.3-6.2-11-6.4-17.6
					C114,35.7,111.9,35.7,111.9,37.1L111.9,37.1z"/>
			</g>
		</g>
		<g>
			<path class="st5" d="M123.4,21.6c0.3-2.1,2.5-4.6,0.4-6.6c-1.2-1.1-3.1-0.7-4.7-1c-20.4-2.9-41.1,6.7-61.5,4
				c-1-0.1-2.1-0.3-3,0.2c-3,1.5-1.8,9.2,1.5,9.7c1.6,0.2,3.3-1.2,3.5-2.8c0.5,1.4,1.3,2.8,2.6,3.4c1.4,0.5,3.3-0.6,2.9-2
				c0.3,1.3,0.6,2.6,1.6,3.4s2.9,0.4,3-0.9c-0.3,1.2,0.5,2.7,1.7,3.1s2.7-0.4,3.1-1.7c0.1,1.5,0.9,3,2.3,3.5s3.2-0.7,2.9-2.1
				c0.7,1.2,2.2,2,3.6,1.7c1.4-0.2,2.6-1.4,2.8-2.9c-0.3,1.5,1.2,3,2.7,2.9c1.5,0,2.8-1.3,3.2-2.8c-0.3,1.5,1.3,2.8,2.8,2.6
				s2.6-1.5,3-3c0.1,1.3,1.2,2.4,2.5,2.4s2.5-0.9,2.7-2.2c0.9,1.2,2.6,1.7,4,1.2s2.4-2.1,2.2-3.6c0.1,1.5,2.1,2.3,3.5,1.5
				s1.8-2.4,1.7-3.9c0.5,1.1,1.4,2.3,2.6,2c1.7-0.5,0.9-3.5,2.5-4.3c0.1,1.1,1.6,1.5,2.5,0.9C123,23.8,123.3,22.7,123.4,21.6z"/>
		</g>
		<g>
			<path class="st3" d="M123.4,18.6c0.3-2.1,0-2.4-2.1-4.4c-1.2-1.1-5.8,1.6-7.4,1.4c-20.4-2.9-35.9,2.1-56.4-0.5
				c-1-0.1-2.1-0.3-3,0.2c-3,1.5-1.8,9.2,1.5,9.7c1.6,0.2,3.3-1.2,3.5-2.8c0.5,1.4,1.3,2.8,2.6,3.4c1.4,0.5,3.3-0.6,2.9-2
				c0.3,1.3,0.6,2.6,1.6,3.4s2.9,0.4,3-0.9c-0.3,1.2,0.5,2.7,1.7,3.1s2.7-0.4,3.1-1.7c0.1,1.5,0.9,3,2.3,3.5s3.2-0.7,2.9-2.1
				c0.7,1.2,2.2,2,3.6,1.7c1.4-0.2,2.6-1.4,2.8-2.9c-0.3,1.5,1.2,3,2.7,2.9c1.5,0,2.8-1.3,3.2-2.8c-0.3,1.5,1.3,2.8,2.8,2.6
				c1.5-0.2,2.6-1.5,3-3c0.1,1.3,1.2,2.4,2.5,2.4c1.3,0.1,2.5-0.9,2.7-2.2c0.9,1.2,2.6,1.7,4,1.2s2.4-2.1,2.2-3.6
				c0.1,1.5,2.1,2.3,3.5,1.5s1.8-2.4,1.7-3.9c0.5,1.1,1.4,2.3,2.6,2c1.7-0.5,0.9-3.5,2.5-4.3c0.1,1.1,1.6,1.5,2.5,0.9
				C123,20.8,123.3,19.7,123.4,18.6z"/>
		</g>
		<path class="st13" d="M52.8,18.2c22.7,11.7,51.4,12.5,71-3.2c-0.8-3.1-21.2-5.1-34.5-4.6S56.1,11,52.8,18.2z"/>
	</g>
</g>
</svg>
