<?xml version="1.0" encoding="utf-8"?>
<!-- Generator: Adobe Illustrator 19.2.1, SVG Export Plug-In . SVG Version: 6.00 Build 0)  -->
<svg version="1.1" id="Layer_1" xmlns="http://www.w3.org/2000/svg" xmlns:xlink="http://www.w3.org/1999/xlink" x="0px" y="0px"
	 viewBox="0 0 178 499" style="enable-background:new 0 0 178 499;" xml:space="preserve">
<style type="text/css">
	.st0{fill:#E6C8C0;}
	.st1{fill:#F5D5CD;}
</style>
<g>
	<path class="st0" d="M137.1,468.1c-2.1-0.9-8.5-5.2-14.5-9.7c-5.9-4.3-10.7-13-10.5-16.5c0-0.9,0-1.7-0.2-2.4
		c1.7-17.1,2.2-43.7,2.8-65.3c0-0.2,0-0.4,0-0.6c0-0.6,0-1.1,0-1.7c0-0.3,0-0.6,0-0.8c0-0.5,0-1,0-1.5c0-0.3,0-0.7,0-1
		c0-0.7,0-1.4,0.1-2c0-0.5,0-1,0-1.5c0-0.4,0-0.7,0-1.1s0-0.8,0-1.2c0-0.4,0-0.7,0-1.1s0-0.8,0-1.2c0-0.3,0-0.7,0-1
		c0-0.4,0-0.8,0-1.3c0-0.3,0-0.6,0-0.9c0-0.7,0.1-1.3,0.1-1.9c0-0.2,0-0.4,0-0.6c0-0.5,0-0.9,0.1-1.3c0-0.2,0-0.5,0-0.7
		c0-0.4,0-0.8,0.1-1.2c0-0.2,0-0.5,0-0.7c0-0.4,0-0.8,0.1-1.2c0-0.2,0-0.4,0-0.6c0-0.6,0.1-1.1,0.1-1.6c0.5-6.8,0.8-12.8,0.8-17.8
		c4.7-19.3,7.8-48.6,10.1-71.6c1.5-15.4,0.6-28.4-1.8-38c-19.6,15.7-48.3,14.9-71.1,3.2c-1.8,9.2-2.4,21-1.1,34.8
		c2.3,22.9,5.4,52.2,10.1,71.5c0.1,5.1,0.3,11,0.8,17.9c0.1,0.9,0.1,1.8,0.2,2.8c0,0.1,0,0.2,0,0.2c0,0.4,0.1,0.9,0.1,1.4
		c0,0.1,0,0.2,0,0.3c0,0.5,0.1,1,0.1,1.5l0,0c0.1,1.6,0.2,3.3,0.2,5.1c0,0.1,0,0.2,0,0.3c0,0.5,0,1.1,0.1,1.6c0,0.2,0,0.3,0,0.5
		c0,0.5,0,1.1,0.1,1.7c0,0.1,0,0.2,0,0.4c0.1,2.6,0.2,5.2,0.2,8c0,0.1,0,0.2,0,0.3c0,0.7,0,1.3,0.1,2c0,0.1,0,0.2,0,0.3
		c0.6,22.9,1.1,51.4,3.1,68.3c-0.2,3.8-4.8,12-10.5,16.1c-6.1,4.4-12.4,8.7-14.5,9.7c-6.8,3-12.3,6.4-11.7,9.5
		c1.5,7.3,21.6,7.9,27.1,1.9c6-6.4,19.6-7.6,21.6-12.6c1.8-4.4-1.5-17-0.7-24.8c4.4-18.5,6.4-48.7,7.2-64.9V377c0-0.7,0.1-1.4,0.1-2
		v-0.1c0-0.6,0-1.2,0.1-1.8V373c0-0.6,0-1.1,0.1-1.6v-0.1c0-0.5,0-1,0-1.4c0.2-6.3-0.1-12.6-0.8-18.9c-0.7-10.6-1.6-21.7-1.4-25.6
		c0-0.3,0-0.6,0-0.9c3.2-21.1,4.1-51.7,3.4-68.4c0.6,0.1,1.2,0.1,1.8,0.1c0.7,0,1.5-0.1,2.3-0.1c-0.6,14.1-0.2,38.5,1.9,58
		c0.1,3.2,0.5,6.7,1.3,10.6c0.1,0.6,0.2,1.2,0.3,1.8c0.5,7.4-3.4,29.4-2.5,43.4c0.4,12.6,2.4,53.4,8.1,74.7c0,7.7-2.4,18.3-0.8,22.3
		c2,5,15.7,6.1,21.6,12.6c5.6,6,25.6,5.5,27.1-1.9C149.4,474.5,143.8,471.1,137.1,468.1z"/>
	<path class="st0" d="M50.5,182.3c4.4-7.7,8.7-17.6,11.3-24c0.1-0.2,0.2-0.4,0.2-0.6c5.7,11.8,6.3,25.4,2.7,34.8
		c-5.1,13.2-10.1,22-10.8,31c22.5,11.5,51,12.2,70.5-3.1c-1.3-8.1-6.2-16.3-10.7-27.9c-3-7.8-2.2-23,0-34c2.3,6.7,5.4,18.2,8.6,25.1
		c0,0.4,0,0.9,0,1.3l0,0c0,0.5,0,1,0,1.5c0,0.1,0,0.2,0,0.3c0,0.4,0,0.9,0,1.3c0,0.1,0,0.1,0,0.2c0,0.5,0,1,0,1.5c0,0.1,0,0.1,0,0.2
		c0,0.5,0,0.9,0,1.3c0,0.1,0,0.1,0,0.2c0,0.5,0,1,0.1,1.5l0,0c0,0.5,0,1,0.1,1.4v0.1c0.2,3.6,0.4,6.8,0.7,8.6
		c0.7,4.9,1.9,13.6,3.5,21.1l0,0c0,0,0,0,0,0.1c0.3,1.5,0.7,2.9,1,4.3c1,4.9,1.4,10-2,14c-2.3,2.7-1.9,7.7-2.6,10.8
		c-0.7,2.7-3.3,8.2-2.2,8.7c2.4,1.1,5.4-8,8.3-6.7c0.4,0.2-0.3,5.7-2.9,8.2c-1.7,1.6-3.1,2.1-4.3,2.6c-3,1.3-2.3,3.1-0.2,3
		c1.3,0,5-1.2,7.9-3.3c2-1.5,3.3-5.4,4.5-7.9c2.9-5.9,2-22.1,3.4-30.7c0,0,0,0,0-0.1c1.1-7.9,1-18.5,0.7-24.8
		c-0.1-2-0.3-4.5-0.6-7.2l0,0c0-0.1,0-0.1,0-0.2c0-0.4-0.1-0.8-0.1-1.1c0-0.1,0-0.2,0-0.3c-0.1-0.4-0.1-0.9-0.2-1.4V192
		c-0.1-0.4-0.1-0.8-0.2-1.3c0-0.1,0-0.2,0-0.3c-0.1-0.5-0.1-0.9-0.2-1.4v-0.1c-0.1-0.4-0.1-0.9-0.2-1.3c0-0.1,0-0.2,0-0.2
		c-0.1-0.5-0.1-0.9-0.2-1.4c0,0,0,0,0-0.1c-0.1-0.4-0.1-0.8-0.2-1.3c0-0.1,0-0.2,0-0.3c-0.1-0.4-0.1-0.9-0.2-1.3v-0.1
		c-0.1-0.4-0.1-0.8-0.2-1.1c0-0.1,0-0.2,0-0.3c-0.1-0.4-0.1-0.8-0.2-1.1v-0.1c-0.1-0.3-0.1-0.7-0.2-1c0-0.1,0-0.2,0-0.2
		c-0.1-0.3-0.1-0.7-0.2-1c0,0,0,0,0-0.1c-0.1-0.3-0.1-0.6-0.2-0.8c0-0.1,0-0.1,0-0.2c-0.1-0.3-0.1-0.5-0.2-0.8l0,0
		c0-0.2-0.1-0.4-0.1-0.6c0-0.1,0-0.1,0-0.2c0-0.2-0.1-0.4-0.1-0.5s0-0.1-0.1-0.2c-0.7-7.8-2-16.3-3-22.4c-1.2-7.8-3.2-19.7-7.1-27.5
		c-0.4-1.1-1-2.1-1.8-3c-1.4-2.1-3.1-3.6-5-4.4c-4.2-2.7-16-6-16-6c0-0.1-2.6-0.7-4.2-0.9c-0.1,0-0.1-0.8-0.1-1.2V80.7l-0.4-0.4
		H81.4v29.5c0,0.2,0.1,0.7-0.3,0.7c-1.8,0.1-4.7,0.6-4.7,0.7l0,0c-6,0.9-11.4,2.6-15.5,5.2c-9.3,4.2-15.3,24.9-17.8,35.8
		c-2.4,10.7-7.2,29.2-5.8,37.3C38.2,191.2,50.5,182.3,50.5,182.3z"/>
	<g>
		<path class="st1" d="M67,115.6c12.8,3.2,0.6,29.9-4.5,42.4c-5,12.2-17.5,37-23.6,34.7s1.9-27.4,4.9-40.8
			C46.7,139.1,54.8,112.6,67,115.6z"/>
	</g>
</g>
</svg>
