<?xml version="1.0" encoding="utf-8"?>
<!-- Generator: Adobe Illustrator 19.2.1, SVG Export Plug-In . SVG Version: 6.00 Build 0)  -->
<svg version="1.1" id="Layer_1" xmlns="http://www.w3.org/2000/svg" xmlns:xlink="http://www.w3.org/1999/xlink" x="0px" y="0px"
	 viewBox="0 0 178 499" style="enable-background:new 0 0 178 499;" xml:space="preserve">
<style type="text/css">
	.st0{fill:#E6C8C0;}
</style>
<g>
	<g>
		<path class="st0" d="M141.5,471.5c-2.3-1-9.1-5.6-15.6-10.4c-6.3-4.6-11.4-13.9-11.3-17.7c2.6-24.6,1.9-68,3.3-85.7
			c0.6-7.7,0.8-14.1,0.8-19.4c5.8-16,9.9-44.5,9.9-85.8c0-15.4-2-26.9-5.1-34.3c-0.7-2.5-1.5-4.9-2.4-7.4
			c-3.5-9.1-0.7-23.8,3.7-39.1c3.1,4.6,6.8,15.3,11,26.3c-0.7,6.2-0.7,14.8,0.3,26.1c0.7,7.3,1.6,17.1,3.1,24.7
			c0.1,3.2-0.4,6.3-2.3,8.9c-2.5,3.5-1.6,9.4-2.2,13.2c-0.6,3.3-3.2,10.1-1.8,10.6c2.9,1.1,5.8-10,9.3-8.8c0.5,0.2,0.1,6.8-2.8,10
			c-1.9,2.1-3.5,2.8-4.9,3.5c-3.5,1.8-2.5,3.9,0,3.7c1.5-0.1,5.9-1.9,9.2-4.6c2.3-1.9,3.5-6.8,4.7-9.8c1.8-4.5,1.2-13.4,0.7-22
			c1.6-7.6,2.1-19.6,2.6-30.4c0.5-11-0.6-20.1-2.5-26.6c1.3-9.1-0.5-24.8-3.6-42c-2-11.1-5-19.8-8.4-26.1c-0.7-2.8-2.5-5.2-5.1-7.4
			c-2.9-3.2-21.9-10.2-33.2-10.4V78h-20v32.6c-10,0.7-20.8,3.3-25.3,5.8s-8.3,4.6-11.9,11s-6.9,15.4-9,27.3
			c-2.9,16.5-4.8,31.5-3.7,40.8c-2.5,5.6-1.5,16.2-0.9,26.1c0.5,8.1,1.1,22.4,3.3,31.6c-0.5,8.7-1.2,17.8,0.6,22.5
			c1.2,3,2.4,7.9,4.7,9.8c3.3,2.7,7.7,4.5,9.2,4.6c2.6,0.2,3.5-1.8,0-3.7c-1.4-0.7-3-1.4-4.9-3.5c-2.9-3.2-3.3-9.8-2.8-10
			c3.6-1.3,6.4,9.9,9.3,8.8c1.4-0.5-1.3-7.3-1.8-10.6c-0.6-3.8,0.3-9.7-2.2-13.2c-1.2-1.7-1.8-3.6-2.1-5.6c0.6-4.2,1-9.3,1.3-14.3
			c0.2-1.4,0.6-14.6,0.8-17.6c0.5-7.8,0.7-16.4-1-22.2c3.8-6.3,7.6-16.3,11.2-26.6c4.5,15.3,7.4,30,3.8,39.3
			c-3.2,8.3-4.5,17.4-3.7,25.9c-0.4,4.2-0.7,8.9-0.7,14c-0.2,43,4.1,72.2,10.2,88.1c-0.1,5.1,0.1,11.3,0.7,18.7
			c1.4,18.3,0.6,64.4,3.6,88.4c-1.4,4.5-5.7,11.3-10.8,15c-6.5,4.8-13.3,9.4-15.6,10.4c-7.3,3.2-13.3,6.9-12.6,10.2
			c1.6,7.9,23.2,8.5,29.2,2c6.4-6.9,21.1-8.2,23.3-13.5c1.5-3.8-0.4-13.1-0.8-21c5.4-19.5,7.4-56.4,8.7-67.9
			c1.6-14.4-0.9-29.9-4.9-41.9c4.1-18.6,4.9-50.9,4.1-69.5c0.3,0,1.2-3.9,1.5-3.9c1.7,0,2.1,0.1,3.7,0c-0.8,20.5,0.7,61.6,6,78.7
			c-2.7,11.2-4.1,24.5-2.7,37c1.3,11.8,1,49.9,5.9,68.9c-0.5,7.5-2.2,16-0.7,19.6c2.2,5.3,16.8,6.6,23.3,13.5c6,6.5,27.5,5.9,29.2-2
			C154.8,478.4,148.8,474.7,141.5,471.5z"/>
	</g>
</g>
</svg>
