<?xml version="1.0" encoding="utf-8"?>
<!-- Generator: Adobe Illustrator 19.2.1, SVG Export Plug-In . SVG Version: 6.00 Build 0)  -->
<svg version="1.1" id="Layer_1" xmlns="http://www.w3.org/2000/svg" xmlns:xlink="http://www.w3.org/1999/xlink" x="0px" y="0px"
	 viewBox="0 0 178 123" style="enable-background:new 0 0 178 123;" xml:space="preserve">
<style type="text/css">
	.st0{fill:#C7A241;}
	.st1{fill:#E6C8C0;}
	.st2{fill:#DEB855;}
	.st3{fill:#F5D5CD;}
	.st4{fill:#E9C76C;}
</style>
<g>
	<g>
		<g>
			<g>
				<path class="st0" d="M69.8,65.2c-5.1,2.5,51.5,21.9,38.4,31.5C97.9,104.2,81,103,71.4,99s-23.9-13.9-20-23.5s4.1-10.6,6.7-25.8
					C60.6,34.4,78.2,49.9,69.8,65.2z"/>
				<path class="st1" d="M123.4,125.8c-0.4-1.1-1-2.1-1.8-3c-1.4-2.1-3.1-3.6-5-4.4c-4.2-2.7-16-6-16-6c0-0.1-2.6-0.7-4.2-0.9
					c-0.1,0-0.1-0.8-0.1-1.2V81.2l-0.4-0.4H80.4v29.5c0,0.2,0.1,0.7-0.3,0.7c-1.8,0.1-4.7,0.6-4.7,0.7l0,0c-6,0.9-11.4,2.6-15.5,5.2
					c-3.8,1.7-7,6.2-9.7,11.6L123.4,125.8z"/>
				<path class="st2" d="M111.3,65.2c5.1,2.5,4.9,18.6-7.1,29.5c-5.3,4.8-2.7,6.5,5.6,3.1s21-11.2,17-20.8c-3.9-9.6-6.2-24-8.3-33.2
					C116.3,34.6,102.8,49.9,111.3,65.2z"/>
				<path class="st2" d="M58.3,42.4c-0.5,9-3,18.7-3.8,23.5s17.2,8.2,17.2,8.2S74.3,38.8,58.3,42.4z"/>
				<path class="st3" d="M88.3,20.8c30,0,32,35.2,25.9,58.7c-3.1,11.9-16.8,22.4-25.9,22.4c-9.3,0-22.9-11.5-26.7-24.4
					C54.9,54.4,58.9,20.8,88.3,20.8z"/>
				<g>
					
						<ellipse transform="matrix(0.9799 -0.1995 0.1995 0.9799 -11.7796 12.8956)" class="st3" cx="58.1" cy="64.9" rx="3.6" ry="7.4"/>
					
						<ellipse transform="matrix(0.1995 -0.9799 0.9799 0.1995 30.472 167.2395)" class="st3" cx="117.6" cy="65" rx="7.4" ry="3.6"/>
				</g>
				<path class="st2" d="M60.9,58.7C62,43.9,72.5,47.4,79.2,31.5c2.5-6,21.7-1.7,26.3,2.9c6.3,6.3,9.9,20.7,9.8,26.8
					c-0.1,6,3.1,0.4,3.3-2.2c0.2-3.1,2.5-11.7-2.4-23.5c-6.6-15.5-30.4-26.1-45.5-12C50.3,30.6,59.7,74.4,60.9,58.7z"/>
				<path class="st2" d="M117.5,67.9c-2.1-15.1-38.4-25.2-45.6-38.7C96,9.9,127.2,28,117.5,67.9z"/>
				<path class="st4" d="M119.3,52.7c-8,9.1-35.6-5.2-47.2-26.5C82.9,36,102.1,49,119.3,52.7z"/>
				<path class="st4" d="M112.3,40.6c-4,7.8-27.4,0.1-39.3-12.9C82.3,32.7,99.6,41.1,112.3,40.6z"/>
				<path class="st4" d="M60.1,52c-4.2-3.4,2.6-22.3,13.7-24.6C67.1,34.7,61.5,44.2,60.1,52z"/>
				<path class="st4" d="M105.8,27.9C103.8,20.4,79,16,73,26.7C84.2,21.9,98.7,24.5,105.8,27.9z"/>
			</g>
		</g>
	</g>
</g>
</svg>
