<?xml version="1.0" encoding="utf-8"?>
<!-- Generator: Adobe Illustrator 19.2.1, SVG Export Plug-In . SVG Version: 6.00 Build 0)  -->
<svg version="1.1" id="Layer_1" xmlns="http://www.w3.org/2000/svg" xmlns:xlink="http://www.w3.org/1999/xlink" x="0px" y="0px"
	 viewBox="0 0 178 499" style="enable-background:new 0 0 178 499;" xml:space="preserve">
<style type="text/css">
	.st0{fill:#F5D5CD;}
</style>
<g>
	<path class="st0" d="M36.7,189.4c-0.7-8.3,14.1-11,24.1-10.3c9.9,0.7,35.8-0.2,36.5,4.4c1,6.3-23.7,8.7-34.6,11
		C52.7,196.6,37.4,197,36.7,189.4z"/>
	<path class="st0" d="M86.7,180.1c3.7,0.2,9.2-4.7,13.8-6.6c12.8-5.3,1.5,2.3,2.2,2.4c1.5,0.3,3.5,0.6,6.8,0.7
		c2.4,0.1,2.5,1.7,1.7,2.3c-0.6,0.5-0.5,1-0.4,1.2c1.1,1.2,0.4,2.7-0.6,3c-0.8,0.3-0.8,0.9-0.4,1.6c0.6,0.7,0.8,1.7,0.2,2.4
		c-0.6,0.7-2.9,0.6-1.7,1.5c1.4,1.2,0.8,2,0.1,2.5c-1.6,1-14.9-3.1-20-1.8C84.4,190.6,83,179.8,86.7,180.1z"/>
</g>
</svg>
