<?xml version="1.0" encoding="utf-8"?>
<!-- Generator: Adobe Illustrator 19.2.1, SVG Export Plug-In . SVG Version: 6.00 Build 0)  -->
<svg version="1.1" id="Layer_1" xmlns="http://www.w3.org/2000/svg" xmlns:xlink="http://www.w3.org/1999/xlink" x="0px" y="0px"
	 viewBox="0 0 178 75" style="enable-background:new 0 0 178 75;" xml:space="preserve">
<style type="text/css">
	.st0{fill:#97574B;}
	.st1{fill:#EBC21F;}
	.st2{fill:none;stroke:#973927;stroke-width:1.9199;stroke-linecap:round;stroke-linejoin:round;stroke-miterlimit:22.9256;}
</style>
<g>
	<path class="st0" d="M80,30.6L80,30.6c-0.3-2.4-0.8-4.9-1.9-6.1c-4.6,16.8-18.3,6.2-18.8,3.3c-1.1-0.6-2.3-0.9-3.6-0.8
		c-0.1,0.1-0.2,0.2-0.3,0.3c-6.3,4.6-11.8,9.8-14,10.8c-6.9,3-12.5,6.5-12.1,9.6c-0.2,1.2-0.1,3.1,0,3.7c1.6,7.6,22.3,8.1,28.1,1.9
		c6.2-6.7,20.3-7.9,22.4-13C80.5,38.3,80.3,34.7,80,30.6z"/>
	<path class="st1" d="M78.1,24.5c2.7,4.7,2.4,10.2,1.6,12.3c-2.1,5.1-16.2,6.3-22.4,13c-5.7,6.2-26.5,5.7-28.1-1.9
		c-0.7-3.2,5.1-6.7,12.1-9.8c2.2-1,7.7-6.2,14-10.8c0.1-0.1,0.2-0.2,0.3-0.3c1.3,0,2.5,0.2,3.6,0.8c2.9,1.6,2.3,3.5,5.7,4.1
		C75,33.7,76.9,28,78.1,24.5z"/>
	<g>
		<line class="st2" x1="49.1" y1="40.7" x2="46.8" y2="34"/>
		<line class="st2" x1="52.5" y1="37.4" x2="50.2" y2="30.7"/>
		<line class="st2" x1="55.7" y1="34.5" x2="53.4" y2="28.5"/>
		<line class="st2" x1="42.5" y1="36.7" x2="51.6" y2="37.5"/>
		<line class="st2" x1="46.4" y1="33.8" x2="55.4" y2="34.6"/>
		<line class="st2" x1="49.7" y1="31" x2="58.8" y2="31.8"/>
	</g>
</g>
<g>
	<path class="st0" d="M97.1,30.6L97.1,30.6c0.3-2.4,0.8-4.9,1.9-6.1c2.8,16,16.9,8.2,18.8,3.3c1.1-0.6,2.3-0.9,3.6-0.8
		c0.1,0.1,0.2,0.2,0.3,0.3c6.3,4.6,11.8,9.8,14,10.8c6.9,3,12.5,6.5,12.1,9.6c0.2,1.2,0.1,3.1,0,3.7c-1.6,7.6-22.3,8.1-28.1,1.9
		c-6.2-6.7-20.3-7.9-22.4-13C96.6,38.3,96.7,34.7,97.1,30.6z"/>
	<path class="st1" d="M99,24.5c-2.7,4.7-2.4,10.2-1.6,12.3c2.1,5.1,16.2,6.3,22.4,13c5.7,6.2,26.5,5.7,28.1-1.9
		c0.7-3.2-5.1-6.7-12.1-9.8c-2.2-1-7.7-6.2-14-10.8c-0.1-0.1-0.2-0.2-0.3-0.3c-1.3,0-2.5,0.2-3.6,0.8c-2.9,1.6-2.3,3.5-5.7,4.1
		C102.1,33.7,100.2,28,99,24.5z"/>
	<g>
		<line class="st2" x1="128" y1="40.7" x2="130.2" y2="34"/>
		<line class="st2" x1="124.6" y1="37.4" x2="126.8" y2="30.7"/>
		<line class="st2" x1="121.4" y1="34.5" x2="123.6" y2="28.5"/>
		<line class="st2" x1="134.6" y1="36.7" x2="125.5" y2="37.5"/>
		<line class="st2" x1="130.7" y1="33.8" x2="121.6" y2="34.6"/>
		<line class="st2" x1="127.3" y1="31" x2="118.3" y2="31.8"/>
	</g>
</g>
</svg>
