<?xml version="1.0" encoding="utf-8"?>
<!-- Generator: Adobe Illustrator 19.2.1, SVG Export Plug-In . SVG Version: 6.00 Build 0)  -->
<svg version="1.1" id="Layer_1" xmlns="http://www.w3.org/2000/svg" xmlns:xlink="http://www.w3.org/1999/xlink" x="0px" y="0px"
	 viewBox="0 0 178 178" style="enable-background:new 0 0 178 178;" xml:space="preserve">
<style type="text/css">
	.st0{fill:#2C343B;}
	.st1{fill:#685443;}
	.st2{fill:none;stroke:#C9B587;stroke-width:1.1999;stroke-linecap:round;stroke-linejoin:round;stroke-miterlimit:22.9256;}
	.st3{fill:#342A22;}
</style>
<g>
	<g>
		<path class="st0" d="M95.1,97.7c0,2.1,0,5.4,0.5,7.1s7.8,4.3,10.2,5c2.4,0.7,2.7-1.3,2.7-1.3c7.7,2.4,10.8,6.7,14.6,8.9
			c3.8,2.1,8.8,4.7,17.2,5.2c8,0.5,18.1-3.9,17.4-8.3c-0.2-1.3,0-2-0.6-3.1c0,0.2,0.2,0.7-0.1,0.7c-7.4,1.5-22.8,3.9-30-3.9
			c-7.7-8.3-24.2-4.6-26.8-11c-0.2-0.4-4.2,0.2-4.3-0.3C95.6,97,95.2,97.4,95.1,97.7z"/>
		<path class="st1" d="M95.7,63.6c2.7,9.3-2.6,28.3,0,34.7c2.6,6.4,16.5,7.2,25,14.2c11.4,9.5,35.1,9,36.7-0.6
			c0.7-3.9-7-11.4-13.6-11.4c-3.2,0-16.7-15-21.7-20.7s-6.6-11.2-6-15.8C117.6,52.6,92.5,52.7,95.7,63.6z"/>
		<path class="st2" d="M98.8,61.4c1.2,14.3,3.2,34.6,5.3,42.1"/>
		<path class="st2" d="M102,63.5c1.2,14.3,3.2,34.1,5.2,41.4"/>
		<path class="st2" d="M122.1,112.4c1.1-6.9,2.1-15.1-0.4-21.1c-2.5-6.1,5-7.2,7.7-2.8"/>
		<path class="st3" d="M101.1,66.9c1.8,0.3,14.5,1.8,15.1-2.9c1.5-11.4-23.7-11.3-20.5-0.4C95.7,63.6,99.2,66.6,101.1,66.9z"/>
	</g>
	<g>
		<path class="st0" d="M83,97.7c0,2.1,0,5.4-0.5,7.1s-7.8,4.3-10.2,5c-2.4,0.7-2.7-1.3-2.7-1.3c-7.7,2.4-10.8,6.7-14.6,8.9
			c-3.8,2.1-8.8,4.7-17.2,5.2c-8,0.5-18.1-3.9-17.4-8.3c0.2-1.3,0-2,0.6-3.1c0,0.2-0.2,0.7,0.1,0.7c7.4,1.5,22.8,3.9,30-3.9
			c7.7-8.3,24.2-4.6,26.8-11c0.2-0.4,4.2,0.2,4.3-0.3C82.5,97,82.8,97.4,83,97.7z"/>
		<path class="st1" d="M82.3,63.6c-2.7,9.3,2.6,28.3,0,34.7c-2.6,6.4-16.5,7.2-25,14.2c-11.4,9.5-35.1,9-36.7-0.6
			c-0.7-3.9,7-11.4,13.6-11.4c3.2,0,16.7-15,21.7-20.7s6.6-11.2,6-15.8C60.4,52.6,85.6,52.7,82.3,63.6z"/>
		<path class="st2" d="M79.2,61.4c-1.2,14.3-3.2,34.6-5.3,42.1"/>
		<path class="st2" d="M76.1,63.5c-1.2,14.3-3.2,34.1-5.2,41.4"/>
		<path class="st2" d="M56,112.4c-1.1-6.9-2.1-15.1,0.4-21.1c2.5-6.1-5-7.2-7.7-2.8"/>
		<path class="st3" d="M77,66.9c-1.8,0.3-14.5,1.7-15.1-2.9c-1.5-11.4,23.7-11.3,20.5-0.4C82.3,63.6,78.7,66.6,77,66.9z"/>
	</g>
</g>
</svg>
