<?xml version="1.0" encoding="utf-8"?>
<!-- Generator: Adobe Illustrator 19.2.1, SVG Export Plug-In . SVG Version: 6.00 Build 0)  -->
<svg version="1.1" id="Layer_1" xmlns="http://www.w3.org/2000/svg" xmlns:xlink="http://www.w3.org/1999/xlink" x="0px" y="0px"
	 viewBox="0 0 178 178" style="enable-background:new 0 0 178 178;" xml:space="preserve">
<style type="text/css">
	.st0{fill:#ED5940;}
	.st1{fill:none;stroke:#CF3F26;stroke-width:1.1999;stroke-miterlimit:22.9256;}
	.st2{fill:none;stroke:#FFFFFF;stroke-width:1.9199;stroke-linecap:round;stroke-linejoin:round;stroke-miterlimit:22.9256;}
	.st3{fill:#E0E0E0;}
</style>
<g>
	<g>
		<g>
			<path class="st0" d="M78.9,68c2.1,6.7,1.6,20.4,0.7,22.7c-2.4,5.8-18.3,7.2-25.3,14.7c-6.5,7-29.4,6.5-31.2-2.1
				c-0.7-3.6,4.8-7.7,12.7-11.2c1.5-0.6,15.7-8.6,22.5-16.6c1.6-1.8,0.2-5.2-0.7-6.8c-1.4-2.4,11.8-5.1,12.2-1
				c0.1,1,0.8,2.7,0.7,4.3C79.4,73.1,78.3,69.9,78.9,68z"/>
			<path class="st1" d="M71.1,72.1C69.5,77,58,90,52.7,94c-11.9,9-21.1,1.2-17.2-1.1"/>
			<g>
				<line class="st2" x1="54" y1="90.2" x2="50.5" y2="82.6"/>
				<line class="st2" x1="57.4" y1="86.4" x2="53.9" y2="78.9"/>
				<line class="st2" x1="60.6" y1="83.2" x2="57.2" y2="76.3"/>
				<line class="st2" x1="46" y1="85.7" x2="56.4" y2="86.6"/>
				<line class="st2" x1="50" y1="82.3" x2="60.4" y2="83.2"/>
				<line class="st2" x1="53.4" y1="79.2" x2="63.9" y2="79.1"/>
				<line class="st2" x1="49.3" y1="92.3" x2="45.9" y2="85.6"/>
				<line class="st2" x1="41.8" y1="88.9" x2="53.3" y2="90.3"/>
				<line class="st2" x1="36.6" y1="91.6" x2="49.6" y2="92.8"/>
				<line class="st2" x1="44.4" y1="95.9" x2="41.7" y2="88.9"/>
			</g>
		</g>
		<path class="st3" d="M80.4,76.8c-0.3,4-1.8,14.4-6.1,18.2c-6,2.9-15.2,5.1-20.1,10.4c-6.5,7-29.4,6.5-31.2-2.1
			c-0.4-1.8,0.9-3.8,3.2-5.7c-0.1,0-0.1,0-0.2,0c-2.3,1.7-3.2,3.4-3.5,5c-0.4,1.2-0.3,3.8-0.1,4.6c1.8,8.6,25.3,9.2,31.8,2.2
			c7-7.6,23-8.9,25.3-14.7c0.3-0.8,0.5-1.7,0.6-2.8C80.7,89.6,81.4,82.4,80.4,76.8z"/>
	</g>
	<g>
		<g>
			<path class="st0" d="M99.2,67c-2.1,6.7-1.6,20.4-0.7,22.7c2.4,5.8,18.3,7.2,25.3,14.7c6.5,7,29.4,6.5,31.2-2.1
				c0.7-3.6-4.8-7.7-12.7-11.2c-1.6-0.7-17.2-9.4-23.5-17.8c-1.1-1.5,0.8-5.8,1.2-7.2c0.8-2.8-12.1-3.2-12.9,0.3
				c-0.2,1-0.6,3,0.4,4.5C98.7,72.1,99.8,68.9,99.2,67z"/>
			<path class="st1" d="M107,71.1C108.6,76,120.1,89,125.4,93c11.9,9,21.1,1.2,17.2-1.1"/>
			<g>
				<line class="st2" x1="124" y1="89.2" x2="127.6" y2="81.6"/>
				<line class="st2" x1="120.7" y1="85.4" x2="124.2" y2="77.9"/>
				<line class="st2" x1="117.4" y1="82.2" x2="120.9" y2="75.3"/>
				<line class="st2" x1="132.1" y1="84.7" x2="121.7" y2="85.6"/>
				<line class="st2" x1="128.1" y1="81.3" x2="117.7" y2="82.2"/>
				<line class="st2" x1="124.7" y1="78.2" x2="114.2" y2="78.1"/>
				<line class="st2" x1="128.8" y1="91.3" x2="132.2" y2="84.6"/>
				<line class="st2" x1="136.3" y1="87.9" x2="124.8" y2="89.3"/>
				<line class="st2" x1="141.5" y1="90.6" x2="128.5" y2="91.8"/>
				<line class="st2" x1="133.7" y1="94.9" x2="136.4" y2="87.9"/>
			</g>
		</g>
		<path class="st3" d="M155.6,101.7c-0.3-1.7-1.3-3.3-3.5-5c-0.1,0-0.1,0-0.2,0c2.3,1.9,3.6,3.9,3.2,5.7c-1.8,8.6-24.7,9.1-31.2,2.1
			c-7-7.6-23-8.9-25.3-14.7c-0.6-1.4-1-7-0.7-12.7c0-0.4-0.1-0.9-0.1-1.2c-1,5.6-0.3,12.8,0.3,15.1c0.1,1.1,0.3,2.1,0.6,2.8
			c2.4,5.8,18.3,7.2,25.3,14.7c6.5,7,30,6.4,31.8-2.2C155.8,105.4,156,102.9,155.6,101.7z"/>
	</g>
</g>
</svg>
