<?xml version="1.0" encoding="utf-8"?>
<!-- Generator: Adobe Illustrator 19.2.1, SVG Export Plug-In . SVG Version: 6.00 Build 0)  -->
<svg version="1.1" id="Layer_1" xmlns="http://www.w3.org/2000/svg" xmlns:xlink="http://www.w3.org/1999/xlink" x="0px" y="0px"
	 viewBox="0 0 178 499" style="enable-background:new 0 0 178 499;" xml:space="preserve">
<style type="text/css">
	.st0{fill:#F7F7F7;}
	.st1{fill:#E6C8C0;}
	.st2{fill:#E0E0E0;}
	.st3{fill:none;stroke:#C3D2D9;stroke-miterlimit:10;}
	.st4{fill:none;stroke:#093A6E;stroke-width:3;stroke-linecap:round;stroke-miterlimit:10;}
	.st5{fill:#4F5759;}
	.st6{fill:#C3CEDA;}
	.st7{fill:#E6EBE6;}
	.st8{fill:none;stroke:#F6C480;stroke-miterlimit:10;}
</style>
<g>
	<path class="st0" d="M49.8,127.1c3.6-9.8,13.4-16.5,30.5-16.5c-5.7,24.3-0.2,101.7-3.6,131.6c-2.1,18.1-3.5,188.5-3.5,188.5
		c-5.5-1.4-13,4.5-25,0c2.5-50.5,0.3-162.2,1.6-196.9c0.9-24.9,9.5-41.9,12.1-57.4C64.5,160.9,52.4,129.7,49.8,127.1z"/>
	<path class="st0" d="M52.4,123.4c-11.3,9.7-16.2,46.7-17.9,64.8c0,0,9.9,3.6,19.1,3.6c4-6.9,8.2-30.8,14.3-43.7
		C75.1,132.6,63.1,122.4,52.4,123.4z"/>
	<path class="st1" d="M37.2,201.9c0.1,0.6,3.8,24.9,3.9,25.7c1.3,8.6,0.5,24.8,3.4,30.7c1.2,2.4,2.5,6.4,4.5,7.9
		c2.9,2.1,6.7,3.3,7.9,3.3c2.1,0,2.8-1.8-0.2-3c-1.2-0.5-2.6-1-4.3-2.6c-2.6-2.5-3.4-8-2.9-8.2c2.9-1.3,6,7.8,8.3,6.7
		c1.1-0.5-1.5-6-2.2-8.7c-0.8-3.1-0.3-8.1-2.6-10.8c-2.2-2.6-2.8-5.6-2.7-8.7c0.6-2,2.3-27.3,2.7-31.9"/>
	<path class="st0" d="M34.3,187.6c0,0.2-0.1,0.5-0.1,0.7c-1.2,9.9-0.6,33.3-0.8,42.5c6.2,1,13.3,2.3,18.8,3.1
		c0.4-8.6,3-27.5,1.4-42.1L34.3,187.6z"/>
	<path class="st2" d="M77.6,150c0,0,0.4-34.2,3.2-39.3c-3-0.7-18.2,0-20.5,10.4C73.3,117.3,77.6,150,77.6,150z"/>
	<path class="st0" d="M126.5,127.1c-3.6-9.8-12.6-16.5-29.6-16.5c5.7,24.3-0.7,101.7,2.7,131.6c2.1,18.1,3.5,188.5,3.5,188.5
		c5.5-1.4,13,4.5,25,0c-2.5-50.5-0.3-162.2-1.6-196.9c-0.9-24.9-9.5-41.9-12.1-57.4C111.8,160.9,123.9,129.7,126.5,127.1z"/>
	<path class="st0" d="M124.8,123.9c10.6,10.5,13.2,47.6,13.6,65.8c0,0-9.6,2.9-18.8,2.3c-3.5-7.1-6.6-31.2-11.9-44.5
		C101.5,131.6,114.1,122.2,124.8,123.9z"/>
	<path class="st0" d="M138.7,187.6c0,0.2,0.1,0.5,0.1,0.7c1.2,9.9,0.6,33.3,0.8,42.5c-6.2,1-13.3,2.3-18.8,3.1
		c-0.4-8.6-2.4-27.5-0.8-42.1L138.7,187.6z"/>
	<path class="st2" d="M98.8,150c0,0,0.7-34.9-2.1-40.1c3-0.7,17.2,0.8,19.5,11.2C103.1,117.4,98.8,150,98.8,150z"/>
	<path class="st2" d="M33.9,224c7,1.2,14,1.6,20.9,0.9c0.4,0,0.8,0.4,0.8,0.8c-0.1,2.4-0.5,9.4-0.6,11.7c0,0.4-0.4,0.7-0.8,0.7
		c-7,0.8-11.4,0.5-18.3-1c-0.4-0.1-0.6-0.4-0.8-0.8c-1-2.7-2-9.3-1.9-11.7C33,224.4,33.4,224,33.9,224z"/>
	<path class="st1" d="M127.1,228.8c1,4.9,1.4,10-2,14c-2.3,2.7-1.9,7.7-2.6,10.8c-0.7,2.7-3.3,8.2-2.2,8.7c2.4,1.1,5.4-8,8.3-6.7
		c0.4,0.2-0.3,5.7-2.9,8.2c-1.7,1.6-3.1,2.1-4.3,2.6c-3,1.3-2.3,3.1-0.2,3c1.3,0,5-1.2,7.9-3.3c2-1.5,3.3-5.4,4.5-7.9
		c2.9-5.9,2-22.1,3.4-30.7"/>
	<path class="st2" d="M141,224.2c-7,1.2-14,1.6-20.9,0.9c-0.4,0-0.8,0.4-0.8,0.8c0.1,2.4,0.5,9.4,0.6,11.7c0,0.4,0.4,0.7,0.8,0.7
		c7,0.8,11.4,0.5,18.3-1c0.4-0.1,0.6-0.4,0.8-0.8c1-2.7,2-9.3,1.9-11.7C141.8,224.5,141.5,224.1,141,224.2z"/>
	<g>
		<path class="st3" d="M96,157.9c-2.4,8.9-4.4,18-4.4,27.2c0,3.2,5.2,5.1,8,6.3"/>
		<path class="st4" d="M78.9,110c-19.8,4.5-26.7,23.3-10,50.1"/>
		<path class="st4" d="M98.3,110.4c13.5,2,19.6,7,18.1,23.3"/>
		<path class="st3" d="M121.6,167.2c-2.3,6.4-5.2,12.7-8.5,18.7c-1.5,2.8-5.5,5.8-14.4,1.1"/>
		<path class="st4" d="M96,157.9c3.9-14.5,10.9-27.8,23.6-20.7c8.5,4.8,6.3,18,2,29.9"/>
		<path class="st5" d="M97.4,187.4l-2.6-1.6c-0.5-0.3-0.6-0.9-0.4-1.4l0,0c0.3-0.5,0.9-0.6,1.4-0.4l2.6,1.6c0.5,0.3,0.6,0.9,0.4,1.4
			l0,0C98.5,187.5,97.9,187.7,97.4,187.4z"/>
		<path class="st5" d="M102.9,193.5l-2.9-0.9c-0.5-0.2-0.8-0.7-0.7-1.2l0,0c0.2-0.5,0.7-0.8,1.2-0.7l2.9,0.9
			c0.5,0.2,0.8,0.7,0.7,1.2l0,0C104,193.4,103.4,193.7,102.9,193.5z"/>
		<circle class="st6" cx="72.8" cy="166.7" r="9.1"/>
		<circle class="st7" cx="72.8" cy="166.7" r="5.8"/>
	</g>
	<rect x="-37.7" y="-17.3" class="st8" width="249" height="547.5"/>
</g>
</svg>
