<?xml version="1.0" encoding="utf-8"?>
<!-- Generator: Adobe Illustrator 19.2.1, SVG Export Plug-In . SVG Version: 6.00 Build 0)  -->
<svg version="1.1" id="Layer_1" xmlns="http://www.w3.org/2000/svg" xmlns:xlink="http://www.w3.org/1999/xlink" x="0px" y="0px"
	 viewBox="0 0 178 499" style="enable-background:new 0 0 178 499;" xml:space="preserve">
<style type="text/css">
	.st0{fill-rule:evenodd;clip-rule:evenodd;}
	.st1{fill-rule:evenodd;clip-rule:evenodd;fill:#5E5E5E;}
	.st2{fill-rule:evenodd;clip-rule:evenodd;fill:#873927;}
	.st3{fill-rule:evenodd;clip-rule:evenodd;fill:#E4E4E4;}
	.st4{fill-rule:evenodd;clip-rule:evenodd;fill:#183152;}
	.st5{fill-rule:evenodd;clip-rule:evenodd;fill:#FFFFFF;}
	.st6{fill-rule:evenodd;clip-rule:evenodd;fill:#E6C8C0;}
	.st7{fill-rule:evenodd;clip-rule:evenodd;fill:none;stroke:#F6C480;stroke-miterlimit:10;}
	.st8{fill:#5E5E5E;}
</style>
<g>
	<path class="st0" d="M50.2,127.4c3.9-12.4,13.3-16.4,29.5-18.5C74,133.2,80.5,212.6,77,242.5c-2.1,18.1,0.7,21.2,0.2,28.6
		c-6.8,1.6-18.9,2.7-29.2,0.7c0.2-5.3,3-47,4.5-57.6c1.5-10.6,7.1-22.1,9.7-37.5C64.9,161.2,52.8,130,50.2,127.4z"/>
	<path class="st0" d="M52.7,123.8c-11.3,9.7-16.2,46.7-17.9,64.8c0,0,9.4,3.5,18.6,3.5c4-6.9,8.7-30.7,14.8-43.6
		C75.5,133,63.5,122.7,52.7,123.8z"/>
	<path class="st1" d="M78,168.1c0,0-1.1-53.9,1.7-59.1c-3-0.7-17.2,2-19.5,12.4C73.2,117.7,78,168.1,78,168.1z"/>
	<path class="st0" d="M126.9,127.5c-3.6-9.8-12.6-16.5-29.6-16.5c5.7,24.3-0.7,101.7,2.7,131.6c2.1,18.1,0.4,29.5,0.4,29.5
		c6,1.7,13,4.5,25,0c5.6-54.3-8-79.9-10.6-95.4C112.2,161.3,124.3,130.1,126.9,127.5z"/>
	<path class="st0" d="M125.1,124.3c10.6,10.5,13.2,47.6,13.6,65.8c0,0-9.6,2.9-18.8,2.3c-3.5-7.1-6.6-31.2-11.9-44.5
		C101.8,132,114.5,122.6,125.1,124.3z"/>
	<path class="st0" d="M139,188c0,0.2,0.1,0.5,0.1,0.7c1.2,9.9,0.6,33.3,0.8,42.5c-6.2,1-13.3,2.3-18.8,3.1
		c-0.4-8.6-2.4-27.5-0.8-42.1L139,188z"/>
	<path class="st1" d="M99.6,170c0,0,0.2-54.5-2.6-59.7c3-0.7,17.2,0.8,19.5,11.2C103.4,117.7,99.6,170,99.6,170z"/>
	<g>
		<polygon class="st2" points="17.2,211.1 75.6,211.1 75.6,251.5 72.1,254.4 18.3,250.5 		"/>
		<polygon class="st3" points="18.3,212.8 14.4,215.5 15.1,252.3 70.8,252.7 74.4,249.8 74.4,212.8 		"/>
		<rect x="13.7" y="214.1" class="st2" width="58.4" height="40.4"/>
	</g>
	<g>
		<polygon class="st4" points="24.2,213.9 72.2,224 65.2,257.1 61.8,258.9 18.3,246.5 		"/>
		<polygon class="st5" points="24.8,215.5 21.2,217 15.4,247.4 61.1,257.3 64.5,255.5 70.9,225.2 		"/>
		
			<rect x="24.4" y="212.8" transform="matrix(0.2051 -0.9787 0.9787 0.2051 -199.4315 229.1114)" class="st4" width="33.8" height="49"/>
	</g>
	<path class="st6" d="M41.8,230.5c5.2-2.2,11.6,7,15.6,15.1c7,14.3-2.6,2.3-2.7,3.1c-0.2,1.8-0.4,4.3-0.4,8.3c0,2.9-1.8,3.4-2.6,2.5
		c-0.6-0.6-1.2-0.5-1.4-0.2c-1.3,1.5-3.1,1.1-3.6-0.1c-0.4-0.9-1.2-0.8-1.9-0.1c-0.8,0.8-2,1.4-2.8,0.7c-0.8-0.6-0.8-3.3-1.9-1.8
		c-1.3,1.9-2.3,1.4-3,0.6C35.3,256.4,37.3,232.4,41.8,230.5z"/>
	<path class="st0" d="M34.7,187.9c0,0.2-0.1,0.5-0.1,0.7c-1.2,9.9-0.6,33.3-0.8,42.5c6.2,1,13.3,2.3,18.8,3.1
		c0.4-8.6,2.4-27.5,0.8-42.1L34.7,187.9z"/>
	<path class="st1" d="M34.2,224.4c7,1.2,14,1.6,20.9,0.9c0.4,0,0.8,0.4,0.8,0.8c-0.1,2.4-0.5,9.4-0.6,11.7c0,0.4-0.4,0.7-0.8,0.7
		c-7,0.8-11.4,0.5-18.3-1c-0.4-0.1-0.6-0.4-0.8-0.8c-1-2.7-2-9.3-1.9-11.7C33.4,224.7,33.8,224.3,34.2,224.4z"/>
	<path class="st6" d="M126.3,229.2c1,4.9,1.4,10-2,14c-2.3,2.7-1.9,7.7-2.6,10.8c-0.7,2.7-3.3,8.2-2.2,8.7c2.4,1.1,5.4-8,8.3-6.7
		c0.4,0.2-0.3,5.7-2.9,8.2c-1.7,1.6-3.1,2.1-4.3,2.6c-3,1.3-2.3,3.1-0.2,3c1.3,0,5-1.2,7.9-3.3c2-1.5,3.3-5.4,4.5-7.9
		c2.9-5.9,2-22.1,3.4-30.7"/>
	<path class="st1" d="M141.4,224.6c-7,1.2-14,1.6-20.9,0.9c-0.4,0-0.8,0.4-0.8,0.8c0.1,2.4,0.5,9.4,0.6,11.7c0,0.4,0.4,0.7,0.8,0.7
		c7,0.8,11.4,0.5,18.3-1c0.4-0.1,0.6-0.4,0.8-0.8c1-2.7,2-9.3,1.9-11.7C142.2,224.9,141.8,224.5,141.4,224.6z"/>
	<rect x="-38.4" y="-16.9" class="st7" width="249" height="547.5"/>
	<path class="st5" d="M61.6,153.3l8-8l5,10C74.6,155.4,62.6,156.4,61.6,153.3z"/>
	<g>
		<g>
			<path class="st8" d="M60,155c5.1,0.6,10.3,1.4,15.4,0.9c1.9-0.2,1.9-3.2,0-3c-5.1,0.4-10.3-0.4-15.4-0.9
				C58.1,151.8,58.1,154.8,60,155L60,155z"/>
		</g>
	</g>
</g>
</svg>
