<?xml version="1.0" encoding="utf-8"?>
<!-- Generator: Adobe Illustrator 19.2.1, SVG Export Plug-In . SVG Version: 6.00 Build 0)  -->
<svg version="1.1" id="Layer_1" xmlns="http://www.w3.org/2000/svg" xmlns:xlink="http://www.w3.org/1999/xlink" x="0px" y="0px"
	 viewBox="0 0 227 227" style="enable-background:new 0 0 227 227;" xml:space="preserve">
<style type="text/css">
	.st0{fill:#EEE5C0;}
	.st1{fill:#FCCE7C;}
	.st2{fill:#AB8F57;}
	.st3{fill:#CCA967;}
	.st4{fill:#5F502E;}
</style>
<g>
	<g>
		<g>
			<g>
				<g>
					<circle class="st0" cx="113.7" cy="116.9" r="34.6"/>
					<path class="st1" d="M114.6,80.3c-0.3,0-0.6,0-0.9,0C93.5,80.2,77,96.7,77,116.9c0,1.1,0.1,2.2,0.2,3.2
						C78.1,99.6,93.9,82.2,114.6,80.3z"/>
					<path class="st2" d="M94.7,148.3c5.6,3.4,12.1,5.4,19.1,5.4c10.9,0,20.7-4.8,27.4-12.3C128.1,151.5,109,155.3,94.7,148.3z"/>
					<path class="st3" d="M114.7,80.3C114.6,80.3,114.6,80.3,114.7,80.3c-20.7,1.9-36.5,19.3-37.5,39.9c1,11.9,7.8,22.2,17.5,28.1
						c14.3,7,33.4,3.2,46.5-6.9c5.2-5.8,8.5-13.3,9.2-21.5c0-0.2,0-0.5,0-0.7c0-9.4-3.4-18.6-9.8-26.3
						C133.5,85.8,124.6,82.5,114.7,80.3z M113.7,149.4c-17.9,0-32.5-14.6-32.5-32.5s14.6-32.5,32.5-32.5c17.9,0,32.5,14.6,32.5,32.5
						S131.7,149.4,113.7,149.4z"/>
					<path class="st1" d="M128.9,83.6c-4.4-2-9.2-3.2-14.3-3.3c9.9,2.2,18.8,5.6,25.9,12.6c6.4,7.7,9.8,16.9,9.8,26.3
						c0-0.7,0.1-1.5,0.1-2.2C150.5,102.1,141.6,89.3,128.9,83.6z"/>
				</g>
				<g>
					<path class="st4" d="M113.7,146.1c-16.1,0-29.2-13.1-29.2-29.2c0-16.1,13.1-29.2,29.2-29.2c16.1,0,29.2,13.1,29.2,29.2
						C142.9,133,129.8,146.1,113.7,146.1z M113.7,89.9c-14.9,0-27.1,12.1-27.1,27.1c0,14.9,12.1,27.1,27.1,27.1
						c14.9,0,27.1-12.1,27.1-27.1C140.8,102,128.7,89.9,113.7,89.9z"/>
				</g>
			</g>
			<g>
				<path class="st4" d="M130.2,115.8l-12.6,0c-0.4-1.3-1.4-2.3-2.7-2.7V95.5c0-0.6-0.5-1.1-1.1-1.1c-0.6,0-1.1,0.5-1.1,1.1v17.6
					c-1.7,0.5-2.9,2-2.9,3.8c0,2.2,1.8,4,4,4c1.8,0,3.4-1.2,3.8-2.9h12.6c0.5,0,0.9-0.5,0.9-1.1
					C131.1,116.3,130.7,115.8,130.2,115.8z"/>
				<rect x="113.2" y="91" class="st4" width="1.1" height="2.3"/>
				<rect x="137.5" y="116.4" class="st4" width="2.3" height="1.1"/>
				<rect x="113.2" y="140.7" class="st4" width="1.1" height="2.3"/>
				<rect x="87.8" y="116.4" class="st4" width="2.3" height="1.1"/>
				
					<rect x="95.7" y="98.2" transform="matrix(0.7108 -0.7034 0.7034 0.7108 -41.9987 96.4309)" class="st4" width="1.1" height="2.3"/>
				
					<rect x="130.5" y="99.1" transform="matrix(0.7189 -0.6951 0.6951 0.7189 -32.2797 119.4723)" class="st4" width="2.3" height="1.1"/>
				
					<rect x="130.3" y="133.8" transform="matrix(0.7249 -0.6889 0.6889 0.7249 -56.9592 127.2859)" class="st4" width="1.1" height="2.3"/>
				
					<rect x="94.4" y="133.4" transform="matrix(0.732 -0.6813 0.6813 0.732 -65.6033 100.9973)" class="st4" width="2.3" height="1.1"/>
				<rect x="105.6" y="129.2" class="st4" width="15.8" height="1.1"/>
			</g>
			<g>
				<path class="st2" d="M112.6,82.3c-1-0.4-2.1-1.1-2.4-2.2c0.3,1.7,1.8,3.1,3.7,3.1c1.4,0,2.7-0.8,3.3-2
					C115.9,82.3,114.3,82.8,112.6,82.3z"/>
				<path class="st1" d="M111.4,68.2c-2.3,1-4,3.3-4,6c0,0.8,0.1,1.5,0.4,2.2C107.3,73.1,108.4,69.9,111.4,68.2z"/>
				<path class="st2" d="M115.3,69c2.2,0.7,3.9,2.7,3.9,5.2c0,1.2-0.4,2.4-1.1,3.3c0.8-0.7,1.4-1.5,1.6-2.6
					C119.9,72.3,118.2,69.2,115.3,69z"/>
				<path class="st2" d="M108.4,74.1c0-0.2,0-0.4,0-0.6c-0.4,1.9-0.2,3.9,1.8,5c0-0.1,0-0.3,0-0.4C109.2,77.1,108.4,75.7,108.4,74.1
					z"/>
				<path class="st3" d="M116.6,68.3c-0.8-0.4-1.8-0.6-2.8-0.6c-0.9,0-1.7,0.2-2.4,0.5c-3,1.7-4.1,5-3.6,8.2c0.4,1.2,1.2,2.2,2.3,3
					c0,0,0-0.1,0-0.1c0,0,0,0.1,0,0.1c0,0,0,0,0.1,0.1c0,0,0,0,0,0c0,0.2,0,0.4,0.1,0.6c0.4,1.1,1.5,1.8,2.4,2.2
					c1.7,0.5,3.3,0,4.5-1.1c0.3-0.5,0.4-1.1,0.4-1.8c0,0,0,0,0,0c1.3-0.9,2.2-2.2,2.6-3.8C120.2,72.7,119.1,69.8,116.6,68.3z
					 M119.6,74.8c-0.2,1.1-0.8,1.9-1.6,2.6c-0.2,0.2-0.4,0.4-0.6,0.6c0,0,0,0,0,0c0,0,0,0,0,0c-0.1,0.1-0.1,0.1-0.2,0.2
					c-0.1-0.3-0.2-0.6-0.4-0.8c-1.6-1.5-4.4-1.6-6.1-0.1c-0.2,0.3-0.4,0.6-0.5,0.9c0,0,0,0-0.1-0.1c0,0.1,0,0.3,0,0.4
					c-2-1.1-2.2-3.1-1.8-5c0.1-0.5,0.2-0.9,0.3-1.4c0-0.1,0-0.1,0.1-0.2c0.3-0.8,0.8-1.5,1.6-2c0.9-0.8,2.1-1.2,3.4-1.2
					c0.5,0,1,0.1,1.5,0.2C118.2,69.2,119.9,72.3,119.6,74.8z"/>
				<path class="st3" d="M110.4,70c-0.7,0.5-1.3,1.2-1.6,2c0,0.1,0,0.1-0.1,0.2C109.1,71.3,109.7,70.5,110.4,70z"/>
				<path class="st1" d="M120.3,74.1c0-2.6-1.5-4.8-3.7-5.8c2.6,1.5,3.6,4.4,3.5,7.3C120.2,75.1,120.3,74.6,120.3,74.1z"/>
				<path class="st1" d="M113.8,75.7c-1.2,0-2.3,0.6-3,1.6c1.7-1.5,4.5-1.4,6.1,0.1C116.2,76.4,115.1,75.7,113.8,75.7z"/>
				<g>
					<path class="st3" d="M112.2,28.2c0.1,0.2,0.1,0.3,0.2,0.5C112.4,28.5,112.3,28.3,112.2,28.2C112.2,28.1,112.2,28.1,112.2,28.2z
						"/>
					<path class="st2" d="M113.2,28c-0.1-0.1-0.1-0.3-0.2-0.5c-0.3,0.1-0.6,0.3-0.8,0.6c0,0.2,0.1,0.4,0.1,0.6
						c0,0.1,0.1,0.1,0.1,0.2C112.7,28.5,112.9,28.2,113.2,28z"/>
					<path class="st1" d="M112.7,21c0.2-0.4,0.6-0.7,1.1-0.6c0.3,0.1,0.6,0.3,0.7,0.6c0,0,0,0,0,0c-0.3-0.5-0.6-0.7-1-0.7
						c-1.4,0-1.8,2.9-1.8,4.6c0,1,0.1,2.4,0.5,3.4c0,0,0.1-0.1,0.1-0.1C111.7,25.7,111.6,23.2,112.7,21z"/>
					<path class="st3" d="M114.8,22.2C114.8,22.2,114.8,22.2,114.8,22.2C114.8,22.1,114.8,22.1,114.8,22.2
						C114.8,22.1,114.8,22.1,114.8,22.2C114.8,22.2,114.8,22.2,114.8,22.2z"/>
					<path class="st2" d="M112.5,26.8c0.1-0.1,0.3,0,0.4-0.1c-0.1-0.3-0.1-0.7-0.1-1.2c0-0.2,0-0.5,0-0.8c0-1.8,0.3-2.9,0.6-3.4
						C112.1,22.9,112.6,25.1,112.5,26.8z"/>
					<path class="st1" d="M113.6,21.5C113.6,21.5,113.6,21.5,113.6,21.5c0.1,0.3,0.3,0.6,0.4,1c0.1,0.6,0.2,1.3,0.2,2.3
						c0,1.1-0.1,1.9-0.3,2.5c0.1-0.2,0.1-0.4,0.2-0.5c0,0.2-0.1,0.4-0.2,0.5c0,0.1-0.1,0.3-0.1,0.4c0.3-0.5,0.5-1.1,0.5-1.7
						C114.3,24.4,114.6,22.7,113.6,21.5z"/>
					<path class="st3" d="M114.6,21.1c0-0.1-0.1-0.1-0.1-0.2c0,0,0,0,0,0c-0.1-0.3-0.4-0.5-0.7-0.6c-0.5-0.1-1,0.2-1.1,0.6
						c-1.1,2.2-1,4.7-0.4,7.1c0.2-0.2,0.5-0.4,0.8-0.6c-0.1-0.2-0.1-0.5-0.2-0.8c-0.1,0.1-0.3,0-0.4,0.1c0,0,0,0,0,0c0,0,0,0,0,0
						c0,0,0,0,0,0c0,0,0,0,0,0c0.1-1.8-0.4-3.9,0.8-5.4c0.1-0.1,0.1-0.2,0.1-0.2c0.1,0,0.1,0.1,0.2,0.2c1,1.3,0.7,3,0.7,4.5
						c0,0.6-0.2,1.2-0.5,1.7c-0.1,0.3-0.2,0.5-0.3,0.6c0,0,0,0,0,0c-0.1-0.1-0.1-0.2-0.2-0.4c-0.3,0.2-0.6,0.5-0.7,0.8
						c0.2,0.4,0.6,0.6,1,0.6c0.2,0,0.5-0.1,0.6-0.2c0,0,0-0.1,0.1-0.1c0,0,0,0.1-0.1,0.1c0.2-0.2,0.4-0.4,0.5-0.7
						C115.3,26,115.3,23.5,114.6,21.1z"/>
					<path class="st1" d="M114.9,22c-0.1-0.3-0.2-0.7-0.3-0.9c0.7,2.4,0.7,5,0,7.4c0.5-1,0.6-2.6,0.6-3.6
						C115.3,24,115.2,22.9,114.9,22z"/>
					<path class="st1" d="M113.5,26.6c-1.7,0-3,2-3,4.6c0,1.3,0.3,2.5,0.9,3.3c-0.5-1.4-0.8-2.9-0.6-4.5c0.3-1.6,1.4-3.4,3.2-3h0
						c0-0.1,0.1-0.2,0.1-0.3C113.9,26.7,113.7,26.6,113.5,26.6z"/>
					<path class="st2" d="M111.5,31.3c0-1.9,0.9-3.6,2-3.6c0.1,0,0.2,0,0.3,0c0-0.1,0.1-0.2,0.1-0.3v0c-0.9,0-1.6,0.5-2.1,1.2
						c-0.9,1.7-0.7,3.7,0.1,5.3c0.2,0.5,0.7,0.8,1.2,1c0.1,0,0.2,0,0.3-0.1C112.4,34.8,111.5,33.2,111.5,31.3z"/>
					<path class="st1" d="M116.5,31.3c0-1.5-0.5-2.9-1.2-3.7c0,0.1-0.1,0.2-0.1,0.3c0.9,0.9,1,2.3,1.1,3.5c0.1,0.7,0,1.4-0.2,2.1
						C116.4,32.8,116.5,32,116.5,31.3z"/>
					<path class="st2" d="M115,27.3c-0.1,0.4-0.2,0.8-0.4,1.2c0,0.1,0.1,0.1,0.1,0.2c0.1-0.3,0.4-0.4,0.4-0.7c0-0.1,0.1-0.2,0.1-0.3
						C115.2,27.4,115.1,27.3,115,27.3z"/>
					<path class="st1" d="M114.7,34.4L114.7,34.4c0.9-1,1-2.3,0.8-3.6c0,0.2,0,0.3,0,0.5c0,1.2-0.4,2.4-0.9,3
						C114.6,34.3,114.6,34.3,114.7,34.4z"/>
					<path class="st3" d="M116.3,31.4c-0.1-1.2-0.2-2.6-1.1-3.5c0,0.3-0.3,0.5-0.4,0.7c0.3,0.6,0.6,1.3,0.6,2.1
						c0.2,1.3,0.1,2.6-0.8,3.6v0c0,0,0,0,0,0c0,0,0,0,0,0c0,0,0,0,0,0c0,0,0,0,0,0c0,0-0.1-0.1-0.1-0.1c-0.3,0.4-0.7,0.6-1.1,0.6
						c0,0,0,0,0,0c-0.1,0.1-0.2,0.1-0.3,0.1c-0.5-0.2-1-0.5-1.2-1c-0.8-1.6-1-3.7-0.1-5.3c0.4-0.7,1.2-1.2,2.1-1.2v0v0c0,0,0,0,0,0
						c0,0,0,0,0,0v0c0,0.1-0.1,0.2-0.1,0.3c0.3,0.1,0.6,0.3,0.9,0.7c0.1-0.4,0.2-0.8,0.4-1.2c-0.3-0.3-0.6-0.4-1-0.5
						c0,0.1-0.1,0.2-0.1,0.3h0h0c0,0,0,0,0,0c0,0,0,0,0,0h0c-1.8-0.4-3,1.4-3.2,3c-0.3,1.5,0,3.1,0.6,4.5c0.5,0.8,1.3,1.3,2.2,1.3
						c1.2,0,2.2-1,2.7-2.4C116.3,32.8,116.4,32.1,116.3,31.4z"/>
				</g>
				<g>
					<path class="st3" d="M112.3,41.5c0.1,0.2,0.1,0.3,0.2,0.5C112.4,41.8,112.4,41.6,112.3,41.5C112.3,41.4,112.3,41.4,112.3,41.5z
						"/>
					<path class="st2" d="M113.3,41.3c-0.1-0.1-0.1-0.3-0.2-0.5c-0.3,0.2-0.6,0.3-0.8,0.6c0,0.2,0.1,0.4,0.1,0.6
						c0,0.1,0.1,0.1,0.1,0.2C112.8,41.8,113,41.5,113.3,41.3z"/>
					<path class="st2" d="M113.6,34.2c-1,1.3-1.2,3.1-0.7,4.7c0-0.2,0-0.5,0-0.8c0-2.3,0.5-3.5,0.7-3.6c0.1,0,0.1,0.1,0.2,0.3
						c0.1,0,0.3-0.1,0.4-0.2C114,34.4,113.7,34,113.6,34.2z"/>
					<path class="st1" d="M112.8,34.3c0.2-0.4,0.6-0.7,1.1-0.6c0.3,0.1,0.6,0.3,0.7,0.6c0,0,0,0,0,0c-0.3-0.5-0.6-0.7-1-0.7
						c-1.4,0-1.8,2.9-1.8,4.6c0,1,0.1,2.4,0.5,3.4c0,0,0.1-0.1,0.1-0.1C111.8,39,111.6,36.5,112.8,34.3z"/>
					<path class="st1" d="M114.3,35.7L114.3,35.7c-0.1,0.1-0.2,0.1-0.2,0.1c0.1,0.6,0.2,1.3,0.2,2.3c0,1.1-0.1,1.9-0.3,2.5
						C114.5,39,114.6,37.3,114.3,35.7z"/>
					<path class="st3" d="M114.9,35.5C114.9,35.5,114.9,35.5,114.9,35.5C114.9,35.4,114.9,35.4,114.9,35.5
						C114.9,35.4,114.9,35.4,114.9,35.5C114.9,35.5,114.9,35.5,114.9,35.5z"/>
					<path class="st3" d="M113.6,34.2c0.1-0.1,0.4,0.2,0.5,0.4c0,0,0,0,0.1,0c0,0,0,0-0.1,0c0,0,0,0,0,0c0,0,0,0,0,0
						c-0.1,0.1-0.3,0.2-0.4,0.2c0.1,0.2,0.2,0.5,0.3,1c0.1,0,0.2,0,0.2-0.1h0c0,0,0,0,0,0c0,0,0,0,0,0h0h0c0,0,0,0,0,0.1
						c0.2-0.1,0.4-0.2,0.6-0.3c0,0,0,0,0-0.1c0,0,0,0,0,0.1c0,0,0,0,0.1,0c0,0,0.1-0.1,0.1-0.1c-0.1-0.4-0.2-0.8-0.4-1.1
						c0,0,0,0,0,0c-0.1-0.3-0.4-0.5-0.7-0.6c-0.5-0.1-1,0.2-1.1,0.6c-1.1,2.2-1,4.7-0.4,7.1c0.2-0.2,0.5-0.4,0.8-0.6
						c-0.1-0.5-0.3-1.1-0.3-1.9C112.4,37.3,112.6,35.5,113.6,34.2z"/>
					<path class="st2" d="M114.9,35.5C114.9,35.5,114.8,35.5,114.9,35.5C114.8,35.5,114.9,35.5,114.9,35.5
						C114.9,35.5,114.9,35.5,114.9,35.5c-0.2,0.1-0.4,0.2-0.6,0.2c0,0.1,0,0.2,0.1,0.4c0.2-0.1,0.4-0.2,0.6-0.3
						C114.9,35.7,114.9,35.6,114.9,35.5z"/>
					<path class="st3" d="M114.3,36.1c0.2,1.5,0.1,3.1-0.3,4.5c-0.1,0.5-0.3,0.8-0.4,1c0,0,0,0.1,0,0.1c0,0,0-0.1,0-0.1c0,0,0,0,0,0
						c-0.1-0.1-0.1-0.2-0.2-0.4c-0.3,0.2-0.6,0.5-0.7,0.8c0.2,0.4,0.6,0.6,1,0.6c0.2,0,0.5-0.1,0.6-0.2c1.2-2,1-4.4,0.7-6.7
						C114.7,35.9,114.5,36,114.3,36.1z"/>
					<path class="st1" d="M115,35.3c-0.1,0-0.1,0.1-0.1,0.2c0,0,0,0,0,0c0.4,2.3,0.6,4.9-0.7,7c0.9-0.7,1.1-3,1.1-4.4
						C115.3,37.3,115.3,36.2,115,35.3z"/>
					<path class="st1" d="M113.6,39.9c-1.7,0-3,2-3,4.6c0,1.3,0.3,2.5,0.9,3.3c-0.5-1.4-0.8-2.9-0.6-4.5c0.3-1.6,1.4-3.4,3.2-3h0
						c0-0.1,0.1-0.2,0.1-0.3C113.9,40,113.8,39.9,113.6,39.9z"/>
					<path class="st2" d="M111.6,44.6c0-1.9,0.9-3.6,2-3.6c0.1,0,0.2,0,0.3,0c0-0.1,0.1-0.2,0.1-0.3v0c-0.9,0-1.6,0.5-2.1,1.2
						c-0.9,1.7-0.7,3.7,0.1,5.3c0.2,0.5,0.7,0.8,1.2,1c0.1,0,0.2,0,0.3-0.1C112.5,48.1,111.6,46.5,111.6,44.6z"/>
					<path class="st1" d="M116.6,44.6c0-1.5-0.5-2.9-1.2-3.7c0,0.1-0.1,0.2-0.1,0.3c0.9,0.9,1,2.3,1.1,3.5c0.1,0.7,0,1.4-0.2,2.1
						C116.5,46.1,116.6,45.3,116.6,44.6z"/>
					<path class="st2" d="M115.1,40.6c-0.1,0.4-0.2,0.8-0.4,1.2c0,0.1,0.1,0.1,0.1,0.2c0.1-0.3,0.4-0.4,0.4-0.7
						c0-0.1,0.1-0.2,0.1-0.3C115.3,40.7,115.2,40.6,115.1,40.6z"/>
					<path class="st1" d="M114.7,47.7L114.7,47.7c0.9-1,1-2.3,0.8-3.6c0,0.2,0,0.3,0,0.5c0,1.2-0.4,2.4-0.9,3
						C114.6,47.6,114.7,47.6,114.7,47.7z"/>
					<path class="st3" d="M116.4,44.7c-0.1-1.2-0.2-2.6-1.1-3.5c0,0.3-0.3,0.5-0.4,0.7c0.3,0.5,0.6,1.3,0.6,2.1
						c0.2,1.3,0.1,2.6-0.8,3.6v0c0,0,0,0,0,0c0,0,0,0,0,0c0,0,0,0,0,0c0,0,0,0,0,0c0,0-0.1-0.1-0.1-0.1c-0.3,0.4-0.7,0.6-1.1,0.6
						c0,0,0,0,0,0c-0.1,0.1-0.2,0.1-0.3,0.1c-0.5-0.2-1-0.5-1.2-1c-0.8-1.6-1-3.7-0.1-5.3c0.4-0.7,1.2-1.2,2.1-1.2v0v0c0,0,0,0,0,0
						c0,0,0,0,0,0v0c0,0.1-0.1,0.2-0.1,0.3c0.3,0.1,0.6,0.3,0.9,0.7c0.1-0.4,0.2-0.8,0.4-1.2c-0.3-0.3-0.6-0.4-1-0.5
						c0,0.1-0.1,0.2-0.1,0.3h0h0c0,0,0,0,0,0c0,0,0,0,0,0h0c-1.8-0.4-3,1.4-3.2,3c-0.3,1.5,0,3.1,0.6,4.5c0.5,0.8,1.3,1.3,2.2,1.3
						c1.2,0,2.2-1,2.7-2.4C116.4,46.1,116.5,45.4,116.4,44.7z"/>
					<path class="st1" d="M114.3,51.4c0,2-0.4,3.2-0.7,3.5c0.3-0.1,0.5-0.3,0.6-0.6c0.6-1.6,0.3-3.4-0.1-5.1
						C114.2,49.8,114.3,50.5,114.3,51.4z"/>
					<path class="st3" d="M114.8,49c-0.2,0.2-0.5,0.3-0.7,0.3c0.4,1.6,0.7,3.4,0.1,5c-0.1,0.3-0.3,0.5-0.6,0.6c0,0,0,0,0,0
						c-0.1-0.1-0.3-0.4-0.4-0.9c-0.1,0-0.2,0.1-0.3,0.1c0,0,0,0,0,0c0,0,0,0,0,0c0,0,0,0,0,0c0,0,0,0,0,0c0,0,0,0,0,0
						c-0.3-1.9-0.5-4.2,0.5-5.9c0.1-0.2,0.2-0.4,0.2-0.4c0,0,0,0,0,0c0,0,0,0,0,0c0,0,0,0,0,0c0.1,0.1,0.4,0.5,0.5,1.3
						c0.2-0.1,0.5-0.2,0.7-0.3c0,0,0,0,0,0c0,0,0,0,0,0c0,0,0,0,0,0c0,0,0,0,0,0c0,0,0,0,0,0c0.1,0,0.1-0.2,0.2-0.2
						c-0.1-0.4-0.3-0.8-0.4-1.1c0,0.1-0.1,0.1-0.1,0.1c0,0-0.1,0-0.1,0c0,0,0,0,0,0c-0.2-0.4-0.7-0.8-1-0.6c-2,1.7-1.6,4.9-1,7.2
						c-0.1,0.1-0.2,0.1-0.2,0.2c0.3,0.9,0.7,1.5,1.4,1.5c0.8,0,1.3-0.9,1.5-2C115.2,52.3,115.4,50.6,114.8,49z"/>
					<path class="st2" d="M114.1,49.2c0,0,0,0.1,0,0.1c0.3-0.1,0.5-0.1,0.7-0.3c0,0,0-0.1-0.1-0.1C114.5,48.9,114.3,49,114.1,49.2
						C114.1,49.2,114.1,49.2,114.1,49.2z"/>
					<path class="st1" d="M115,48.6c-0.1,0.1-0.2,0.2-0.2,0.2c0.6,1.7,0.5,3.4,0.3,5.2c0.2-0.9,0.3-1.8,0.3-2.6
						C115.3,50.6,115.3,49.5,115,48.6z"/>
					<path class="st2" d="M113.3,48.2c-1,1.7-0.8,4-0.5,5.9c0,0,0,0,0,0c0.1,0,0.2-0.1,0.3-0.1c-0.2-0.6-0.3-1.5-0.3-2.6
						C112.8,49.8,113.1,48.8,113.3,48.2z"/>
					<path class="st3" d="M114.4,47.6C114.4,47.6,114.5,47.6,114.4,47.6C114.4,47.6,114.4,47.6,114.4,47.6z"/>
					<path class="st1" d="M113.4,47.1c0.2-0.2,0.8,0.2,1,0.6c0,0,0,0,0,0c0,0,0,0,0,0s0,0,0,0c0,0,0.1-0.1,0.1,0
						c0.1,0,0.1-0.1,0.1-0.1c-0.3-0.4-0.6-0.7-1-0.7c-1.4,0-1.8,2.9-1.8,4.6c0,0.9,0.1,2.1,0.4,3.1c0.1-0.1,0.2-0.1,0.2-0.2
						C111.8,51.9,111.4,48.8,113.4,47.1z"/>
					<path class="st1" d="M110.7,58c0.2-1.8,1.3-3.7,3.2-3.9c-0.1,0-0.3,0-0.4,0c-1.7,0-3,2-3,4.6c0,1.8,0.7,3.4,1.7,4.1
						C111.2,61.4,110.6,59.7,110.7,58z"/>
					<path class="st1" d="M115.4,55c1.2,2.2,1.2,4.8,0.2,7c0.6-0.8,0.9-2,0.9-3.4C116.6,57.1,116.2,55.8,115.4,55z"/>
					<path class="st1" d="M115.1,56.4c0.3,0.6,0.4,1.4,0.4,2.2c0,1.3-0.4,2.4-1,3c0.1,0.1,0.2,0.2,0.2,0.3
						C115.9,60.3,116,58.2,115.1,56.4z"/>
					<path class="st2" d="M112.8,55c-1.8,1.4-2,4.4-0.6,6.2c-0.4-0.7-0.7-1.6-0.7-2.6c0-1.9,0.9-3.6,2-3.6c0,0,0.1,0,0.1,0
						c0.1-0.1,0.1-0.2,0.1-0.2C113.4,54.8,113.1,54.8,112.8,55z"/>
					<path class="st2" d="M114.7,55.7c0.1,0.2,0.3,0.4,0.4,0.7c0,0.1,0.1,0.1,0.1,0.2c-0.1-0.5-0.3-0.9-0.6-1.3
						c0,0.1-0.1,0.1-0.1,0.1c0,0,0.1,0.1,0.1,0.1C114.6,55.6,114.7,55.7,114.7,55.7z"/>
					<path class="st3" d="M114.6,55.3C114.6,55.3,114.6,55.3,114.6,55.3C114.6,55.3,114.6,55.3,114.6,55.3z"/>
					<path class="st3" d="M115.4,55c-0.4-0.5-0.9-0.8-1.5-0.9c-2,0.2-3,2.2-3.2,3.9c-0.2,1.7,0.5,3.4,1.4,4.8
						c0.4,0.3,0.9,0.5,1.4,0.5c0.8,0,1.6-0.5,2.1-1.2C116.6,59.8,116.6,57.1,115.4,55z M114.8,61.9c-0.1-0.1-0.1-0.2-0.2-0.3
						c-0.3,0.3-0.7,0.5-1,0.5c-0.5,0-1-0.4-1.3-0.9c-1.4-1.8-1.2-4.8,0.6-6.2c0.3-0.2,0.6-0.3,0.9-0.2c0,0.1,0,0.2-0.1,0.2
						c0.3,0,0.6,0.2,0.8,0.4c0-0.1,0.2-0.1,0.1-0.1c0,0,0,0,0,0c0,0,0,0,0,0c0.3,0.4,0.5,0.8,0.6,1.3
						C116,58.3,115.9,60.3,114.8,61.9z"/>
					<path class="st2" d="M113.4,61.7c0.1,0.1-0.2,0.3,0,0.4c0.1-0.1,0.1-0.2,0.1-0.2c0.2,0.1,0.8,1.3,0.8,3.6
						c0,0.9-0.1,1.6-0.2,2.2c0,0,0.1,0,0.1,0C114.7,65.8,114.7,63,113.4,61.7z"/>
					<path class="st2" d="M113,63.2c-0.1-0.1-0.3-0.1-0.4-0.2c-0.5,1.8-0.3,3.8,0.6,5.4c-0.2-0.6-0.4-1.6-0.4-3
						C112.8,64.5,112.9,63.7,113,63.2z"/>
					<path class="st3" d="M113.6,68.9C113.6,68.9,113.6,68.9,113.6,68.9C113.6,68.9,113.6,68.9,113.6,68.9
						C113.6,68.9,113.6,68.9,113.6,68.9C113.6,69,113.6,69,113.6,68.9c-0.2,0-0.3-0.2-0.4-0.5c-1-1.6-1.2-3.6-0.6-5.4
						c0.1,0.1,0.3,0.1,0.4,0.2c0.1-0.5,0.2-0.9,0.3-1.1c-0.1-0.1,0.1-0.3,0-0.4c1.3,1.3,1.3,4.1,0.8,5.9c0,0-0.1,0-0.1,0
						c-0.1,0.5-0.2,0.9-0.4,1.1c0.4,0,0.7,0,1.1,0.1c0.1-0.3,0.2-0.7,0.3-1.1h0H115c0.4-1.3,0.1-2.7,0.1-4c-0.1-1-0.1-2-1-2.6
						c-0.5-0.1-1.1,0.1-1.5,0.5c0,0,0,0,0-0.1c-0.2,0.3-0.3,0.7-0.4,1.1c0.1,0.1,0.2,0.2,0.2,0.2c-0.6,1.6-0.3,3.2-0.4,4.8
						c0.2,1.3,0.7,2.4,1.6,2.4c0.5,0,0.9-0.4,1.2-1C114.4,69,114,68.9,113.6,68.9z"/>
					<path class="st2" d="M113.7,68.7c0,0.1-0.1,0.1-0.1,0.2c0.4,0,0.7,0.1,1.1,0.2c0-0.1,0.1-0.1,0.1-0.2
						C114.5,68.8,114.1,68.7,113.7,68.7z"/>
					<path class="st1" d="M115.1,62.8c-0.1-0.6-0.4-1.2-0.7-1.6c-0.2-0.3-0.5-0.4-0.8-0.4c-0.4,0-0.8,0.3-1,0.7c0,0,0,0,0,0.1
						c0.4-0.4,1-0.6,1.5-0.5c0.9,0.6,0.9,1.7,1,2.6c0,1.3,0.3,2.7-0.1,4h0.1h0c0.2-0.8,0.2-1.6,0.2-2.3
						C115.3,64.7,115.3,63.7,115.1,62.8z"/>
					<path class="st1" d="M112.3,62.8c-0.1,0-0.2-0.1-0.2-0.2c-0.2,0.9-0.3,2-0.3,2.8c0,0.6,0.1,1.5,0.2,2.2
						C112.1,66,111.7,64.4,112.3,62.8z"/>
				</g>
			</g>
			<g>
				<path class="st2" d="M114.9,151.6c1,0.4,2.1,1.1,2.4,2.2c-0.3-1.7-1.8-3.1-3.7-3.1c-1.4,0-2.7,0.8-3.3,2
					C111.6,151.6,113.2,151.1,114.9,151.6z"/>
				<path class="st1" d="M116.1,165.7c2.3-1,4-3.3,4-6c0-0.8-0.1-1.5-0.4-2.2C120.2,160.8,119.1,164,116.1,165.7z"/>
				<path class="st2" d="M112.2,164.9c-2.2-0.7-3.9-2.7-3.9-5.2c0-1.2,0.4-2.4,1.1-3.3c-0.8,0.7-1.4,1.5-1.6,2.6
					C107.6,161.6,109.3,164.7,112.2,164.9z"/>
				<path class="st2" d="M119.1,159.8c0,0.2,0,0.4,0,0.6c0.4-1.9,0.2-3.9-1.8-5c0,0.1,0,0.3,0,0.4
					C118.3,156.8,119.1,158.2,119.1,159.8z"/>
				<path class="st3" d="M110.9,165.6c0.8,0.4,1.8,0.6,2.8,0.6c0.9,0,1.7-0.2,2.4-0.5c3-1.7,4.1-5,3.6-8.2c-0.4-1.2-1.2-2.2-2.3-3
					c0,0,0,0.1,0,0.1c0,0,0-0.1,0-0.1c0,0,0,0-0.1-0.1c0,0,0,0,0,0c0-0.2,0-0.4-0.1-0.6c-0.4-1.1-1.5-1.8-2.4-2.2
					c-1.7-0.5-3.3,0-4.5,1.1c-0.3,0.5-0.4,1.1-0.4,1.8c0,0,0,0,0,0c-1.3,0.9-2.2,2.2-2.6,3.8C107.3,161.2,108.3,164.1,110.9,165.6z
					 M107.9,159.1c0.2-1.1,0.8-1.9,1.6-2.6c0.2-0.2,0.4-0.4,0.6-0.6c0,0,0,0,0,0c0,0,0,0,0,0c0.1-0.1,0.1-0.1,0.2-0.2
					c0.1,0.3,0.2,0.6,0.4,0.8c1.6,1.5,4.4,1.6,6.1,0.1c0.2-0.3,0.4-0.6,0.5-0.9c0,0,0,0,0.1,0.1c0-0.1,0-0.3,0-0.4
					c2,1.1,2.2,3.1,1.8,5c-0.1,0.5-0.2,0.9-0.3,1.4c0,0.1,0,0.1-0.1,0.2c-0.3,0.8-0.8,1.5-1.6,2c-0.9,0.8-2.1,1.2-3.4,1.2
					c-0.5,0-1-0.1-1.5-0.2C109.3,164.7,107.6,161.6,107.9,159.1z"/>
				<path class="st3" d="M117.1,163.9c0.7-0.5,1.3-1.2,1.6-2c0-0.1,0-0.1,0.1-0.2C118.4,162.6,117.8,163.4,117.1,163.9z"/>
				<path class="st1" d="M107.2,159.8c0,2.6,1.5,4.8,3.7,5.8c-2.6-1.5-3.6-4.4-3.5-7.3C107.3,158.8,107.2,159.3,107.2,159.8z"/>
				<path class="st1" d="M113.7,158.2c1.2,0,2.3-0.6,3-1.6c-1.7,1.5-4.5,1.4-6.1-0.1C111.3,157.5,112.4,158.2,113.7,158.2z"/>
				<g>
					<path class="st3" d="M115.3,205.7c-0.1-0.2-0.1-0.3-0.2-0.5C115.1,205.4,115.2,205.6,115.3,205.7
						C115.3,205.8,115.3,205.8,115.3,205.7z"/>
					<path class="st2" d="M114.2,205.9c0.1,0.1,0.1,0.3,0.2,0.5c0.3-0.1,0.6-0.3,0.8-0.6c0-0.2-0.1-0.4-0.1-0.6
						c0-0.1-0.1-0.1-0.1-0.2C114.8,205.4,114.6,205.7,114.2,205.9z"/>
					<path class="st1" d="M114.8,212.9c-0.2,0.4-0.6,0.7-1.1,0.6c-0.3-0.1-0.6-0.3-0.7-0.6c0,0,0,0,0,0c0.3,0.5,0.6,0.7,1,0.7
						c1.4,0,1.8-2.9,1.8-4.6c0-1-0.1-2.4-0.5-3.4c0,0-0.1,0.1-0.1,0.1C115.8,208.2,115.9,210.7,114.8,212.9z"/>
					<path class="st3" d="M112.7,211.7C112.7,211.7,112.7,211.7,112.7,211.7C112.7,211.8,112.7,211.8,112.7,211.7
						C112.7,211.8,112.7,211.8,112.7,211.7C112.7,211.7,112.7,211.7,112.7,211.7z"/>
					<path class="st2" d="M115,207.1c-0.1,0.1-0.3,0-0.4,0.1c0.1,0.3,0.1,0.7,0.1,1.2c0,0.2,0,0.5,0,0.8c0,1.8-0.3,2.9-0.6,3.4
						C115.4,211,114.9,208.8,115,207.1z"/>
					<path class="st1" d="M113.9,212.4C113.9,212.4,113.9,212.4,113.9,212.4c-0.1-0.3-0.3-0.6-0.4-1c-0.1-0.6-0.2-1.3-0.2-2.3
						c0-1.1,0.1-1.9,0.3-2.5c-0.1,0.2-0.1,0.4-0.2,0.5c0-0.2,0.1-0.4,0.2-0.5c0-0.1,0.1-0.3,0.1-0.4c-0.3,0.5-0.5,1.1-0.5,1.7
						C113.2,209.4,112.9,211.2,113.9,212.4z"/>
					<path class="st3" d="M112.9,212.8c0,0.1,0.1,0.1,0.1,0.2c0,0,0,0,0,0c0.1,0.3,0.4,0.5,0.7,0.6c0.5,0.1,1-0.2,1.1-0.6
						c1.1-2.2,1-4.7,0.4-7.1c-0.2,0.2-0.5,0.4-0.8,0.6c0.1,0.2,0.1,0.5,0.2,0.8c0.1-0.1,0.3,0,0.4-0.1c0,0,0,0,0,0c0,0,0,0,0,0
						c0,0,0,0,0,0c0,0,0,0,0,0c-0.1,1.8,0.4,3.9-0.8,5.4c-0.1,0.1-0.1,0.2-0.1,0.2c-0.1,0-0.1-0.1-0.2-0.2c-1-1.3-0.7-3-0.7-4.5
						c0-0.6,0.2-1.2,0.5-1.7c0.1-0.3,0.2-0.5,0.3-0.6c0,0,0,0,0,0c0.1,0.1,0.1,0.2,0.2,0.4c0.3-0.2,0.6-0.5,0.7-0.8
						c-0.2-0.4-0.6-0.6-1-0.6c-0.2,0-0.5,0.1-0.6,0.2c0,0,0,0.1-0.1,0.1c0,0,0-0.1,0.1-0.1c-0.2,0.2-0.4,0.4-0.5,0.7
						C112.2,207.9,112.2,210.4,112.9,212.8z"/>
					<path class="st1" d="M112.6,211.9c0.1,0.3,0.2,0.7,0.3,0.9c-0.7-2.4-0.7-5,0-7.4c-0.5,1-0.6,2.6-0.6,3.6
						C112.2,209.9,112.3,211,112.6,211.9z"/>
					<path class="st1" d="M114,207.3c1.7,0,3-2,3-4.6c0-1.3-0.3-2.5-0.9-3.3c0.5,1.4,0.8,2.9,0.6,4.5c-0.3,1.6-1.4,3.4-3.2,3h0
						c0,0.1-0.1,0.2-0.1,0.3C113.6,207.2,113.8,207.3,114,207.3z"/>
					<path class="st2" d="M116,202.6c0,1.9-0.9,3.6-2,3.6c-0.1,0-0.2,0-0.3,0c0,0.1-0.1,0.2-0.1,0.3v0c0.9,0,1.6-0.5,2.1-1.2
						c0.9-1.7,0.7-3.7-0.1-5.3c-0.2-0.5-0.7-0.8-1.2-1c-0.1,0-0.2,0-0.3,0.1C115.1,199.1,116,200.7,116,202.6z"/>
					<path class="st1" d="M111,202.6c0,1.5,0.5,2.9,1.2,3.7c0-0.1,0.1-0.2,0.1-0.3c-0.9-0.9-1-2.3-1.1-3.5c-0.1-0.7,0-1.4,0.2-2.1
						C111.1,201.1,111,201.8,111,202.6z"/>
					<path class="st2" d="M112.5,206.6c0.1-0.4,0.2-0.8,0.4-1.2c0-0.1-0.1-0.1-0.1-0.2c-0.1,0.3-0.4,0.4-0.4,0.7
						c0,0.1-0.1,0.2-0.1,0.3C112.3,206.5,112.4,206.6,112.5,206.6z"/>
					<path class="st1" d="M112.8,199.5L112.8,199.5c-0.9,1-1,2.3-0.8,3.6c0-0.2,0-0.3,0-0.5c0-1.2,0.4-2.4,0.9-3
						C112.9,199.6,112.9,199.5,112.8,199.5z"/>
					<path class="st3" d="M111.2,202.5c0.1,1.2,0.2,2.6,1.1,3.5c0-0.3,0.3-0.5,0.4-0.7c-0.3-0.6-0.6-1.3-0.6-2.1
						c-0.2-1.3-0.1-2.6,0.8-3.6v0c0,0,0,0,0,0c0,0,0,0,0,0c0,0,0,0,0,0c0,0,0,0,0,0c0,0,0.1,0.1,0.1,0.1c0.3-0.4,0.7-0.6,1.1-0.6
						c0,0,0,0,0,0c0.1-0.1,0.2-0.1,0.3-0.1c0.5,0.2,1,0.5,1.2,1c0.8,1.6,1,3.7,0.1,5.3c-0.4,0.7-1.2,1.2-2.1,1.2v0v0c0,0,0,0,0,0
						c0,0,0,0,0,0v0c0-0.1,0.1-0.2,0.1-0.3c-0.3-0.1-0.6-0.3-0.9-0.7c-0.1,0.4-0.2,0.8-0.4,1.2c0.3,0.3,0.6,0.4,1,0.5
						c0-0.1,0.1-0.2,0.1-0.3h0h0c0,0,0,0,0,0c0,0,0,0,0,0h0c1.8,0.4,3-1.4,3.2-3c0.3-1.5,0-3.1-0.6-4.5c-0.5-0.8-1.3-1.3-2.2-1.3
						c-1.2,0-2.2,1-2.7,2.4C111.2,201.1,111.1,201.8,111.2,202.5z"/>
				</g>
				<g>
					<path class="st3" d="M115.2,192.4c-0.1-0.2-0.1-0.3-0.2-0.5C115.1,192.1,115.1,192.3,115.2,192.4
						C115.2,192.5,115.2,192.5,115.2,192.4z"/>
					<path class="st2" d="M114.2,192.6c0.1,0.1,0.1,0.3,0.2,0.5c0.3-0.2,0.6-0.3,0.8-0.6c0-0.2-0.1-0.4-0.1-0.6
						c0-0.1-0.1-0.1-0.1-0.2C114.7,192.1,114.5,192.4,114.2,192.6z"/>
					<path class="st2" d="M113.9,199.7c1-1.3,1.2-3.1,0.7-4.7c0,0.2,0,0.5,0,0.8c0,2.3-0.5,3.5-0.7,3.6c-0.1,0-0.1-0.1-0.2-0.3
						c-0.1,0-0.3,0.1-0.4,0.2C113.5,199.5,113.8,199.9,113.9,199.7z"/>
					<path class="st1" d="M114.7,199.6c-0.2,0.4-0.6,0.7-1.1,0.6c-0.3-0.1-0.6-0.3-0.7-0.6c0,0,0,0,0,0c0.3,0.5,0.6,0.7,1,0.7
						c1.4,0,1.8-2.9,1.8-4.6c0-1-0.1-2.4-0.5-3.4c0,0-0.1,0.1-0.1,0.1C115.7,194.9,115.9,197.4,114.7,199.6z"/>
					<path class="st1" d="M113.2,198.2L113.2,198.2c0.1-0.1,0.2-0.1,0.2-0.1c-0.1-0.6-0.2-1.3-0.2-2.3c0-1.1,0.1-1.9,0.3-2.5
						C113,194.9,112.9,196.6,113.2,198.2z"/>
					<path class="st3" d="M112.6,198.4C112.6,198.4,112.6,198.4,112.6,198.4C112.6,198.4,112.6,198.5,112.6,198.4
						C112.6,198.5,112.6,198.5,112.6,198.4C112.6,198.4,112.6,198.4,112.6,198.4z"/>
					<path class="st3" d="M113.9,199.7c-0.1,0.1-0.4-0.2-0.5-0.4c0,0,0,0-0.1,0c0,0,0,0,0.1,0c0,0,0,0,0,0c0,0,0,0,0,0
						c0.1-0.1,0.3-0.2,0.4-0.2c-0.1-0.2-0.2-0.5-0.3-1c-0.1,0-0.2,0-0.2,0.1h0c0,0,0,0,0,0c0,0,0,0,0,0h0h0c0,0,0,0,0-0.1
						c-0.2,0.1-0.4,0.2-0.6,0.3c0,0,0,0,0,0.1c0,0,0,0,0-0.1c0,0,0,0-0.1,0c0,0-0.1,0.1-0.1,0.1c0.1,0.4,0.2,0.8,0.4,1.1
						c0,0,0,0,0,0c0.1,0.3,0.4,0.5,0.7,0.6c0.5,0.1,1-0.2,1.1-0.6c1.1-2.2,1-4.7,0.4-7.1c-0.2,0.2-0.5,0.4-0.8,0.6
						c0.1,0.5,0.3,1.1,0.3,1.9C115.1,196.6,114.9,198.4,113.9,199.7z"/>
					<path class="st2" d="M112.6,198.4C112.6,198.4,112.6,198.4,112.6,198.4C112.6,198.4,112.6,198.4,112.6,198.4
						C112.6,198.4,112.6,198.4,112.6,198.4c0.2-0.1,0.4-0.2,0.6-0.2c0-0.1,0-0.2-0.1-0.4c-0.2,0.1-0.4,0.2-0.6,0.3
						C112.6,198.2,112.6,198.3,112.6,198.4z"/>
					<path class="st3" d="M113.2,197.8c-0.2-1.5-0.1-3.1,0.3-4.5c0.1-0.5,0.3-0.8,0.4-1c0,0,0-0.1,0-0.1c0,0,0,0.1,0,0.1
						c0,0,0,0,0,0c0.1,0.1,0.1,0.2,0.2,0.4c0.3-0.2,0.6-0.5,0.7-0.8c-0.2-0.4-0.6-0.6-1-0.6c-0.2,0-0.5,0.1-0.6,0.2
						c-1.2,2-1,4.4-0.7,6.7C112.8,198,113,197.9,113.2,197.8z"/>
					<path class="st1" d="M112.5,198.6c0.1,0,0.1-0.1,0.1-0.2c0,0,0,0,0,0c-0.4-2.3-0.6-4.9,0.7-7c-0.9,0.7-1.1,3-1.1,4.4
						C112.2,196.6,112.2,197.7,112.5,198.6z"/>
					<path class="st1" d="M113.9,194c1.7,0,3-2,3-4.6c0-1.3-0.3-2.5-0.9-3.3c0.5,1.4,0.8,2.9,0.6,4.5c-0.3,1.6-1.4,3.4-3.2,3h0
						c0,0.1-0.1,0.2-0.1,0.3C113.6,193.9,113.7,194,113.9,194z"/>
					<path class="st2" d="M115.9,189.3c0,1.9-0.9,3.6-2,3.6c-0.1,0-0.2,0-0.3,0c0,0.1-0.1,0.2-0.1,0.3v0c0.9,0,1.6-0.5,2.1-1.2
						c0.9-1.7,0.7-3.7-0.1-5.3c-0.2-0.5-0.7-0.8-1.2-1c-0.1,0-0.2,0-0.3,0.1C115,185.8,115.9,187.4,115.9,189.3z"/>
					<path class="st1" d="M110.9,189.3c0,1.5,0.5,2.9,1.2,3.7c0-0.1,0.1-0.2,0.1-0.3c-0.9-0.9-1-2.3-1.1-3.5c-0.1-0.7,0-1.4,0.2-2.1
						C111,187.8,110.9,188.5,110.9,189.3z"/>
					<path class="st2" d="M112.4,193.3c0.1-0.4,0.2-0.8,0.4-1.2c0-0.1-0.1-0.1-0.1-0.2c-0.1,0.3-0.4,0.4-0.4,0.7
						c0,0.1-0.1,0.2-0.1,0.3C112.2,193.2,112.3,193.3,112.4,193.3z"/>
					<path class="st1" d="M112.8,186.2L112.8,186.2c-0.9,1-1,2.3-0.8,3.6c0-0.2,0-0.3,0-0.5c0-1.2,0.4-2.4,0.9-3
						C112.8,186.3,112.8,186.2,112.8,186.2z"/>
					<path class="st3" d="M111.1,189.2c0.1,1.2,0.2,2.6,1.1,3.5c0-0.3,0.3-0.5,0.4-0.7c-0.3-0.5-0.6-1.3-0.6-2.1
						c-0.2-1.3-0.1-2.6,0.8-3.6v0c0,0,0,0,0,0c0,0,0,0,0,0c0,0,0,0,0,0c0,0,0,0,0,0c0,0,0.1,0.1,0.1,0.1c0.3-0.4,0.7-0.6,1.1-0.6
						c0,0,0,0,0,0c0.1-0.1,0.2-0.1,0.3-0.1c0.5,0.2,1,0.5,1.2,1c0.8,1.6,1,3.7,0.1,5.3c-0.4,0.7-1.2,1.2-2.1,1.2v0v0c0,0,0,0,0,0
						c0,0,0,0,0,0v0c0-0.1,0.1-0.2,0.1-0.3c-0.3-0.1-0.6-0.3-0.9-0.7c-0.1,0.4-0.2,0.8-0.4,1.2c0.3,0.3,0.6,0.4,1,0.5
						c0-0.1,0.1-0.2,0.1-0.3h0h0c0,0,0,0,0,0c0,0,0,0,0,0h0c1.8,0.4,3-1.4,3.2-3c0.3-1.5,0-3.1-0.6-4.5c-0.5-0.8-1.3-1.3-2.2-1.3
						c-1.2,0-2.2,1-2.7,2.4C111.1,187.8,111,188.5,111.1,189.2z"/>
					<path class="st1" d="M113.2,182.5c0-2,0.4-3.2,0.7-3.5c-0.3,0.1-0.5,0.3-0.6,0.6c-0.6,1.6-0.3,3.4,0.1,5.1
						C113.3,184.1,113.2,183.4,113.2,182.5z"/>
					<path class="st3" d="M112.7,184.9c0.2-0.2,0.5-0.3,0.7-0.3c-0.4-1.6-0.7-3.4-0.1-5c0.1-0.3,0.3-0.5,0.6-0.6c0,0,0,0,0,0
						c0.1,0.1,0.3,0.4,0.4,0.9c0.1,0,0.2-0.1,0.3-0.1c0,0,0,0,0,0c0,0,0,0,0,0c0,0,0,0,0,0c0,0,0,0,0,0c0,0,0,0,0,0
						c0.3,1.9,0.5,4.2-0.5,5.9c-0.1,0.2-0.2,0.4-0.2,0.4c0,0,0,0,0,0c0,0,0,0,0,0c0,0,0,0,0,0c-0.1-0.1-0.4-0.5-0.5-1.3
						c-0.2,0.1-0.5,0.2-0.7,0.3c0,0,0,0,0,0c0,0,0,0,0,0c0,0,0,0,0,0c0,0,0,0,0,0c0,0,0,0,0,0c-0.1,0-0.1,0.2-0.2,0.2
						c0.1,0.4,0.3,0.8,0.4,1.1c0-0.1,0.1-0.1,0.1-0.1c0,0,0.1,0,0.1,0c0,0,0,0,0,0c0.2,0.4,0.7,0.8,1,0.6c2-1.7,1.6-4.9,1-7.2
						c0.1-0.1,0.2-0.1,0.2-0.2c-0.3-0.9-0.7-1.5-1.4-1.5c-0.8,0-1.3,0.9-1.5,2C112.3,181.6,112.1,183.3,112.7,184.9z"/>
					<path class="st2" d="M113.4,184.7c0,0,0-0.1,0-0.1c-0.3,0.1-0.5,0.1-0.7,0.3c0,0,0,0.1,0.1,0.1
						C112.9,185,113.2,184.9,113.4,184.7C113.4,184.7,113.4,184.7,113.4,184.7z"/>
					<path class="st1" d="M112.5,185.3c0.1-0.1,0.2-0.2,0.2-0.2c-0.6-1.7-0.5-3.4-0.3-5.2c-0.2,0.9-0.3,1.8-0.3,2.6
						C112.2,183.3,112.2,184.4,112.5,185.3z"/>
					<path class="st2" d="M114.2,185.7c1-1.7,0.8-4,0.5-5.9c0,0,0,0,0,0c-0.1,0-0.2,0.1-0.3,0.1c0.2,0.6,0.3,1.5,0.3,2.6
						C114.7,184.1,114.4,185.1,114.2,185.7z"/>
					<path class="st3" d="M113.1,186.3C113.1,186.3,113,186.3,113.1,186.3C113.1,186.3,113.1,186.3,113.1,186.3z"/>
					<path class="st1" d="M114.1,186.8c-0.2,0.2-0.8-0.2-1-0.6c0,0,0,0,0,0c0,0,0,0,0,0s0,0,0,0c0,0-0.1,0.1-0.1,0
						c-0.1,0-0.1,0.1-0.1,0.1c0.3,0.4,0.6,0.7,1,0.7c1.4,0,1.8-2.9,1.8-4.6c0-0.9-0.1-2.1-0.4-3.1c-0.1,0.1-0.2,0.1-0.2,0.2
						C115.7,181.9,116.1,185.1,114.1,186.8z"/>
					<path class="st1" d="M116.8,175.9c-0.2,1.8-1.3,3.7-3.2,3.9c0.1,0,0.3,0,0.4,0c1.7,0,3-2,3-4.6c0-1.8-0.7-3.4-1.7-4.1
						C116.3,172.5,116.9,174.2,116.8,175.9z"/>
					<path class="st1" d="M112.1,178.9c-1.2-2.2-1.2-4.8-0.2-7c-0.6,0.8-0.9,2-0.9,3.4C110.9,176.8,111.3,178.1,112.1,178.9z"/>
					<path class="st1" d="M112.4,177.5c-0.3-0.6-0.4-1.4-0.4-2.2c0-1.3,0.4-2.4,1-3c-0.1-0.1-0.2-0.2-0.2-0.3
						C111.6,173.6,111.5,175.7,112.4,177.5z"/>
					<path class="st2" d="M114.7,178.9c1.8-1.4,2-4.4,0.6-6.2c0.4,0.7,0.7,1.6,0.7,2.6c0,1.9-0.9,3.6-2,3.6c0,0-0.1,0-0.1,0
						c-0.1,0.1-0.1,0.2-0.1,0.2C114.1,179.1,114.4,179.1,114.7,178.9z"/>
					<path class="st2" d="M112.8,178.2c-0.1-0.2-0.3-0.4-0.4-0.7c0-0.1-0.1-0.1-0.1-0.2c0.1,0.5,0.3,0.9,0.6,1.3
						c0-0.1,0.1-0.1,0.1-0.1c0,0-0.1-0.1-0.1-0.1C112.9,178.2,112.8,178.2,112.8,178.2z"/>
					<path class="st3" d="M112.9,178.6C112.9,178.6,112.9,178.6,112.9,178.6C112.9,178.6,112.9,178.6,112.9,178.6z"/>
					<path class="st3" d="M112.1,178.9c0.4,0.5,0.9,0.8,1.5,0.9c2-0.2,3-2.2,3.2-3.9c0.2-1.7-0.5-3.4-1.4-4.8
						c-0.4-0.3-0.9-0.5-1.4-0.5c-0.8,0-1.6,0.5-2.1,1.2C110.9,174.1,110.9,176.8,112.1,178.9z M112.7,172c0.1,0.1,0.1,0.2,0.2,0.3
						c0.3-0.3,0.7-0.5,1-0.5c0.5,0,1,0.4,1.3,0.9c1.4,1.8,1.2,4.8-0.6,6.2c-0.3,0.2-0.6,0.3-0.9,0.2c0-0.1,0-0.2,0.1-0.2
						c-0.3,0-0.6-0.2-0.8-0.4c0,0.1-0.2,0.1-0.1,0.1c0,0,0,0,0,0c0,0,0,0,0,0c-0.3-0.4-0.5-0.8-0.6-1.3
						C111.5,175.6,111.6,173.6,112.7,172z"/>
					<path class="st2" d="M114.1,172.2c-0.1-0.1,0.2-0.3,0-0.4c-0.1,0.1-0.1,0.2-0.1,0.2c-0.2-0.1-0.8-1.3-0.8-3.6
						c0-0.9,0.1-1.6,0.2-2.2c0,0-0.1,0-0.1,0C112.8,168.1,112.8,170.9,114.1,172.2z"/>
					<path class="st2" d="M114.5,170.7c0.1,0.1,0.3,0.1,0.4,0.2c0.5-1.8,0.3-3.8-0.6-5.4c0.2,0.6,0.4,1.6,0.4,3
						C114.7,169.4,114.6,170.2,114.5,170.7z"/>
					<path class="st3" d="M113.9,165C113.9,165,113.9,165,113.9,165C113.9,165,113.9,165,113.9,165C113.9,165,113.9,165,113.9,165
						C113.9,164.9,113.9,164.9,113.9,165c0.2,0,0.3,0.2,0.4,0.5c1,1.6,1.2,3.6,0.6,5.4c-0.1-0.1-0.3-0.1-0.4-0.2
						c-0.1,0.5-0.2,0.9-0.3,1.1c0.1,0.1-0.1,0.3,0,0.4c-1.3-1.3-1.3-4.1-0.8-5.9c0,0,0.1,0,0.1,0c0.1-0.5,0.2-0.9,0.4-1.1
						c-0.4,0-0.7,0-1.1-0.1c-0.1,0.3-0.2,0.7-0.3,1.1h0h0.1c-0.4,1.3-0.1,2.7-0.1,4c0.1,1,0.1,2,1,2.6c0.5,0.1,1.1-0.1,1.5-0.5
						c0,0,0,0,0,0.1c0.2-0.3,0.3-0.7,0.4-1.1c-0.1-0.1-0.2-0.2-0.2-0.2c0.6-1.6,0.3-3.2,0.4-4.8c-0.2-1.3-0.7-2.4-1.6-2.4
						c-0.5,0-0.9,0.4-1.2,1C113.1,164.9,113.5,165,113.9,165z"/>
					<path class="st2" d="M113.8,165.2c0-0.1,0.1-0.1,0.1-0.2c-0.4,0-0.7-0.1-1.1-0.2c0,0.1-0.1,0.1-0.1,0.2
						C113,165.1,113.4,165.2,113.8,165.2z"/>
					<path class="st1" d="M112.4,171c0.1,0.6,0.4,1.2,0.7,1.6c0.2,0.3,0.5,0.4,0.8,0.4c0.4,0,0.8-0.3,1-0.7c0,0,0,0,0-0.1
						c-0.4,0.4-1,0.6-1.5,0.5c-0.9-0.6-0.9-1.7-1-2.6c0-1.3-0.3-2.7,0.1-4h-0.1h0c-0.2,0.8-0.2,1.6-0.2,2.3
						C112.2,169.2,112.2,170.2,112.4,171z"/>
					<path class="st1" d="M115.2,171.1c0.1,0,0.2,0.1,0.2,0.2c0.2-0.9,0.3-2,0.3-2.8c0-0.6-0.1-1.5-0.2-2.2
						C115.4,167.9,115.8,169.5,115.2,171.1z"/>
				</g>
			</g>
		</g>
	</g>
</g>
</svg>
