<?xml version="1.0" encoding="utf-8"?>
<!-- Generator: Adobe Illustrator 19.2.1, SVG Export Plug-In . SVG Version: 6.00 Build 0)  -->
<svg version="1.1" id="Layer_1" xmlns="http://www.w3.org/2000/svg" xmlns:xlink="http://www.w3.org/1999/xlink" x="0px" y="0px"
	 viewBox="0 0 178 123" style="enable-background:new 0 0 178 123;" xml:space="preserve">
<style type="text/css">
	.st0{fill:#E6C8C0;}
	.st1{fill:#F5D5CD;}
	.st2{fill:#4D4D4D;}
	.st3{fill:#CF998C;}
	.st4{fill:#DC9E57;}
	.st5{fill:#BC8343;}
</style>
<g>
	<g>
		<g>
			<g>
				<path class="st0" d="M146.2,157.6c-2-11.1-5-19.8-8.4-26.1c-0.7-2.8-2.5-5.2-5.1-7.4c-2.9-3.2-21.9-10.2-33.2-10.4V80.9h-20
					v32.6c-10,0.7-20.8,3.3-25.3,5.8s-8.3,4.6-11.9,11c-3.6,6.4-6.9,15.4-9,27.3H146.2z"/>
				<path class="st0" d="M79.4,80.5h20.1v38.9c0,5.5-4.5,10-10,10l0,0c-5.5,0-10-4.5-10-10L79.4,80.5L79.4,80.5z"/>
				<path class="st1" d="M89.7,17.6c31.6-0.2,34,36.9,27.8,61.1C114.2,91,98.9,101,89.7,101c-9.5,0-24.3-9.4-28.2-22.6
					C54.6,54.6,59.5,17.8,89.7,17.6z"/>
				<path class="st2" d="M77.2,66.9c1.2,0,2.3-2.5,2.3-5.6s-1-5.6-2.3-5.6c-1.2,0-2.3,2.5-2.3,5.6S75.9,66.9,77.2,66.9z"/>
				<path class="st2" d="M100.7,66.9c1.2,0,2.3-2.5,2.3-5.6s-1-5.6-2.3-5.6c-1.2,0-2.3,2.5-2.3,5.6S99.4,66.9,100.7,66.9z"/>
				<path class="st3" d="M102.9,80.9c-7.5,1.8-18.9,1.9-26.8,0.2C82.1,85.1,96.2,85.2,102.9,80.9z"/>
				<path class="st3" d="M86.8,75.6c5.6,1.2,7.9-2.3,8-5.1C96.2,75.8,92.3,78.6,86.8,75.6z"/>
				<path class="st4" d="M96,50.2c2.2-1,6.2-2.1,10.8-0.3c2.3,0.9,1.9,2.1-0.5,1.2c-3.8-1.4-6.2-0.5-9.7,0.9
					C95.2,52.6,94.5,50.9,96,50.2z"/>
				<path class="st3" d="M96.2,86.6c-3.8,0.9-9.4,0.9-13.4,0.1C86,89.9,93.1,90,96.2,86.6z"/>
				<path class="st4" d="M81.6,50.2c-2.2-1-6.2-2.1-10.8-0.3c-2.3,0.9-1.9,2.1,0.5,1.2c3.8-1.4,6.2-0.5,9.7,0.9
					C82.3,52.6,83.1,50.9,81.6,50.2z"/>
				<g>
					
						<ellipse transform="matrix(0.9799 -0.1995 0.1995 0.9799 -11.8147 12.9595)" class="st1" cx="58.4" cy="65.1" rx="3.7" ry="7.7"/>
					
						<ellipse transform="matrix(0.1995 -0.9799 0.9799 0.1995 32.6596 170.1815)" class="st1" cx="120.5" cy="65.1" rx="7.7" ry="3.7"/>
				</g>
				<path class="st4" d="M58.1,60.1c0.6,2.7,2.7,8.4,2.5,2c-0.1-6.4,0.7-22.4,7.4-29c6.7-6.7,14.3-2.8,21.2-2.8c0.1,0,0.1,0,0.2,0
					s0.1,0,0.2,0c6.9,0,14.6-3.8,21.2,2.8c6.7,6.7,7.5,22.7,7.4,29c-0.1,6.4,2,0.7,2.5-2c2-9.9,4.6-29.7-11.5-36.3
					C94,9.1,69.2,16.3,61,35.5C55.8,48,57.1,55,58.1,60.1z"/>
				<path class="st4" d="M108,25.5c2.4,13.9-7.8,23.5-22.1,25.1C96.3,45.4,104.3,34.1,108,25.5z"/>
				<path class="st5" d="M107.4,24.2c-3.7,18.6-32.3,27.4-56.6,22C72,44.2,94.7,34.9,107.4,24.2z"/>
				<path class="st4" d="M108,27c-9.1,12.6-29.6,23.8-47.5,16.4C72.4,15.5,92.8,15.4,108,27z"/>
				<path class="st4" d="M107.3,25.1c-2.9,13.4,5.8,28.1,12.6,32.2C120,37.8,111.9,29,107.3,25.1z"/>
				<path class="st5" d="M108.3,25.8C101.7,38.2,77.6,45.6,65,36C76.4,38.3,98.9,32.5,108.3,25.8z"/>
				<path class="st5" d="M108.1,25.3c-2.4,9.2,4.2,19.1,11.8,20.1C115.3,42.3,109,30.8,108.1,25.3z"/>
			</g>
		</g>
	</g>
</g>
</svg>
