<?xml version="1.0" encoding="utf-8"?>
<!-- Generator: Adobe Illustrator 19.2.1, SVG Export Plug-In . SVG Version: 6.00 Build 0)  -->
<svg version="1.1" id="Layer_1" xmlns="http://www.w3.org/2000/svg" xmlns:xlink="http://www.w3.org/1999/xlink" x="0px" y="0px"
	 viewBox="0 0 178 123" style="enable-background:new 0 0 178 123;" xml:space="preserve">
<style type="text/css">
	.st0{fill:#DC9E57;}
	.st1{fill:#E6C8C0;}
	.st2{fill:#F5D5CD;}
	.st3{fill:#F88D88;}
	.st4{fill:#4D4D4D;}
	.st5{fill:#CF998C;}
	.st6{fill:#FFFFFF;}
</style>
<g>
	<g>
		<g>
			<g>
				<path class="st0" d="M108.5,23.6c6.5,3.6,29.7,50.6,10.7,73.4c1-4.7,1.1-8.6,0.6-13c0,6-3.4,11.6-8,16c1.3-4,0.6-6.3,0.2-8.4
					c-15,17.5-39.4,12.3-45.5,2c-0.2,2.1-0.7,4.5,1,8.4c-5-4-8.3-9.2-9.4-15.2c-0.1,4.2,0.6,8.4,1.8,12.9c-21-21-1.1-70.6,5-74.7
					L108.5,23.6z"/>
				<path class="st1" d="M123.4,125.9c-0.4-1.1-1-2.1-1.8-3c-1.4-2.1-3.1-3.6-5-4.4c-4.2-2.7-16-6-16-6c0-0.1-2.6-0.7-4.2-0.9
					c-0.1,0-0.1-0.8-0.1-1.2V81.2l-0.4-0.4H80.4v29.5c0,0.2,0.1,0.7-0.3,0.7c-1.8,0.1-4.7,0.6-4.7,0.7l0,0c-6,0.9-11.4,2.6-15.5,5.2
					c-3.8,1.7-7,6.2-9.7,11.6L123.4,125.9z"/>
				<path class="st2" d="M88.6,19.9c30,0,32,35.2,25.9,58.7c-3.2,12-16.9,22.4-25.9,22.4c-9.3,0-22.9-11.5-26.7-24.4
					C55.2,53.5,59.2,19.9,88.6,19.9z"/>
				<path class="st3" d="M101.9,78.8c-7.3-0.4-19.8-0.4-26.3,0.1C80.1,90.6,98.9,90.9,101.9,78.8z"/>
				<path class="st4" d="M77,64.2c1.2,0,2.1-2.4,2.1-5.4s-1-5.4-2.1-5.4c-1.2,0-2.1,2.4-2.1,5.4C74.8,61.9,75.8,64.2,77,64.2z"/>
				<path class="st4" d="M99.4,64.2c1.2,0,2.1-2.4,2.1-5.4s-1-5.4-2.1-5.4c-1.2,0-2.1,2.4-2.1,5.4C97.2,61.9,98.2,64.2,99.4,64.2z"
					/>
				<g>
					
						<ellipse transform="matrix(0.9799 -0.1995 0.1995 0.9799 -11.5829 12.9345)" class="st2" cx="58.4" cy="63.9" rx="3.6" ry="7.4"/>
					
						<ellipse transform="matrix(0.1995 -0.9799 0.9799 0.1995 31.7314 166.7827)" class="st2" cx="117.9" cy="64" rx="7.4" ry="3.6"/>
				</g>
				<path class="st5" d="M101.5,78.9c-7.2,1.7-18,1.8-25.5,0.2C82,86.6,95.4,86.9,101.5,78.9z"/>
				<path class="st5" d="M86.1,73.8c5.3,1.1,7.5-2.2,7.6-4.9C95.1,73.9,91.4,76.6,86.1,73.8z"/>
				<path class="st6" d="M100.6,79.1c-6.9,1.5-16.7,1.5-23.9,0.1C80.4,84.1,96.6,83.9,100.6,79.1z"/>
				<path class="st0" d="M94.9,48.4c2.1-0.9,5.6-2.7,10.2-0.1c2.1,1.2,1.9,2-0.4,0.9c-3.8-1.8-5.9-0.5-9.2,0.9
					C94.2,50.7,93.5,49,94.9,48.4z"/>
				<path class="st0" d="M81.2,48.4c-2.1-0.9-5.6-2.7-10.2-0.1c-2.1,1.2-1.9,2,0.4,0.9c3.8-1.8,5.9-0.5,9.2,0.9
					C82,50.7,82.7,49,81.2,48.4z"/>
				<path class="st0" d="M58.4,57.4c0.3,2.6,2.9,7.8,2.5,1.8c-0.4-6-0.3-21.2,5.7-27.8s13.4-3.3,20-3.6c0.1,0,0.1,0,0.2,0
					s0.1,0,0.2,0c6.6-0.3,13.6-4.2,20.2,1.8c6.6,6,8.1,21.1,8.2,27.1s2.3,0.6,2.3-2c0.1-3.1,1.8-11.5-3.7-23.1
					c-3.9-8.3-8.8-14.4-24.5-15.7c-4.6-0.4-11.3-0.1-15.4,4.4c-9.2,0.4-13.5,10-15.5,15.5C54.1,48,58,54.4,58.4,57.4z"/>
				<path class="st0" d="M114.3,41c-3,0.7-9,1.6-16.1,2.3c-1.2-3.8-2.5-8-5.1-12.6c0.4,4.6,0.9,9.2,1.1,13
					c-5.9,0.5-12.3,0.9-18.1,1.1c-0.1-2.9,0-6.4,0-10c-1.7,3.7-2.4,7-3.1,10.1c-5.5,0.1-10.2,0-13.2-0.5c2.5-15.3,11-22.4,24.5-23
					C97.7,20.8,110.5,24.8,114.3,41z"/>
			</g>
		</g>
	</g>
</g>
</svg>
