<?xml version="1.0" encoding="utf-8"?>
<!-- Generator: Adobe Illustrator 19.2.1, SVG Export Plug-In . SVG Version: 6.00 Build 0)  -->
<svg version="1.1" id="Layer_1" xmlns="http://www.w3.org/2000/svg" xmlns:xlink="http://www.w3.org/1999/xlink" x="0px" y="0px"
	 viewBox="0 0 178 178" style="enable-background:new 0 0 178 178;" xml:space="preserve">
<style type="text/css">
	.st0{fill-rule:evenodd;clip-rule:evenodd;fill:#8A2A19;}
	.st1{fill-rule:evenodd;clip-rule:evenodd;fill:#1A1A1A;}
</style>
<g>
	<g>
		<path class="st0" d="M79.2,95.5c-2.1,5.1-13.2,5.2-21.9,12.2c-8.5,6.8-29.4,5.6-27.8-1.8c0.5-2.6,2.8-5.5,7.5-8
			c27.6-11.3,42-20.8,42.1-15.5C80.4,86.5,80.6,91.9,79.2,95.5z"/>
		<path class="st1" d="M79.2,95.5c-2.1,5.1-13.2,5.2-21.9,12.2c-8.5,6.8-29.4,5.6-27.8-1.8c0.5-2.6,2.8-5.5,7.5-8
			c1.9-0.3,8.6,3.1,8.3,7c9,2.8,32.2-15.5,33.8-22.5C80.4,86.5,80.6,91.9,79.2,95.5z"/>
	</g>
	<g>
		<g>
			<path class="st0" d="M99.1,95.5c2.1,5.1,13.2,5.2,21.9,12.2c8.5,6.8,29.4,5.6,27.8-1.8c-0.5-2.6-2.8-5.5-7.5-8
				c-27.6-11.3-42-20.8-42.1-15.5C97.8,86.5,97.6,91.9,99.1,95.5z"/>
			<path class="st1" d="M99.1,95.5c2.1,5.1,13.2,5.2,21.9,12.2c8.5,6.8,29.4,5.6,27.8-1.8c-0.5-2.6-2.8-5.5-7.5-8
				c-1.9-0.3-8.6,3.1-8.3,7c-9,2.8-32.2-15.5-33.8-22.5C97.8,86.5,97.6,91.9,99.1,95.5z"/>
		</g>
	</g>
</g>
</svg>
