<?xml version="1.0" encoding="utf-8"?>
<!-- Generator: Adobe Illustrator 19.2.1, SVG Export Plug-In . SVG Version: 6.00 Build 0)  -->
<svg version="1.1" id="Layer_1" xmlns="http://www.w3.org/2000/svg" xmlns:xlink="http://www.w3.org/1999/xlink" x="0px" y="0px"
	 viewBox="0 0 178 171" style="enable-background:new 0 0 178 171;" xml:space="preserve">
<style type="text/css">
	.st0{fill:#E3E3E3;}
	.st1{fill:#475059;}
	.st2{fill:#2D333B;}
	.st3{fill:#BDBDBD;}
</style>
<g>
	<g>
		<path class="st0" d="M127.6,82.7c8.3,0.4,18.1-3.7,25.1-9.9c-3.6-14.2-10.1-34.1-16.9-43.3c-4.7-7-16.6-11.7-32.4-13
			c-1.5,7.2-7.1,22.1-14.5,29.4C81,38.1,77.2,23,75.5,16.6c-16.3,1.3-28.2,6.1-32.2,14.1C37.4,39.1,32.7,55,26.9,72.8
			c5.5,5.7,15.8,8.8,25.3,9.2c0.7-2.2,1.2-3.6,1.7-5.1c-0.6,14.7,5.4,26,2,35.7c-1.6,4.5,0.4,19.5-0.2,24.2c22.2,9,50.2,11.3,69,0.5
			c-0.6-5,0.9-20.4,0.6-25.7c-0.7-10.9-2-18.1,0.3-33.8C125.5,77.8,125.7,77.9,127.6,82.7z"/>
		<path class="st1" d="M72.9,16.3c0.2,24.2,3.4,47.6,17.4,68.3v60.5c-9.4,12.1-27.8,10.5-37.6,1.6c2.4-18.2,0.8-48.2,1.2-69.6
			c0,0,3.4-5.3,5.5-25c1.8-16.5,3.7-33.9,3.7-33.9L72.9,16.3z"/>
		<path class="st1" d="M106.6,16.3c-1.3,23.2-6,46.6-17.4,68.3L89,145.1c9.4,12.1,30.6,8.9,40.4,0.1c-0.2-18.3-2.7-45.6-3.9-67.4
			c0,0-4.7-9.9-7.4-21.6c-2.9-12.8-1.7-37.9-1.7-37.9L106.6,16.3z"/>
		<path class="st2" d="M89.9,145.7c-7.7-6-4-46.4-0.2-62.7C88.9,98.8,87,138.6,89.9,145.7z"/>
		<path class="st3" d="M89,47.3c6-10,9.9-29.8,10.1-37.7c10.6,4,19.9,16,21.2,26.7c-4.6-5.8-8.1-10.1-12.3-8.8
			C104.4,28.7,93.1,42.7,89,47.3z"/>
		<path class="st3" d="M89,47.3c-6-10-9.4-29.8-9.6-37.7c-10.6,4-20.5,16.1-21.7,26.8c4.6-5.8,8.1-10.1,12.3-8.8
			C73.5,28.7,84.8,42.7,89,47.3z"/>
		<path class="st3" d="M26.9,72.7c5.5,5.7,15.8,8.9,25.3,9.3c0.6-1.5,1.4-3.6,1.7-4.9c-9.5-0.6-19.8-3.3-25.5-8.9
			C27.9,69.7,27.4,71.3,26.9,72.7z"/>
		<path class="st3" d="M153,72.9c-5.6,5.7-15.5,9.7-25.2,10.1c-0.6-1.4-1.1-2.8-1.7-4.2c9.7-0.6,19.6-4.7,25.4-10.4
			C152.1,69.9,152.6,71.4,153,72.9z"/>
	</g>
</g>
</svg>
