<?xml version="1.0" encoding="utf-8"?>
<!-- Generator: Adobe Illustrator 19.2.1, SVG Export Plug-In . SVG Version: 6.00 Build 0)  -->
<svg version="1.1" id="Layer_1" xmlns="http://www.w3.org/2000/svg" xmlns:xlink="http://www.w3.org/1999/xlink" x="0px" y="0px"
	 viewBox="0 0 178 171" style="enable-background:new 0 0 178 171;" xml:space="preserve">
<style type="text/css">
	.st0{fill:#F7EA20;}
</style>
<g>
	<path class="st0" d="M124.3,81.9c2.1,3.6,4.1,8.8,4.2,7.5c6.2-1.8,15.8-5.2,21-7.8c-2.2-23.1-10.1-46.1-14.4-51.8
		c-4.7-6.2-11-10.1-24.6-12.1l0.1,0.3c-1.7,8.3-27.4,22.6-43.8-0.6c-13.6,3-15.8,3.7-23.1,11.3C33.8,41.6,28.7,68.6,27,79
		c5.9,2.1,18.5,9.3,24.5,10.1c0.4,0.1,2.8-8.2,2.8-8.2s-0.1,18.3,0.2,24.8c0,1.5-2.8,33.1-3.3,45.7c12.9,3,24.8,4.7,39.3,4.7
		c14,0,27.6-1.8,40-4.6c0-9.4-5.1-29.4-6.5-47.2C123.3,96.3,123.9,90.7,124.3,81.9z"/>
</g>
</svg>
