<?xml version="1.0" encoding="utf-8"?>
<!-- Generator: Adobe Illustrator 19.2.1, SVG Export Plug-In . SVG Version: 6.00 Build 0)  -->
<svg version="1.1" id="Layer_1" xmlns="http://www.w3.org/2000/svg" xmlns:xlink="http://www.w3.org/1999/xlink" x="0px" y="0px"
	 viewBox="0 0 266 266" style="enable-background:new 0 0 266 266;" xml:space="preserve">
<style type="text/css">
	.st0{fill:#005C8A;}
	.st1{clip-path:url(#SVGID_2_);}
	.st2{fill:#ACCFE0;}
	.st3{fill:#003F5E;}
</style>
<g>
	<g>
		<path class="st0" d="M167.9,24.5c-19.6,15.7-48.3,14.9-71.1,3.2c-1.8,9.2-2.4,21-1.1,34.8c2.3,23.3,5.5,53.1,10.3,72.4
			c0,5,0.1,10.7,0.6,17c0.7,9.1,1,23.8,1.4,39.5c6.5,1.6,13.5,1.6,20.7,0c0.4-7.3,0.7-13.4,0.8-17.1c0.3-9.9-2.6-37.8-2.3-44.5
			c0-0.3,0-0.6,0-0.9c3.2-21.1,4-50.2,3.3-66.9c0.6,0.1,1.2,0.1,1.8,0.1c0.7,0,1.5-0.1,2.3-0.1c-0.6,14.1-0.1,37,2,56.5
			c0.1,3.2,0.5,6.7,1.3,10.6c0.1,0.6,0.2,1.2,0.3,1.8c0.5,7.4-3.4,29.4-2.5,43.4c0.2,3.7,0.4,9.8,0.8,17.1c6.9,1.8,13.8,2,20.7,0
			c0.4-15.7,0.7-30.4,1.4-39.5c0.4-6.1,0.6-11.5,0.5-16.4c4.9-19.3,8.1-49.5,10.5-73C171.2,47,170.3,34,167.9,24.5z"/>
		<g>
			<g>
				<defs>
					<path id="SVGID_1_" d="M167.9,24.5c-19.6,15.7-48.3,14.9-71.1,3.2c-1.8,9.2-2.4,21-1.1,34.8c2.3,23.3,5.5,53.1,10.3,72.4
						c0,5,0.1,10.7,0.6,17c0.7,9.1,1,23.8,1.4,39.5c6.5,1.6,13.5,1.6,20.7,0c0.4-7.3,0.7-13.4,0.8-17.1c0.3-9.9-2.6-37.8-2.3-44.5
						c0-0.3,0-0.6,0-0.9c3.2-21.1,4-50.2,3.3-66.9c0.6,0.1,1.2,0.1,1.8,0.1c0.7,0,1.5-0.1,2.3-0.1c-0.6,14.1-0.1,37,2,56.5
						c0.1,3.2,0.5,6.7,1.3,10.6c0.1,0.6,0.2,1.2,0.3,1.8c0.5,7.4-3.4,29.4-2.5,43.4c0.2,3.7,0.4,9.8,0.8,17.1c6.9,1.8,13.8,2,20.7,0
						c0.4-15.7,0.7-30.4,1.4-39.5c0.4-6.1,0.6-11.5,0.5-16.4c4.9-19.3,8.1-49.5,10.5-73C171.2,47,170.3,34,167.9,24.5z"/>
				</defs>
				<clipPath id="SVGID_2_">
					<use xlink:href="#SVGID_1_"  style="overflow:visible;"/>
				</clipPath>
				<g class="st1">
					<g>
						<g>
							<path class="st2" d="M106.3,31.5c-1.2,19.8,0,39.6,0.9,59.4c0.9,19.9,3.6,39.6,4.4,59.5c0.7,15.5,0.8,31.1,0,46.6
								c0,0.4,1,0.6,1,0.1c1.4-27.5,0.2-55.1-2.9-82.5c-1.7-15.1-1.9-30.4-2.5-45.5c-0.5-12.5-0.7-25,0-37.5
								C107.3,31.2,106.3,31,106.3,31.5L106.3,31.5z"/>
						</g>
					</g>
					<g>
						<g>
							<path class="st2" d="M112.2,34c-0.3,20.6-0.7,41.2,0.8,61.8c0.8,10.1,2,20.1,2.7,30.2s1.2,20.2,1.3,30.3
								c0.2,11.9-0.1,23.8-1,35.6c0,0.5,0.9,0.7,1,0.3c1.6-20.2,1.2-40.5,0-60.7c-1.2-20.6-3.8-41-4.1-61.7
								c-0.2-11.9,0-23.7,0.2-35.6C113.2,33.7,112.2,33.5,112.2,34L112.2,34z"/>
						</g>
					</g>
					<g>
						<g>
							<path class="st2" d="M165.1,24.9c3.5,10.5,3.9,22.3,3.4,33.4c-0.3,5.8-1.5,11.6-2.3,17.4c-0.7,5.9-1.4,11.7-2.1,17.6
								c-1.4,11.4-2.9,22.6-5.3,33.9c-1.2,5.7-1.5,11.2-1.9,17c-0.4,5.7-0.9,11.4-1.4,17.2c-0.5,6-1.2,12.1-0.6,18.2
								c0.6,6,1.9,11.9,2.1,18c0,0.4,1,0.6,1,0.1c-0.2-5.3-1.2-10.5-1.9-15.8c-0.7-6-0.4-11.8,0.1-17.7s1-11.8,1.5-17.6
								c0.4-5.7,0.5-11.5,1.7-17.1c1.1-5.6,2.5-11.1,3.3-16.7c0.8-5.8,1.5-11.7,2.2-17.5c0.7-5.9,1.4-11.7,2.1-17.6
								c0.7-5.7,1.9-11.3,2.3-17c0.5-5.8,0.3-11.7-0.1-17.5c-0.4-6.1-1.3-12.2-3.2-18C165.9,24.4,164.9,24.4,165.1,24.9L165.1,24.9z
								"/>
						</g>
					</g>
					<g>
						<g>
							<path class="st2" d="M119.9,35c-1.8,42.6-0.1,85.3-0.2,127.9c0,12-0.2,24-0.7,36c0,0.4,1,0.6,1,0.1
								c1.7-42.7-0.1-85.5,0.1-128.2c0.1-11.9,0.3-23.9,0.8-35.8C120.9,34.7,119.9,34.5,119.9,35L119.9,35z"/>
						</g>
					</g>
					<g>
						<g>
							<path class="st2" d="M124.5,30.9c0.7,11,0.2,22,0.2,33.1c0,10.8,0.7,21.5,0.5,32.3s-1.7,21.6-2,32.4c-0.3,11,1.2,22,2,33
								c0.9,12.5,1.3,25.1,0,37.7c0,0.5,0.9,0.7,1,0.3c1.1-10.7,1-21.4,0.3-32.1c-0.6-11-2.3-22-2.4-32.9c-0.2-11.1,1.5-22,1.9-33
								c0.4-10.9-0.2-21.8-0.4-32.7c-0.1-12.6,0.6-25.3-0.2-37.9C125.4,30.6,124.4,30.5,124.5,30.9L124.5,30.9z"/>
						</g>
					</g>
					<g>
						<g>
							<path class="st2" d="M100.2,26.9C97.1,37.2,97,48,97.7,58.7c0.7,11.4,1.6,22.7,3.1,34c1.5,11.1,3.8,22,4.3,33.3
								c0.5,11.2,0.6,22.5,0.8,33.7c0.2,12.8,0.5,25.6,2.1,38.4c0.1,0.4,1,0.6,1,0.1c-2.8-22.1-2.2-44.6-2.8-66.9
								c-0.2-5.6-0.4-11.2-1.1-16.8c-0.7-5.5-1.8-10.9-2.6-16.4c-1.7-11.2-2.7-22.4-3.5-33.7c-0.9-12.4-1.5-25.1,2.1-37.1
								C101.2,26.7,100.3,26.5,100.2,26.9L100.2,26.9z"/>
						</g>
					</g>
					<g>
						<g>
							<path class="st2" d="M157.9,29.1c1.1,2.5,2.2,4.8,2.8,7.5c0.6,2.5,0.8,5.2,0.9,7.8c0.3,5.4-0.1,10.7-0.7,16.1
								c-1,11-2.2,21.9-3.4,32.8c-2.5,21.8-4.4,43.7-5.1,65.6c-0.4,12.7-0.3,25.4,0.3,38.1c0,0.4,1,0.6,1,0.1
								c-1.2-23-0.4-46.1,1.4-69.1c1.7-22.2,4.7-44.2,6.7-66.3c0.5-5.5,1.1-10.8,0.8-16.3c-0.2-2.9-0.3-5.8-1-8.6
								c-0.6-2.7-1.8-5.1-2.9-7.7C158.7,28.6,157.7,28.6,157.9,29.1L157.9,29.1z"/>
						</g>
					</g>
					<g>
						<g>
							<path class="st2" d="M151.4,32.3c1.2,5,2.1,10.2,2.5,15.3c0.3,5-0.3,9.9-0.2,14.9c0.3,10.3-1.3,20.3-2,30.5
								c-0.4,5.6-0.4,11.2-1.1,16.8c-0.6,5-1.4,10-1.8,15.1c-0.8,10.2-1.2,20.6-1.4,30.8c-0.2,12.1,0,24.1,1,36.2c0,0.4,1,0.6,1,0.1
								c-1.7-21.4-1.2-43,0.2-64.5c0.7-10.1,2.6-20,2.9-30.1c0.3-10.3,2.4-20.6,2.4-30.9c0-3-0.1-5.9,0.1-8.9
								c0.2-2.5,0.2-5.1,0.1-7.6c-0.2-6-1.2-11.9-2.6-17.7C152.2,32,151.2,31.9,151.4,32.3L151.4,32.3z"/>
						</g>
					</g>
					<g>
						<g>
							<path class="st2" d="M145.5,34.1c1.9,10.4,0.6,21.1,0.7,31.6c0.1,10.7-0.9,21.4-0.7,32.2c0.2,10.7-1,21.3-1.4,31.9
								c-0.4,10.5-0.3,21.1-0.3,31.6c0,12.5,0.2,25,0.6,37.6c0,0.4,1,0.6,1,0.1c-0.8-21.8-0.7-43.6-0.4-65.3
								c0.2-10.7,1.5-21.2,1.5-31.9c0-5.3-0.1-10.6,0.1-15.9s0.5-10.6,0.6-15.8c0.1-6,0-12.1,0.2-18.1c0.2-6,0.2-11.9-0.9-17.8
								C146.4,33.8,145.4,33.6,145.5,34.1L145.5,34.1z"/>
						</g>
					</g>
					<g>
						<g>
							<path class="st2" d="M140.9,29.9c-0.9,14.2,0.1,28.5-0.3,42.8c-0.3,8.8-0.5,17.5-0.3,26.3c0.2,7.8,0.4,15.7,0.7,23.5
								c0.1,2.3,0.2,4.5,0.2,6.8c0.1,3.4-0.5,6.7-0.7,10c-0.2,3.6-0.3,7.2-0.5,10.8c-0.6,16.1-1.6,32.3,0.1,48.4c0,0.4,1,0.6,1,0.1
								c-1.4-14.1-0.8-28.4-0.3-42.5c0.3-7.3,0.5-14.7,1.2-22c0.3-3,0.1-5.9,0-8.9c-0.5-15.5-1.2-31-0.7-46.5
								c0.5-16.2-0.5-32.4,0.5-48.6C141.9,29.6,141,29.4,140.9,29.9L140.9,29.9z"/>
						</g>
					</g>
					<g>
						<g>
							<path class="st2" d="M130.4,35.5c-0.6,12-0.4,24.1,1.7,36c0.1,0.4,1.1,0.6,1,0.1c-2.1-11.9-2.3-24-1.7-36
								C131.4,35.1,130.4,35,130.4,35.5L130.4,35.5z"/>
						</g>
					</g>
					<g>
						<g>
							<path class="st2" d="M134.8,35.5c1.6,12.3,1.1,24.2-1.9,36.2c-0.1,0.4,0.9,0.7,1,0.3c3-12.1,3.5-24.1,1.9-36.4
								C135.7,35.1,134.7,35,134.8,35.5L134.8,35.5z"/>
						</g>
					</g>
				</g>
			</g>
		</g>
		<path class="st3" d="M96.8,27.6c22.7,11.7,51.5,12.5,71.1-3.2c-0.8-3.1-21.2-5.1-34.5-4.6S97.2,21.2,96.8,27.6z"/>
	</g>
</g>
</svg>
