<?xml version="1.0" encoding="utf-8"?>
<!-- Generator: Adobe Illustrator 19.2.1, SVG Export Plug-In . SVG Version: 6.00 Build 0)  -->
<svg version="1.1" id="Layer_1" xmlns="http://www.w3.org/2000/svg" xmlns:xlink="http://www.w3.org/1999/xlink" x="0px" y="0px"
	 viewBox="0 0 266 266" style="enable-background:new 0 0 266 266;" xml:space="preserve">
<style type="text/css">
	.st0{fill:#7DA0C9;}
	.st1{fill:none;stroke:#6483AB;stroke-width:2;stroke-miterlimit:10;}
	.st2{fill:#6483AB;}
</style>
<g>
	<g>
		<path class="st0" d="M95.2,16.8c-2,22.5-0.5,56,1.3,80c2.3,30.6,5.9,36,6.7,59.3c0.2,6.3,0.1,74.3,0.1,84.1
			c7.5,2.1,17.7,3.4,25.2,1.5c0.6-6,1.6-15.9,2.9-31.8s0.9-48.3,1.6-67c0.6-15.6,0.2-30,1.3-70.1c0.3,34.8,1,47.6,2.3,72
			c1,20.3-0.3,44.7,0.9,64.9c1.2,20.2,2.4,31.6,2.4,31.6c8.2,1.3,17.3,1.1,25.5-1.5c-0.2-28.8-0.8-53,0.2-85.5
			c0.8-26,0.7-21,3.9-54.7c2.5-26.4,3.5-60.6-0.2-82.4C168.2,11.1,95.7,10.7,95.2,16.8z"/>
		<path class="st1" d="M134.6,73.2c4.5,19.1,6,53.9,7,74.4s4.7,83.5,4.7,95"/>
		<path class="st1" d="M134.6,73.2c-4.5,19.1-6.4,55.7-7,74.4c-0.5,18.8-5.5,83.3-5.5,94.8"/>
		<path class="st2" d="M102,239.3c8.4,1.9,18.3,2.7,26.5,1.9c0.5,0,0.9,0.5,0.9,1.1c-0.2,3.3-0.4,6.5-0.6,9.8c0,0.6-0.5,0.9-1,1
			c-8.4,0.9-18.3,0.3-26.5-1.9c-0.5-0.1-0.9-0.5-0.9-1.1c0.2-3.3,0.4-6.5,0.6-9.8C101,239.7,101.5,239.2,102,239.3z"/>
		<path class="st2" d="M166,239c-8.4,1.9-18.3,2.7-26.5,1.9c-0.5,0-0.9,0.5-0.9,1.1c0.2,3.3,0.4,6.5,0.6,9.8c0,0.6,0.5,0.9,1,1
			c8.4,0.9,18.3,0.3,26.5-1.9c0.5-0.1,0.9-0.5,0.9-1.1c-0.2-3.3-0.4-6.5-0.6-9.8C167,239.5,166.5,238.9,166,239z"/>
		<path class="st2" d="M94.6,21.7c5,1.1,20.4,3.7,34.2,4.1c0-2.9,0.1-5.3,0.1-6.9c0.4,0,0.8,0,1.2,0c0,1.6-0.1,4-0.1,6.9
			c1.5,0,3.1,0,4.6,0c10.6,0,23.9-1.6,35-4.2c0.1,0.4,0.2,0.8,0.3,1.2c-11.2,2.6-24.6,4.2-35.3,4.2c-1.6,0-3.1,0-4.7,0
			c-0.1,3.4-0.1,7.4-0.2,11.4c-0.1,10.2-0.3,20.9-0.3,23.2c0,1.5,1,2,2.3,2l0,0c1.5,0,3.3-0.6,4.4-1l0.4,1.1c-1.2,0.4-3.2,1-4.8,1
			l0,0c-1.9,0-3.5-0.7-3.5-3.2c0-2.1,0.1-12.7,0.3-23.2c0.1-4,0.1-8,0.2-11.5c-13.9-0.4-29.3-3-34.4-4.1
			C94.4,22.5,94.5,22.1,94.6,21.7z"/>
	</g>
</g>
</svg>
