<?xml version="1.0" encoding="utf-8"?>
<!-- Generator: Adobe Illustrator 19.2.1, SVG Export Plug-In . SVG Version: 6.00 Build 0)  -->
<svg version="1.1" id="Layer_1" xmlns="http://www.w3.org/2000/svg" xmlns:xlink="http://www.w3.org/1999/xlink" x="0px" y="0px"
	 viewBox="0 0 178 266" style="enable-background:new 0 0 178 266;" xml:space="preserve">
<style type="text/css">
	.st0{fill:#586B7D;}
	.st1{fill:#475059;}
</style>
<g>
	<g>
		<path class="st0" d="M123.9,14.5c-19.6,15.7-48.3,14.9-71.1,3.2c-1.8,9.2-2.4,21-1.1,34.8c2.3,23.3,5.5,53.1,10.3,72.4
			c0,5,0.1,10.7,0.6,17c0.7,9.1,0.1,77.7,0.5,93.4c6.5,1.6,10.1,1.5,17.3,0c0.4-7.3,5-67.3,5.1-70.9c0.3-9.9-2.6-37.8-2.3-44.5
			c0-0.3,0-0.6,0-0.9c3.2-21.1,4-50.2,3.3-66.9c0.6,0.1,1.2,0.1,1.8,0.1c0.7,0,1.5-0.1,2.3-0.1c-0.6,14.1-0.1,37,2,56.5
			c0.1,3.2,0.5,6.7,1.3,10.6c0.1,0.6,0.2,1.2,0.3,1.8c0.5,7.4-2.5,29.4-2.5,43.4c0,5.9,3,62.9,4.7,70.9c6.9,1.8,9.8,1,16.7-1
			c0.4-15.7,0.9-83.3,1.5-92.4c0.4-6.1,0.6-11.5,0.5-16.4c4.9-19.3,8.1-49.5,10.5-73C127.2,37,126.3,24.1,123.9,14.5z"/>
		<path class="st1" d="M52.9,17.7c22.7,11.7,51.5,12.5,71.1-3.2c-0.8-3.1-21.2-5.1-34.5-4.6S53.2,11.2,52.9,17.7z"/>
	</g>
</g>
</svg>
