<?xml version="1.0" encoding="utf-8"?>
<!-- Generator: Adobe Illustrator 19.2.1, SVG Export Plug-In . SVG Version: 6.00 Build 0)  -->
<svg version="1.1" id="Layer_1" xmlns="http://www.w3.org/2000/svg" xmlns:xlink="http://www.w3.org/1999/xlink" x="0px" y="0px"
	 viewBox="0 0 178 499" style="enable-background:new 0 0 178 499;" xml:space="preserve">
<style type="text/css">
	.st0{fill-rule:evenodd;clip-rule:evenodd;fill:#CAA340;}
	.st1{fill:#DEB855;}
	.st2{fill:#435873;}
	.st3{fill:#7DA0C9;}
	.st4{fill-rule:evenodd;clip-rule:evenodd;fill:#4D4D4D;}
	
		.st5{fill-rule:evenodd;clip-rule:evenodd;fill:none;stroke:#808080;stroke-width:2.4001;stroke-linecap:round;stroke-linejoin:round;stroke-miterlimit:22.9256;}
	.st6{fill-rule:evenodd;clip-rule:evenodd;fill:none;stroke:#F6C480;stroke-miterlimit:10;}
</style>
<g>
	<path class="st0" d="M109,189.7l27.1,65.5c0.4,2.4,1.8,3.7,4.2,3l20.7-0.2c2.4-0.7,6.7,0.8,7.1-1.6c3.3-21.7-8.8-36.7-2.9-47.7
		c8.4-15.8-4.6-30.3-12.4-35.6C143.9,166.8,107,178.2,109,189.7z"/>
	<path class="st1" d="M147.4,184c5.1-10.6,10.3-16.6,14.2-18.6c2.2-1.1,4.2-1.2,5.9-0.3c1.6,0.8,2.8,2.5,3.3,4.9
		c1.1,4.8-0.3,13.7-5.5,25.5l-4.4-1.9c4.8-10.8,6.1-18.6,5.3-22.6c-0.2-0.9-0.5-1.5-0.8-1.7c-0.3-0.1-0.8,0-1.5,0.3
		c-3.1,1.6-7.4,6.8-12.1,16.4L147.4,184z"/>
	<g>
		<path class="st2" d="M110.6,22.5c0,0,14.5,2,17,4.5c2.5,2.5-1.4,6.6-6.4,10c-5,3.5-12.5-13.5-12.5-13.5"/>
		<path class="st3" d="M88.8,7c-29.2,0-31,22.1-30.5,30c13.9,9.4,52.8,7.5,62.8,0C121.1,31.3,118,7,88.8,7z M71.7,36.4l1.5-8.5
			c6.5,3.5,21.9,3,21.9,3s1.5,2.5,1.5,6C92.6,38.9,71.7,36.4,71.7,36.4z"/>
	</g>
	<path class="st4" d="M50.2,240.2c0.2-45.8,9.2-50-11-111.7c1.7-4.2,7.2-12.3,27.8-16.9c14.5,15.2,29.7,16.8,45.2,0.1
		c11.7,3,24.8,6.7,28,17.4c-9,64.4-8.5,64.8-9.3,111.2C107.9,234.8,73,235.2,50.2,240.2z"/>
	<path class="st4" d="M42.8,123.6C30.2,135.3,26,185.4,24.9,197c-1.1,11.6,2.4,54.2,2.9,60.2c6.4,1.4,13.8,1.8,20.4-1.2
		c0,0-1.9-51.1-1.6-57.8c0.2-6.7,16.6-29.9,24.2-47.8C78.4,132.6,54.9,122,42.8,123.6z"/>
	<path class="st4" d="M134.8,120.9c21.4,19.1,21.3,64.1,21.5,77.1c0.2,13-0.2,61.1-0.2,61.1c-6.6,1.9-13.2,1.2-20.1-0.7
		c0,0,0.9-52.5,0.7-59.2c-0.2-6.7-14.9-33.7-22.6-51.5S122.7,119.3,134.8,120.9z"/>
	<g>
		<line class="st5" x1="54.4" y1="167.7" x2="60" y2="160.5"/>
		<line class="st5" x1="65.7" y1="167.7" x2="60" y2="160.5"/>
		<line class="st5" x1="77" y1="167.7" x2="71.4" y2="160.5"/>
		<line class="st5" x1="65.7" y1="167.7" x2="71.4" y2="160.5"/>
		<line class="st5" x1="77" y1="167.7" x2="82.7" y2="160.5"/>
		<line class="st5" x1="88.4" y1="167.7" x2="82.7" y2="160.5"/>
		<line class="st5" x1="99.7" y1="167.7" x2="94.1" y2="160.5"/>
		<line class="st5" x1="88.4" y1="167.7" x2="94.1" y2="160.5"/>
		<line class="st5" x1="99.7" y1="167.7" x2="105.4" y2="160.5"/>
		<line class="st5" x1="111.1" y1="167.7" x2="105.4" y2="160.5"/>
		<line class="st5" x1="122.4" y1="167.7" x2="116.8" y2="160.5"/>
		<line class="st5" x1="111.1" y1="167.7" x2="116.8" y2="160.5"/>
		<line class="st5" x1="122.4" y1="167.7" x2="128.1" y2="160.5"/>
		<line class="st5" x1="133.8" y1="167.7" x2="128.1" y2="160.5"/>
	</g>
	<g>
		<line class="st5" x1="54.4" y1="179.5" x2="60" y2="172.3"/>
		<line class="st5" x1="65.7" y1="179.5" x2="60" y2="172.3"/>
		<line class="st5" x1="77" y1="179.5" x2="71.4" y2="172.3"/>
		<line class="st5" x1="65.7" y1="179.5" x2="71.4" y2="172.3"/>
		<line class="st5" x1="77" y1="179.5" x2="82.7" y2="172.3"/>
		<line class="st5" x1="88.4" y1="179.5" x2="82.7" y2="172.3"/>
		<line class="st5" x1="99.7" y1="179.5" x2="94.1" y2="172.3"/>
		<line class="st5" x1="88.4" y1="179.5" x2="94.1" y2="172.3"/>
		<line class="st5" x1="99.7" y1="179.5" x2="105.4" y2="172.3"/>
		<line class="st5" x1="111.1" y1="179.5" x2="105.4" y2="172.3"/>
		<line class="st5" x1="122.4" y1="179.5" x2="116.8" y2="172.3"/>
		<line class="st5" x1="111.1" y1="179.5" x2="116.8" y2="172.3"/>
		<line class="st5" x1="122.4" y1="179.5" x2="128.1" y2="172.3"/>
		<line class="st5" x1="133.8" y1="179.5" x2="128.1" y2="172.3"/>
	</g>
	<path class="st1" d="M119.4,113c-2.1,10.8,0.5,36.1,5.9,64.3c5.1,26.9,12.8,56.2,21.5,78.1l-10,3c-9-22.6-16.9-51.6-22.1-79.1
		c-5.6-29.4-8.2-56.2-5.9-68.3L119.4,113z"/>
	<path class="st4" d="M156.2,198c0.2,13-0.2,61.1-0.2,61.1c-6.6,1.9-13.2,1.2-20.1-0.7c0,0,0.9-52.5,0.7-59.2"/>
</g>
<rect x="-34.5" y="-13.5" class="st6" width="249" height="547.5"/>
</svg>
