<?xml version="1.0" encoding="utf-8"?>
<!-- Generator: Adobe Illustrator 19.2.1, SVG Export Plug-In . SVG Version: 6.00 Build 0)  -->
<svg version="1.1" id="Layer_1" xmlns="http://www.w3.org/2000/svg" xmlns:xlink="http://www.w3.org/1999/xlink" x="0px" y="0px"
	 viewBox="0 0 178 66" style="enable-background:new 0 0 178 66;" xml:space="preserve">
<style type="text/css">
	.st0{fill:#ED5940;}
</style>
<g>
	<path class="st0" d="M116.4,33.7l-0.4-3.2l-4.4,0.1c-1.6-0.5-5.2-1.2-10.9-0.8c-7.1,0.5-8.6,1.9-9.3,1.8c-0.9-0.1-1.9-0.2-2.7-0.2
		c-0.9,0-1.8,0.1-2.6,0.2c-0.7,0.1-2.2-1.3-9.3-1.9c-5.7-0.4-9.3,0.3-10.9,0.8l-5.2-0.1l-0.1,3.3h4.3c0.1,0.1,0.1,0.1,0.2,0.2
		c0.7,0.5,1.3,2.3,3,4.6s10,2.6,12.9,2.2c2.9-0.3,5-3.8,5.4-4.9c0.9-2.4,3.5-2.3,4.4,0c0.4,1,2.5,4.5,5.4,4.9s11.2,0.1,12.9-2.2
		c1.7-2.3,2.3-4.1,3-4.6c0.1,0,0.1-0.1,0.2-0.2H116.4z M82,39.6c-2.4,0.9-10.2,0.5-12.5-1.1c-2.5-1.8-2.8-5.5-0.9-7.2
		c1-0.9,4.4-1.2,7.8-1s7.9,1,8.8,2.9C86.1,35.3,84.4,38.8,82,39.6z M107.8,38.6c-2.3,1.6-10.1,1.9-12.5,1s-4.1-4.4-3.2-6.3
		c0.9-2,5.3-2.7,8.8-2.9c3.4-0.2,6.9,0.1,7.8,1C110.6,33.2,110.3,36.9,107.8,38.6z"/>
</g>
</svg>
