<?xml version="1.0" encoding="utf-8"?>
<!-- Generator: Adobe Illustrator 19.2.1, SVG Export Plug-In . SVG Version: 6.00 Build 0)  -->
<svg version="1.1" id="Layer_1" xmlns="http://www.w3.org/2000/svg" xmlns:xlink="http://www.w3.org/1999/xlink" x="0px" y="0px"
	 viewBox="0 0 224 224" style="enable-background:new 0 0 224 224;" xml:space="preserve">
<style type="text/css">
	.st0{fill:#9AC5E8;stroke:#9AC5E8;stroke-width:5;stroke-linejoin:round;}
</style>
<path id="path3007" class="st0" d="M190.7,78.1h-14.5V58l-26.6,26.6c9.5,12,14.3,25.6,14.3,40.8c0,18-6.4,33.3-19.2,46.1
	s-28.2,19.2-46.1,19.2s-33.3-6.4-46.1-19.2s-19.2-28.1-19.2-46.1c0-17.8,6.4-33.2,19.2-45.9c12.8-12.8,28.2-19.2,46.1-19.2
	c15.3,0,28.9,4.7,40.8,14.2L166,47.8h-20.1V33.3h44.8V78.1z M98.6,176.3c13.9,0,25.9-5,35.8-14.9c10-10,15-22,15-36
	s-5-25.9-14.9-35.8c-9.9-9.9-21.9-14.9-35.9-14.9c-13.9,0-25.9,5-35.8,14.9c-10,9.9-14.9,21.9-14.9,35.8c0,14,4.9,26,14.9,36
	C72.7,171.3,84.7,176.3,98.6,176.3z"/>
</svg>
